<svg xmlns="http://www.w3.org/2000/svg" viewBox="0 0 216.01 207.41"><defs><style>.cls-1{fill:#00acc1;}.cls-2{fill:#ffab00;}</style></defs><title>AscendereLogo</title><g id="Layer_2" data-name="Layer 2"><g id="Layer_1-2" data-name="Layer 1"><path class="cls-1" d="M98.87,32.66a66.24,66.24,0,0,1,16.57-.25c1.5.19,3.26.1,4.44,1.22a3.74,3.74,0,0,1-.54,5.88c-1.28.87-2.86.39-4.28.26A59.66,59.66,0,0,0,99.58,40a3.57,3.57,0,0,1-4.08-3.41A3.68,3.68,0,0,1,98.87,32.66Z"/><path class="cls-1" d="M104.45,41c5.9-.13,11.89-.14,17.65,1.33,2.66.71,3.28,4.71,1.14,6.32-1,1-2.58.87-3.87.61a58,58,0,0,0-22.42,0,4.09,4.09,0,0,1-3.71-.73c-2.13-1.73-1.32-5.71,1.42-6.31A51.21,51.21,0,0,1,104.45,41Z"/><path class="cls-1" d="M97.93,50.51c9.54-1.33,19.45-1,28.68,1.87,1.6.58,3.58,1,4.41,2.64a3.62,3.62,0,0,1-1.7,5.06c-2.06,1-4.09-.58-6.09-1A56.77,56.77,0,0,0,93.73,59c-2.23.46-4.55,2.32-6.81,1A3.73,3.73,0,0,1,87,53.52,44.91,44.91,0,0,1,97.93,50.51Z"/><path class="cls-1" d="M87,65.52a3.64,3.64,0,0,1,5.09-2.73,4,4,0,0,1,2.27,4.15c-.1,3.45.39,7-.86,10.34a13.21,13.21,0,0,1-5.8,6.77,36.66,36.66,0,0,0-16,27.19,54.53,54.53,0,0,0,.21,8.27,31.69,31.69,0,0,0,4.13,12.22c.74,1.16,1.46,2.33,2.17,3.51a35.67,35.67,0,0,0,22.81,14.93,60.36,60.36,0,0,0,8.07.76,34.79,34.79,0,0,0,15.67-4,54.91,54.91,0,0,0,7.9-5.39,34.71,34.71,0,0,0,11.25-18.65,36.9,36.9,0,0,0-14.79-38.79,30.27,30.27,0,0,1-4.77-3.44,12.72,12.72,0,0,1-3.32-5.82c-.67-2.59-.35-5.28-.42-7.92a4,4,0,0,1,2.17-4.13A3.68,3.68,0,0,1,128,65.48c.35,2.46-.12,5,.25,7.43a5.92,5.92,0,0,0,3.1,3.77,43.93,43.93,0,0,1,7.83,68.83,43.25,43.25,0,0,1-24.67,12.24c-16.61,2.57-34.2-5.53-43.16-19.72A43.76,43.76,0,0,1,81,79.77c2-1.76,5-2.83,5.78-5.66C87.16,71.26,86.74,68.37,87,65.52Z"/><path class="cls-2" d="M100.13,62.71a6.75,6.75,0,0,1,2.29-.23c4.2,0,8.4,0,12.61,0,1.68-.07,3.54,1.12,3.49,3,0,11.9,0,23.81,0,35.71a11.63,11.63,0,0,1-1.21,4.71c-1.75,4.25-3.9,8.32-6,12.39a13.3,13.3,0,0,1-2.55,3.79c-1.47.23-2.05-1.42-2.71-2.41-2.95-5.68-6.31-11.28-8-17.49C97.91,90.1,98,78,98,66A3.17,3.17,0,0,1,100.13,62.71ZM100.5,101c.24,3.26,2.11,6.08,3.31,9l1,.34a37.73,37.73,0,0,1,6.88,0l1.05-.31a44.75,44.75,0,0,0,3.54-9.07C111,101,105.75,101,100.5,101Z"/><path class="cls-1" d="M103.73.16C105,.1,106.22,0,107.47,0c-1.64,3-3.33,6-4.8,9.1a34.51,34.51,0,0,0,.43,5.72l-3.34.25c-.37-2.36.3-5.19-1.5-7.06C96.49,5.72,94.8,3.38,93,1.1L96.79.68c1.42,1.73,2.46,3.74,4,5.33C101.75,4,102.73,2.1,103.73.16Z"/><path class="cls-1" d="M111,0c3.63.26,7.26.61,10.9.83,0,1,0,2-.07,2.94-2.57-.05-5.12-.6-7.68-.46-.2.86-.29,1.73-.41,2.61,2.28.28,4.57.46,6.86.58-.07,1-.15,2-.22,2.93-2.23-.15-4.44-.34-6.66-.53-.14.94-.3,1.88-.43,2.83,2.59.41,5.22.47,7.84.67q-.08,1.5-.21,3c-3.66-.37-7.33-.64-11-.89C110.24,9.72,110.8,4.89,111,0Z"/><path class="cls-1" d="M84.43,2.75a7.53,7.53,0,0,1,6.52,1.94,7.71,7.71,0,0,1,.11,10.86c-2.93,2.85-8.14,3.09-11.07.11a7.65,7.65,0,0,1-1.68-8A7.77,7.77,0,0,1,84.43,2.75ZM83.9,6.06c-3.12,1.14-3.62,5.72-1,7.65C85.39,16,90,14,89.84,10.57,90.16,7.52,86.81,4.74,83.9,6.06Z"/><path class="cls-1" d="M128.15,3.54A8.31,8.31,0,0,1,138.5,6.65q-1.31.95-2.66,1.85c-1.06-1.43-2.59-2.82-4.51-2.57-3.43.25-5.26,5-2.89,7.52,1.56,1.87,4.25,1.52,6.23.61.49.84,1,1.67,1.51,2.5C132.62,19,127,18,124.9,14.09A7.81,7.81,0,0,1,128.15,3.54Z"/><path class="cls-1" d="M142,5.77l11.11,4.73q-.59,1.42-1.19,2.83c-1.36-.56-2.72-1.15-4.09-1.69-1.41,3.55-3,7-4.45,10.53-1-.41-2.07-.86-3.08-1.32,1.59-3.49,3-7.05,4.56-10.55-1.36-.55-2.71-1.12-4.06-1.68Z"/><path class="cls-1" d="M61.4,11.59c3.36-1.14,6.44-4,10.19-3.24,3.26,1,4.36,5.59,2.05,8,1.73,1.08,3.49,2.11,5.24,3.18-1.14.59-2.3,1.13-3.48,1.65-1.59-1-3.2-1.94-4.77-2.94l-2.06,1c.53,1.43,1.18,2.8,1.82,4.18-1,.49-2,1-2.93,1.44C65.41,20.47,63.26,16.09,61.4,11.59ZM65.66,13c.5,1.21,1,2.42,1.54,3.63,1.75-.72,3.73-1.34,4.72-3.11-.52-.91-.92-2.27-2.22-2.17A19.81,19.81,0,0,0,65.66,13Z"/><path class="cls-1" d="M155.71,14.78c4.74-1.6,10.44,2.27,10.26,7.37a7.47,7.47,0,0,1-8.16,7.51,7.94,7.94,0,0,1-7.27-8.06A7.76,7.76,0,0,1,155.71,14.78ZM156.6,18c-2.74,1.33-3.82,5.54-1.15,7.49,2.59,2.53,7.12.07,7.16-3.31A4.29,4.29,0,0,0,156.6,18Z"/><path class="cls-1" d="M48.21,20c2.48-1.46,4.64-3.63,7.45-4.41,3.58-.94,6.89,3.13,5.7,6.48-.69,2.19-2.85,3.37-4.62,4.61.8,1.18,1.6,2.37,2.44,3.53-.92.63-1.83,1.25-2.73,1.89C53.59,28.15,51,24,48.21,20Zm4.53.61C53.47,21.8,54.24,23,55,24.15c1.22-.83,2.83-1.46,3.34-3,.17-1-.73-1.69-1.21-2.45C55.39,18.55,54.07,19.72,52.73,20.62Z"/><path class="cls-1" d="M98.87,32.66a66.24,66.24,0,0,1,16.57-.25c1.5.19,3.26.1,4.44,1.22a3.74,3.74,0,0,1-.54,5.88c-1.28.87-2.86.39-4.28.26A59.66,59.66,0,0,0,99.58,40a3.57,3.57,0,0,1-4.08-3.41A3.68,3.68,0,0,1,98.87,32.66Z"/><path class="cls-1" d="M104.45,41c5.9-.13,11.89-.14,17.65,1.33,2.66.71,3.28,4.71,1.14,6.32-1,1-2.58.87-3.87.61a58,58,0,0,0-22.42,0,4.09,4.09,0,0,1-3.71-.73c-2.13-1.73-1.32-5.71,1.42-6.31A51.21,51.21,0,0,1,104.45,41Z"/><path class="cls-1" d="M97.93,50.51c9.54-1.33,19.45-1,28.68,1.87,1.6.58,3.58,1,4.41,2.64a3.62,3.62,0,0,1-1.7,5.06c-2.06,1-4.09-.58-6.09-1A56.77,56.77,0,0,0,93.73,59c-2.23.46-4.55,2.32-6.81,1A3.73,3.73,0,0,1,87,53.52,44.91,44.91,0,0,1,97.93,50.51Z"/><path class="cls-2" d="M93,119.46a4.43,4.43,0,1,1,7.46,4.27,5.63,5.63,0,0,1-3.57,1.43,15.74,15.74,0,0,0-1.15,3,13.52,13.52,0,0,1,7.71,7.54c1.14-.3,2.27-.66,3.39-1.05A22.31,22.31,0,0,1,117,120.44,22.76,22.76,0,0,1,137.65,119a29.27,29.27,0,0,1,6.29,3.89,34.71,34.71,0,0,1-11.25,18.65c0-5.55,0-11.09,0-16.63-2.67.05-5.42-.36-8,.5-2.11.62-4.22,1.24-6.34,1.77.28,2.12.89,4.17,1.38,6.25,1.68-.3,3.34-.7,5-1.12,0,4.87-.05,9.75,0,14.62a34.79,34.79,0,0,1-15.67,4,24,24,0,0,1-2.67-14.6c-.84.25-1.67.52-2.5.78,1.39,4.53,0,9.43-2.9,13.06a35.67,35.67,0,0,1-22.81-14.93l1.58-2.71L78,130.71l-1.89,1a31.69,31.69,0,0,1-4.13-12.22,6.83,6.83,0,0,1,6.89,1.39,6.56,6.56,0,0,1,1.62,6.41c-.26.94-1.07,1.73-1.08,2.72.4.53.87,1,1.32,1.5a14.6,14.6,0,0,1,13.62-4l1.12-2.77C93.57,123.82,92.21,121.55,93,119.46Z"/><path class="cls-1" d="M187.27,100c1.9.34,3.83.54,5.73.89-.72,5.1-1.5,10.19-2.2,15.29,1.9.25,3.79.56,5.69.77.57-4.45,1.36-8.88,1.87-13.34,1.92.14,3.82.44,5.72.75-.53,4.49-1.34,8.93-1.87,13.42,1.94.36,3.9.6,5.85.93q1.1-7.77,2.25-15.53c1.9.26,3.79.57,5.7.8-1.05,7.24-2.12,14.48-3.12,21.72-9.59-1.08-19.11-2.71-28.67-4C185.15,114.45,186.34,107.25,187.27,100Z"/><path class="cls-1" d="M0,100.78c10.26,2.57,20.46,5.32,30.7,7.94q.46,3,.87,5.93c-9,5.46-17.93,11.14-27,16.47-.22-2.24-.85-4.44-.79-6.69,1.88-1.26,3.88-2.32,5.82-3.48-.63-4-1-8-1.85-11.93-2.15-.88-4.53-1.08-6.74-1.8C.66,105.07.38,102.91,0,100.78Zm13.76,9.62c.42,2.46.77,4.93,1.13,7.41,2.79-1.73,5.69-3.29,8.41-5.12C20.12,112,17,111.11,13.76,110.4Z"/><path class="cls-1" d="M178.62,134.41c1.63-2.68,4.32-5.2,7.64-5.22a10.12,10.12,0,0,1,10.07,6.25,13.71,13.71,0,0,1,.43,4.65c4.13-.44,8.25-1,12.39-1.28-1.15,2.18-2.36,4.32-3.48,6.51-3.41.43-6.84.69-10.26,1-.71-.1-1.09.56-1.39,1.07-.64,1.11-1.2,2.27-1.76,3.42,2.73,1.38,5.38,2.91,8.11,4.31-1,1.89-2.05,3.81-3.06,5.73-8.54-4.57-17.09-9.13-25.59-13.77C174.09,142.89,176.24,138.59,178.62,134.41Zm7.64,1.32a5.5,5.5,0,0,0-3.31,2.94c-1,1.83-2,3.69-2.94,5.53,2.41,1.25,4.72,2.71,7.24,3.74,1.1-2.48,2.8-4.69,3.62-7.29S188.86,135.37,186.26,135.73Z"/><path class="cls-1" d="M23.37,136.29c1.84-4.82,8.66-6.71,12.77-3.59,4.69,3.46,6.44,9.85,5.62,15.44-1.88-.14-3.76-.33-5.62-.62l-.3-.4c.34-3.26,0-7.21-2.75-9.39a2.36,2.36,0,0,0-3.62,2c.26,4,2.28,7.92,1.65,12-.71,5.2-7.39,8-11.86,5.66-3.18-1.5-5-4.72-6.3-7.85-1.34-3.34-1.18-7-.77-10.54,2,.38,3.93.8,5.91,1.14a13.77,13.77,0,0,0,.59,8.15c.68,1.54,1.67,3.2,3.36,3.75a2.46,2.46,0,0,0,2.69-2.7C24.5,145,22.08,140.71,23.37,136.29Z"/><path class="cls-1" d="M152.77,165.2c5.39-4.94,10.87-9.78,16.28-14.7a48.69,48.69,0,0,1,3.89,4.44c-3.94,3.28-7.63,6.84-11.47,10.23,1.31,1.37,2.53,2.84,3.85,4.21,3.29-3,6.57-6,9.91-8.91,1.68.88,2.61,2.86,4.06,4.11-3.33,3.09-6.79,6.05-10.11,9.15,1.36,1.42,2.65,2.9,4,4.34,3.86-3.52,7.7-7.06,11.67-10.45l3.83,4.36c-5.55,4.83-11,9.82-16.43,14.75C165.7,179.58,159.32,172.31,152.77,165.2Z"/><path class="cls-1" d="M40.64,157.4a14.87,14.87,0,0,1,13.7-.56c5.14,2.5,9.14,7.69,9.33,13.53-2,.33-4.13.47-6.17.85-.35-2.71-1.23-5.5-3.34-7.36a7.92,7.92,0,0,0-7.08-1.92,10.16,10.16,0,0,0-7.66,8.57A8.2,8.2,0,0,0,43,178c2,1.55,4.56,1.89,7,1.88q.22,2.92.33,5.85a19.92,19.92,0,0,1-6.14-.49c-6.94-2-12.29-9.24-11.14-16.59A15.64,15.64,0,0,1,40.64,157.4Z"/><path class="cls-1" d="M69.7,168.92c6.8,2.59,13.53,5.41,20.33,8-.62,1.83-1.36,3.61-2.07,5.42-4.85-1.79-9.55-4-14.49-5.57-.6,1.74-1.33,3.44-1.93,5.19,4.16,1.73,8.38,3.33,12.56,5q-1.07,2.62-2,5.29c-4.34-1.36-8.45-3.38-12.77-4.83q-1.11,2.7-2.14,5.42,7.24,2.91,14.5,5.76c-.66,1.84-1.38,3.65-2.17,5.44-6.77-2.84-13.65-5.41-20.43-8.21C62.55,186.83,66.21,177.9,69.7,168.92Z"/><path class="cls-1" d="M135.56,173.37a15.75,15.75,0,0,1,12.75.34,14.57,14.57,0,0,1,7,17.43,15.27,15.27,0,0,1-8.74,9c-3.68,1.48-7.42,2.84-11.07,4.4-3.66-8.95-7-18-10.66-27C128.39,176.13,132,174.75,135.56,173.37ZM133,180.65c2,5.14,4,10.3,6.06,15.45.16.79,1.07.23,1.55.12,2.61-1,5.54-1.88,7.26-4.28,3.67-4.66.46-12.42-5.23-13.6C139.26,177.53,136.15,179.59,133,180.65Z"/><path class="cls-1" d="M94.35,178.16q3,0,6,0,6.41,8.8,12.9,17.56c.7-5.77.11-11.61.56-17.39,2.1.1,4.2.18,6.3.15-.3,4.1-.14,8.21-.22,12.32,0,5.54-.4,11.07-.29,16.62-1.85,0-3.7,0-5.54-.1-4.2-5.77-8.46-11.48-12.66-17.25-.34-.44-.67-.87-1-1.3-.2,6,0,12.07-.42,18.1-2,0-4,0-6,0,.41-5.71.29-11.45.17-17.17C94,185.82,94.51,182,94.35,178.16Z"/><path class="cls-2" d="M100.13,62.71a6.75,6.75,0,0,1,2.29-.23c4.2,0,8.4,0,12.61,0,1.68-.07,3.54,1.12,3.49,3,0,11.9,0,23.81,0,35.71a11.63,11.63,0,0,1-1.21,4.71c-1.75,4.25-3.9,8.32-6,12.39a13.3,13.3,0,0,1-2.55,3.79c-1.47.23-2.05-1.42-2.71-2.41-2.95-5.68-6.31-11.28-8-17.49C97.91,90.1,98,78,98,66A3.17,3.17,0,0,1,100.13,62.71ZM100.5,101c.24,3.26,2.11,6.08,3.31,9l1,.34a37.73,37.73,0,0,1,6.88,0l1.05-.31a44.75,44.75,0,0,0,3.54-9.07C111,101,105.75,101,100.5,101Z"/><path class="cls-1" d="M100,206.87c.42-6,.22-12.06.42-18.1.35.42.68.86,1,1.3l-.84-.21c.23,5.75-.3,11.5-.24,17.26q-3.32.12-6.65,0c.24-5.82,0-11.66.44-17.46.12,5.72.24,11.46-.17,17.17C96,206.84,98,206.84,100,206.87Z"/><path class="cls-1" d="M98.87,32.66a66.24,66.24,0,0,1,16.57-.25c1.5.19,3.26.1,4.44,1.22a3.74,3.74,0,0,1-.54,5.88c-1.28.87-2.86.39-4.28.26A59.66,59.66,0,0,0,99.58,40a3.57,3.57,0,0,1-4.08-3.41A3.68,3.68,0,0,1,98.87,32.66Z"/><path class="cls-1" d="M104.45,41c5.9-.13,11.89-.14,17.65,1.33,2.66.71,3.28,4.71,1.14,6.32-1,1-2.58.87-3.87.61a58,58,0,0,0-22.42,0,4.09,4.09,0,0,1-3.71-.73c-2.13-1.73-1.32-5.71,1.42-6.31A51.21,51.21,0,0,1,104.45,41Z"/><path class="cls-1" d="M97.93,50.51c9.54-1.33,19.45-1,28.68,1.87,1.6.58,3.58,1,4.41,2.64a3.62,3.62,0,0,1-1.7,5.06c-2.06,1-4.09-.58-6.09-1A56.77,56.77,0,0,0,93.73,59c-2.23.46-4.55,2.32-6.81,1A3.73,3.73,0,0,1,87,53.52,44.91,44.91,0,0,1,97.93,50.51Z"/><path class="cls-2" d="M93,119.46a4.43,4.43,0,1,1,7.46,4.27,5.63,5.63,0,0,1-3.57,1.43,15.74,15.74,0,0,0-1.15,3,13.52,13.52,0,0,1,7.71,7.54c1.14-.3,2.27-.66,3.39-1.05A22.31,22.31,0,0,1,117,120.44,22.76,22.76,0,0,1,137.65,119a29.27,29.27,0,0,1,6.29,3.89,34.71,34.71,0,0,1-11.25,18.65c0-5.55,0-11.09,0-16.63-2.67.05-5.42-.36-8,.5-2.11.62-4.22,1.24-6.34,1.77.28,2.12.89,4.17,1.38,6.25,1.68-.3,3.34-.7,5-1.12,0,4.87-.05,9.75,0,14.62a34.79,34.79,0,0,1-15.67,4,24,24,0,0,1-2.67-14.6c-.84.25-1.67.52-2.5.78,1.39,4.53,0,9.43-2.9,13.06a35.67,35.67,0,0,1-22.81-14.93l1.58-2.71L78,130.71l-1.89,1a31.69,31.69,0,0,1-4.13-12.22,6.83,6.83,0,0,1,6.89,1.39,6.56,6.56,0,0,1,1.62,6.41c-.26.94-1.07,1.73-1.08,2.72.4.53.87,1,1.32,1.5a14.6,14.6,0,0,1,13.62-4l1.12-2.77C93.57,123.82,92.21,121.55,93,119.46Z"/><path class="cls-2" d="M100.13,62.71a6.75,6.75,0,0,1,2.29-.23c4.2,0,8.4,0,12.61,0,1.68-.07,3.54,1.12,3.49,3,0,11.9,0,23.81,0,35.71a11.63,11.63,0,0,1-1.21,4.71c-1.75,4.25-3.9,8.32-6,12.39a13.3,13.3,0,0,1-2.55,3.79c-1.47.23-2.05-1.42-2.71-2.41-2.95-5.68-6.31-11.28-8-17.49C97.91,90.1,98,78,98,66A3.17,3.17,0,0,1,100.13,62.71ZM100.5,101c.24,3.26,2.11,6.08,3.31,9l1,.34a37.73,37.73,0,0,1,6.88,0l1.05-.31a44.75,44.75,0,0,0,3.54-9.07C111,101,105.75,101,100.5,101Z"/><path class="cls-1" d="M98.87,32.66a66.24,66.24,0,0,1,16.57-.25c1.5.19,3.26.1,4.44,1.22a3.74,3.74,0,0,1-.54,5.88c-1.28.87-2.86.39-4.28.26A59.66,59.66,0,0,0,99.58,40a3.57,3.57,0,0,1-4.08-3.41A3.68,3.68,0,0,1,98.87,32.66Z"/><path class="cls-1" d="M104.45,41c5.9-.13,11.89-.14,17.65,1.33,2.66.71,3.28,4.71,1.14,6.32-1,1-2.58.87-3.87.61a58,58,0,0,0-22.42,0,4.09,4.09,0,0,1-3.71-.73c-2.13-1.73-1.32-5.71,1.42-6.31A51.21,51.21,0,0,1,104.45,41Z"/><path class="cls-1" d="M97.93,50.51c9.54-1.33,19.45-1,28.68,1.87,1.6.58,3.58,1,4.41,2.64a3.62,3.62,0,0,1-1.7,5.06c-2.06,1-4.09-.58-6.09-1A56.77,56.77,0,0,0,93.73,59c-2.23.46-4.55,2.32-6.81,1A3.73,3.73,0,0,1,87,53.52,44.91,44.91,0,0,1,97.93,50.51Z"/><path class="cls-2" d="M93,119.46a4.43,4.43,0,1,1,7.46,4.27,5.63,5.63,0,0,1-3.57,1.43,15.74,15.74,0,0,0-1.15,3,13.52,13.52,0,0,1,7.71,7.54c1.14-.3,2.27-.66,3.39-1.05A22.31,22.31,0,0,1,117,120.44,22.76,22.76,0,0,1,137.65,119a29.27,29.27,0,0,1,6.29,3.89,34.71,34.71,0,0,1-11.25,18.65c0-5.55,0-11.09,0-16.63-2.67.05-5.42-.36-8,.5-2.11.62-4.22,1.24-6.34,1.77.28,2.12.89,4.17,1.38,6.25,1.68-.3,3.34-.7,5-1.12,0,4.87-.05,9.75,0,14.62a34.79,34.79,0,0,1-15.67,4,24,24,0,0,1-2.67-14.6c-.84.25-1.67.52-2.5.78,1.39,4.53,0,9.43-2.9,13.06a35.67,35.67,0,0,1-22.81-14.93l1.58-2.71L78,130.71l-1.89,1a31.69,31.69,0,0,1-4.13-12.22,6.83,6.83,0,0,1,6.89,1.39,6.56,6.56,0,0,1,1.62,6.41c-.26.94-1.07,1.73-1.08,2.72.4.53.87,1,1.32,1.5a14.6,14.6,0,0,1,13.62-4l1.12-2.77C93.57,123.82,92.21,121.55,93,119.46Z"/><path class="cls-2" d="M100.13,62.71a6.75,6.75,0,0,1,2.29-.23c4.2,0,8.4,0,12.61,0,1.68-.07,3.54,1.12,3.49,3,0,11.9,0,23.81,0,35.71a11.63,11.63,0,0,1-1.21,4.71c-1.75,4.25-3.9,8.32-6,12.39a13.3,13.3,0,0,1-2.55,3.79c-1.47.23-2.05-1.42-2.71-2.41-2.95-5.68-6.31-11.28-8-17.49C97.91,90.1,98,78,98,66A3.17,3.17,0,0,1,100.13,62.71ZM100.5,101c.24,3.26,2.11,6.08,3.31,9l1,.34a37.73,37.73,0,0,1,6.88,0l1.05-.31a44.75,44.75,0,0,0,3.54-9.07C111,101,105.75,101,100.5,101Z"/><path class="cls-2" d="M93,119.46a4.43,4.43,0,1,1,7.46,4.27,5.63,5.63,0,0,1-3.57,1.43,15.74,15.74,0,0,0-1.15,3,13.52,13.52,0,0,1,7.71,7.54c1.14-.3,2.27-.66,3.39-1.05A22.31,22.31,0,0,1,117,120.44,22.76,22.76,0,0,1,137.65,119a29.27,29.27,0,0,1,6.29,3.89,34.71,34.71,0,0,1-11.25,18.65c0-5.55,0-11.09,0-16.63-2.67.05-5.42-.36-8,.5-2.11.62-4.22,1.24-6.34,1.77.28,2.12.89,4.17,1.38,6.25,1.68-.3,3.34-.7,5-1.12,0,4.87-.05,9.75,0,14.62a34.79,34.79,0,0,1-15.67,4,24,24,0,0,1-2.67-14.6c-.84.25-1.67.52-2.5.78,1.39,4.53,0,9.43-2.9,13.06a35.67,35.67,0,0,1-22.81-14.93l1.58-2.71L78,130.71l-1.89,1a31.69,31.69,0,0,1-4.13-12.22,6.83,6.83,0,0,1,6.89,1.39,6.56,6.56,0,0,1,1.62,6.41c-.26.94-1.07,1.73-1.08,2.72.4.53.87,1,1.32,1.5a14.6,14.6,0,0,1,13.62-4l1.12-2.77C93.57,123.82,92.21,121.55,93,119.46Z"/></g></g></svg>