<svg id="Layer_1" data-name="Layer 1" xmlns="http://www.w3.org/2000/svg" xmlns:xlink="http://www.w3.org/1999/xlink" viewBox="0 0 500 1255"><defs><style>.cls-1{fill:none;}.cls-2{clip-path:url(#clip-path);}.cls-3{fill:#00a5c4;}.cls-4{fill:#fba919;}.cls-5{fill:#ffab00;}.cls-6{fill:#00acc1;}</style><clipPath id="clip-path"><rect class="cls-1" width="500" height="1255"/></clipPath></defs><title>background</title><g class="cls-2"><path class="cls-3" d="M447.7068,471.9715c-22.0581-21.0391-35.277-55.1813-34.7546-81.0449,1.1193-55.8777,66.4155-76.8382,99.7983-46.6443,17.7935,16.08,24.6812,45.0437,33.7731,82.9826,8.7877,36.7595,4.2417,47.1779,2.8412,49.9861C542.8214,490.399,528.8277,491,513.9387,491.64,492.9079,492.522,470.2815,493.4993,447.7068,471.9715Z"/><path class="cls-3" d="M-41.4375,795.706c-32.8815-32.0515-52.5864-84.0647-51.8078-123.466,1.6685-85.1256,99.0038-117.0574,148.7667-71.0592,26.5242,24.4964,36.7917,68.6207,50.3447,126.4179,13.1,56,6.323,71.8721,4.2353,76.15-9.7541,20.03-30.6141,20.9456-52.8088,21.921C25.9426,827.0132-7.786,828.502-41.4375,795.706Z"/><path class="cls-3" d="M-31.9847,242.6044c-59.174,16.5568-133.5813,7.0823-179.856-17.0367-99.966-52.1135-75.3235-176.0167,11.2415-202.55,46.1147-14.1354,105.1214.8,182.4082,20.36C56.7035,62.334,71.1443,79.0071,74.8818,83.7844c17.553,22.3593,5.1917,45.4239-7.8966,69.9573C48.48,188.3749,28.5635,225.6622-31.9847,242.6044Z"/><path class="cls-3" d="M465.214,87.1026c9.74-28.5248,35.3529-54.7676,59.3319-65.2918C576.348-.9347,623.96,48.14,610.7323,90.61c-7.038,22.6311-30.6454,41.0522-61.5377,65.2435-29.9413,23.42-41.4839,23.81-44.6712,23.7592-14.9169-.2244-21.5474-12.3947-28.6028-25.3434C465.9755,135.97,455.25,116.2937,465.214,87.1026Z"/><path class="cls-4" d="M460.1552,315.0607l-3.1971-7.6776a9.4332,9.4332,0,0,0,.8667-.5616,10.5253,10.5253,0,0,0,2.5781-14.879,11.06,11.06,0,0,0-15.2059-2.5226,10.5253,10.5253,0,0,0-2.5781,14.879,11.0293,11.0293,0,0,0,11.6071,4.157l3.2947,7.9079c-.7519.4268-1.4981.8874-2.2213,1.3929h0a27.587,27.587,0,0,0-6.7385,39h0a28.9885,28.9885,0,0,0,39.8573,6.5937h0a27.587,27.587,0,0,0,6.7385-39h0A28.9684,28.9684,0,0,0,460.1552,315.0607Z"/><path class="cls-4" d="M72.8967,413.4076a16.1714,16.1714,0,0,0-22.2575-.5817l.9525-.9525-8.5074-8.5074a42.3118,42.3118,0,0,0,10.907-28.4381h0A42.4717,42.4717,0,0,0,11.52,332.456h0A42.4717,42.4717,0,0,0-30.9231,374.87h0a42.4718,42.4718,0,0,0,42.4717,42.4717h0a42.3118,42.3118,0,0,0,28.4381-10.907l8.5074,8.5074.9525-.9525a16.1714,16.1714,0,1,0,23.45-.5817Z"/><circle class="cls-4" cx="74.4819" cy="662.794" r="23.521"/><path class="cls-3" d="M510.033,1042.405c-42.5844-16.1137-81.0965-55.5919-95.9933-91.7177-32.1967-78.0436,43.6389-145.62,107.0927-123.5138,33.8133,11.7635,60.6219,47.8081,95.8324,94.9805,34.0866,45.7187,34.2123,62.8306,34.0088,67.5464-.9341,22.0712-19.5342,31.1649-39.3238,40.8417C583.6833,1044.1791,553.6122,1058.89,510.033,1042.405Z"/><path class="cls-3" d="M16.4881,1208.4714c-32.0515,32.8815-84.0647,52.5864-123.466,51.8078-85.1256-1.6685-117.0574-99.0038-71.0592-148.7667,24.4964-26.5242,68.6207-36.7917,126.4179-50.3447,56-13.1,71.8721-6.323,76.15-4.2353,20.03,9.7541,20.9456,30.6141,21.921,52.8088C47.7953,1141.0913,49.284,1174.82,16.4881,1208.4714Z"/><path class="cls-4" d="M438.5433,895.5a18.8685,18.8685,0,0,0,.6787-25.97l1.1114,1.1114,9.9264-9.9263A49.3687,49.3687,0,0,0,483.441,873.441h0a49.5554,49.5554,0,0,0,49.5554-49.5554h0a49.5554,49.5554,0,0,0-49.4875-49.5215h0A49.5554,49.5554,0,0,0,433.9535,823.92h0A49.3688,49.3688,0,0,0,446.68,857.1007l-9.9264,9.9263,1.1114,1.1114a18.8685,18.8685,0,1,0,.6787,27.3611Z"/><circle class="cls-4" cx="33.4122" cy="833.918" r="23.521"/><circle class="cls-4" cx="42.8589" cy="173.5633" r="19.9888"/><path class="cls-5" d="M66.1135,991.98c-2.12,2.7279-4.3472,5.3694-6.49,8.0788-.9706-.7561-1.935-1.52-2.9055-2.276.607-.7305,1.2078-1.4534,1.8079-2.1832-.2584-.4481-.51-.8969-.7682-1.3449,1.507-1.7937,2.984-3.6052,4.4527-5.43q-1.2842-1.1-2.5823-2.1989c-2.2742,2.6606-4.45,5.3945-6.6164,8.1414q-1.67-1.363-3.36-2.7238c2.1951-2.68,4.3059-5.428,6.5248-8.0826a6.7971,6.7971,0,0,1,9.4141-.7091A6.8263,6.8263,0,0,1,66.1135,991.98Z"/><path class="cls-5" d="M53.8772,999.93c-1.1139,1.4153-3.6.1089-3.2672-1.6069-.0689-1.6095,2.3533-2.6411,3.373-1.3654A1.91,1.91,0,0,1,53.8772,999.93Z"/><path class="cls-6" d="M59.6233,1000.0584c-1.8183,2.3453-3.7244,5.2391-7.0375,5.3451-3.67.8165-7.7171-2.4351-7.3113-6.2587.2939-2.9156,2.7566-4.8686,4.3771-7.1016q1.69,1.3608,3.36,2.7238c2.1669-2.747,4.3422-5.4809,6.6164-8.1414q1.2946,1.0991,2.5823,2.1989c-1.4687,1.8246-2.9457,3.6361-4.4527,5.43.2584.4481.51.8969.7682,1.3449-.6.73-1.2009,1.4527-1.8079,2.1832C57.6883,998.5386,58.6527,999.3023,59.6233,1000.0584Zm-5.7461-.1282a1.91,1.91,0,0,0,.1058-2.9723c-1.02-1.2758-3.4419-.2441-3.373,1.3654C50.2775,1000.0392,52.7633,1001.3456,53.8772,999.93Z"/><path class="cls-5" d="M447.4418,227.2387c-4.6864,1.4518-9.4288,2.72-14.1273,4.1322-.5264-1.6337-1.0394-3.2712-1.5658-4.9049,1.301-.3578,2.5886-.7117,3.8809-1.0741.0591-.7178.127-1.431.1861-2.1487,3.2139-.8653,6.4072-1.7747,9.6011-2.7057q-.616-2.2759-1.2493-4.5611c-4.8128,1.2527-9.5689,2.6677-14.3257,4.1043q-.8551-2.8817-1.7364-5.7773c4.7358-1.3375,9.4277-2.82,14.1708-4.1091,4.81-1.3092,10.4743,1.8435,11.6011,6.6262A9.4879,9.4879,0,0,1,447.4418,227.2387Z"/><path class="cls-5" d="M426.6866,226.6834c-2.4479.7421-4.305-2.72-2.53-4.4237,1.219-1.8994,4.89-1.1679,5.054,1.1A2.6706,2.6706,0,0,1,426.6866,226.6834Z"/><path class="cls-6" d="M433.3145,231.3709c-4.0241,1.2516-8.594,3.0626-12.5608.566-4.9591-1.9643-7.074-8.8893-3.5108-12.9517,2.6988-3.11,7.1609-3.4026,10.8626-4.6817q.8812,2.8956,1.7364,5.7773c4.7568-1.4366,9.5129-2.8515,14.3257-4.1043q.629,2.2828,1.2493,4.5611c-3.194.931-6.3872,1.84-9.6011,2.7057-.0591.7178-.127,1.431-.1861,2.1487-1.2923.3624-2.58.7163-3.8809,1.0741C432.2751,228.1,432.7881,229.7372,433.3145,231.3709Zm-6.6279-4.6874a2.6706,2.6706,0,0,0,2.5243-3.3235c-.1643-2.2682-3.835-3-5.054-1.1C422.3816,223.9638,424.2387,227.4255,426.6866,226.6834Z"/><path class="cls-5" d="M471.2329,1072.8612c-2.7475,3.5354-5.634,6.9588-8.4113,10.47-1.2579-.98-2.5077-1.97-3.7656-2.95.7867-.9468,1.5653-1.8836,2.343-2.8295-.3349-.5807-.6608-1.1623-.9956-1.743,1.9531-2.3247,3.8673-4.6724,5.7707-7.0371q-1.6643-1.4259-3.3466-2.85c-2.9474,3.4481-5.7666,6.9913-8.5749,10.5514q-2.1638-1.7665-4.3544-3.53c2.8449-3.4733,5.58-7.0347,8.4562-10.475a8.2754,8.2754,0,1,1,12.8786,10.3926Z"/><path class="cls-5" d="M455.3747,1083.1653c-1.4437,1.8342-4.6653.1412-4.2343-2.0826-.0893-2.0859,3.05-3.4229,4.3715-1.77A2.4758,2.4758,0,0,1,455.3747,1083.1653Z"/><path class="cls-6" d="M462.8216,1083.3314c-2.3566,3.04-4.8268,6.79-9.1207,6.9273-4.7567,1.0582-10.0014-3.1559-9.4755-8.1114.3809-3.7786,3.5725-6.31,5.6727-9.2037q2.1907,1.7636,4.3544,3.53c2.8083-3.56,5.6275-7.1032,8.5749-10.5514q1.6778,1.4244,3.3466,2.85c-1.9034,2.3647-3.8177,4.7124-5.7707,7.0371.3349.5807.6608,1.1623.9956,1.743-.7777.9458-1.5563,1.8827-2.343,2.8295C460.3139,1081.3617,461.5638,1082.3515,462.8216,1083.3314Zm-7.447-.1661a2.4758,2.4758,0,0,0,.1371-3.8521c-1.3216-1.6534-4.4607-.3164-4.3715,1.77C450.7094,1083.3065,453.931,1085,455.3747,1083.1653Z"/><path class="cls-5" d="M398.1553,82.458a1.0282,1.0282,0,0,1-1.4205-.4836c-.6344-1.1663-1.2486-2.3458-1.8662-3.5206a1.0913,1.0913,0,0,1,.4939-1.5486c2.7527-1.4163,5.5338-2.7787,8.2772-4.21,2.4619-1.2173,4.8978-2.4837,7.3573-3.7057.9469-.47,1.8839-.959,2.8278-1.432a4.7982,4.7982,0,0,1,1.9634-.3981,43.2461,43.2461,0,0,1,4.6431-.029c.3-.024.4938.2341.7294.3642a7.9334,7.9334,0,0,1-.8186,1.4279,39.7169,39.7169,0,0,1-2.7333,3.52,2.7776,2.7776,0,0,1-.8761.6213q-1.6806.8413-3.3545,1.6926c-.7419.3872-1.49.7627-2.24,1.1377-.22.1114-.4411.2187-.66.3307-.845.4334-1.6875.8656-2.5387,1.2873-.4059.1964-.805.4028-1.2054.6068-.9054.4655-1.8114.9268-2.7219,1.377C402.0561,80.4757,400.1094,81.4739,398.1553,82.458ZM418.231,70.1927a12.9367,12.9367,0,0,0-1.0554-2.19c-.9014.0538-1.8049.0952-2.6973.232.575,1.3552,1.3691,2.6084,2.0046,3.9375A9.4922,9.4922,0,0,0,418.231,70.1927Z"/><path class="cls-6" d="M394.1108,84.4581a1.0905,1.0905,0,0,1-1.1041-.614c-.6244-1.1788-1.2505-2.3582-1.8671-3.5424a1.1069,1.1069,0,0,1,.535-1.54c.6114-.3672,1.4946-.8259,2.1014-.1829.6537.99,1.1167,2.0934,1.7059,3.1223.2824.5518.7889,1.2262.32,1.8256A3.2674,3.2674,0,0,1,394.1108,84.4581Z"/><path class="cls-5" d="M79.57,380.8716a1.29,1.29,0,0,1-1.8134-.5847c-.8381-1.4911-1.651-3-2.4681-4.5025a1.427,1.427,0,0,1,.58-2.0187c3.4441-1.9131,6.926-3.7574,10.358-5.6891,3.0818-1.6471,6.1293-3.357,9.2079-5.01,1.1853-.636,2.3575-1.296,3.5388-1.9357a5.9662,5.9662,0,0,1,2.4748-.5723,53.6089,53.6089,0,0,1,5.88-.1724c.379-.04.6323.2886.9346.45a10.3308,10.3308,0,0,1-.9943,1.8719,51.2928,51.2928,0,0,1-3.3571,4.6355,3.5206,3.5206,0,0,1-1.0911.83q-2.1035,1.1378-4.1982,2.2882c-.9282.5227-1.8645,1.0305-2.8032,1.5376-.2756.1506-.5522.2959-.8255.4472-1.0573.5855-2.1115,1.1694-3.177,1.74-.5082.266-1.0076.5447-1.5086.82-1.1328.6288-2.2666,1.2522-3.4063,1.8613C84.4513,378.1926,82.0155,379.5411,79.57,380.8716Zm25.0613-16.4585A16.91,16.91,0,0,0,103.23,361.61c-1.14.0958-2.283.1757-3.4092.3787.7684,1.7373,1.8114,3.3363,2.6557,5.0381A12.2094,12.2094,0,0,0,104.6312,364.4131Z"/><path class="cls-6" d="M74.507,383.5779a1.3761,1.3761,0,0,1-1.4166-.7626c-.8258-1.5076-1.6538-3.0159-2.47-4.5307a1.4466,1.4466,0,0,1,.6318-2.0084c.7635-.4931,1.8684-1.1124,2.6559-.2978.8573,1.2628,1.4765,2.6771,2.2532,3.9917.3741.7059,1.0356,1.5641.4594,2.3536A4.1154,4.1154,0,0,1,74.507,383.5779Z"/><path class="cls-6" d="M52.9514,254.6429a5.1714,5.1714,0,0,1,.6112-5.8486,5.5581,5.5581,0,0,1,3.571-1.8256,4.4846,4.4846,0,0,1,1.1662-2.87,3.9888,3.9888,0,0,1,3.9464-.9908c.458.1683.8614.4489,1.2989.6573a5.6307,5.6307,0,0,1,2.7267-1.6822,5.2341,5.2341,0,0,1,5.3267,1.751,4.5473,4.5473,0,0,0-1.7629,2.6486.6233.6233,0,0,0,.861.6572c.34-.119.4263-.4914.5476-.7862a2.7538,2.7538,0,0,1,1.7289-1.7135,3.9039,3.9039,0,0,1,4.2341,1.2532,4.0174,4.0174,0,0,1,.8761,2.5758,5.9553,5.9553,0,0,1,3.3764.6327,5.21,5.21,0,0,1,2.6418,4.3773,5.64,5.64,0,0,1-1.331,3.6858,4.41,4.41,0,0,1-4.1259,1.1625.7716.7716,0,0,0-.7811.1261.6078.6078,0,0,0,.1668,1.0606,5.9141,5.9141,0,0,0,5.735-1.4624,3.9113,3.9113,0,0,1-1.56,4.9953c-9.512-2.4816-18.9983-5.0833-28.5008-7.6063C53.282,255.3957,53.15,254.9483,52.9514,254.6429Zm4.5851-.0871a3.9329,3.9329,0,0,0,6.4645-1.8335c.2245-.51-.4515-1.1222-.9184-.7589-.5262.3719-.4772,1.1795-1.0046,1.58a2.6439,2.6439,0,1,1-2.9815-4.27,4.0388,4.0388,0,0,1,2.1485-.1684c.4421-.0883.4662-.5735.4505-.9343a1.736,1.736,0,0,1,.9829-1.6089,1.856,1.856,0,0,1,2.5138.8867c.383.661-.25,1.5659.4814,2.068.1908-.0254.3835-.0519.5762-.0784a2.336,2.336,0,0,1,1.5406-1.1323,1.7985,1.7985,0,0,1,2.0294,2.2271,2.2539,2.2539,0,0,1-.6868,1.1477.6009.6009,0,0,0,.2948,1.0021c.4025.1567.7244-.182.9692-.4518a3.0558,3.0558,0,0,0,.7316-2.7914,3.2889,3.2889,0,0,0-2.1539-2.3516,3.4013,3.4013,0,0,0-2.4119.27,4.1539,4.1539,0,0,0-.9124-1.4557,3.1107,3.1107,0,0,0-3.3334-.5984,3.26,3.26,0,0,0-1.946,2.3961,4.13,4.13,0,0,0-3.6346,2.0935A3.9735,3.9735,0,0,0,57.5364,254.5558Zm7.9349,1.58a3.1385,3.1385,0,0,0,2.9007,2.244,3.5409,3.5409,0,0,0,2.3815-.9347,3.164,3.164,0,0,0,5.4064-2.4784,3.3454,3.3454,0,0,0,3.2591-1.7008c.2926-.57-.56-1.2945-1.02-.7339a2.0484,2.0484,0,0,1-2.0524,1.0977,1.8114,1.8114,0,0,1-1.46-2.3938c.0987-.5385.7268-.8049.7662-1.3528a.7744.7744,0,0,0-.609-.6255c-.5159.0539-.8423.5249-1.108.9209a3.0655,3.0655,0,0,0-.0019,3.2523,6.5793,6.5793,0,0,1,.8476,1.2723,1.9544,1.9544,0,0,1-.6987,2.0611,1.8465,1.8465,0,0,1-2.5342-.4217c-.19-.2282-.3213-.5631-.6453-.6238-.4287-.1377-.7152.2935-.9375.5824a1.7582,1.7582,0,0,1-2.0217.6794,1.8106,1.8106,0,0,1-1.2375-2.2477c.0947-.5054.5619-.797.7889-1.2311a.6565.6565,0,0,0-.9708-.7029A3.0166,3.0166,0,0,0,65.4713,256.1362Z"/><path class="cls-5" d="M49.8208,261.57a5.1571,5.1571,0,0,1,2.5709-4.5584c.2975-.1564.6114-.4288.9664-.2588q12.8336,3.4431,25.6723,6.8795c.94.2714,1.902.4721,2.8318.7815a3.9494,3.9494,0,0,1-1.1674,5.0988,6.0552,6.0552,0,0,0-3.64-3.9771c-.356-.1052-.8255-.3156-1.1312.0111-.4112.3376-.1111,1.0285.3575,1.1328a4.4291,4.4291,0,0,1,2.9705,2.6762,5.2375,5.2375,0,0,1-2.4731,6.0954,5.3488,5.3488,0,0,1-5.8076-.4847,3.8892,3.8892,0,0,1-3.44,2.0494,3.8223,3.8223,0,0,1-2.9566-1.3668,2.9147,2.9147,0,0,1-.516-2.577.7249.7249,0,0,0-.1353-.6435.6253.6253,0,0,0-1.0805.15,4.5489,4.5489,0,0,0,.2036,3.1657,5.2445,5.2445,0,0,1-6.997-4.0057,4.1086,4.1086,0,0,1-3.4719-1.2118,3.8674,3.8674,0,0,1-1.0071-3.0651,5.5656,5.5656,0,0,1,.5495-1.6681A5.3083,5.3083,0,0,1,49.8208,261.57Zm5.4409,5.1956a3.2369,3.2369,0,0,0,2.1054,4.1734,3.3509,3.3509,0,0,0,3.0823-.7551,3.5536,3.5536,0,0,0,1.67,1.333,3.2023,3.2023,0,0,0,4.0762-2.247,2.3257,2.3257,0,0,0-.5831-2.3931,2.0415,2.0415,0,0,0-.8607.5085,2.3486,2.3486,0,0,1-.3269,2.4538,1.8573,1.8573,0,0,1-2.7627-.1948c-.4515-.4661-.19-1.267-.7054-1.6754a.6824.6824,0,0,0-.9675.4816,1.8351,1.8351,0,0,1-3.5333-.9889c.0849-.42.5337-.7524.4273-1.2059-.2285-.5447-.9289-.5191-1.3378-.8647a2.6379,2.6379,0,1,1,3.7949-3.53,2.9746,2.9746,0,0,1,.2934,2.2716.6641.6641,0,0,0,1.149.4267,3.7368,3.7368,0,0,0-.6449-3.8033,3.89,3.89,0,0,0-3.7911-1.3511,3.977,3.977,0,0,0-3.1521,3.2761A4.0743,4.0743,0,0,0,55.2617,266.7655Zm7.8776-1.323a.617.617,0,0,0,.9936.1441c.3454-.2135.1451-.6449.1153-.959a1.8249,1.8249,0,0,1,1.44-2.13,1.8731,1.8731,0,0,1,1.9366.8656c.2779.3968.21.9011.3486,1.3421a.6463.6463,0,0,0,.9638.3282,1.8473,1.8473,0,0,1,1.6306-.1981A1.8064,1.8064,0,0,1,71.6,267.4372c-.3879.8583-1.4443.87-2.11,1.3981a3.034,3.034,0,0,0-.9933,3.6591c.24.6048,1.2909.2677,1.1735-.3515a2.601,2.601,0,0,1-.0317-1.3158,1.7707,1.7707,0,0,1,2.25-1.2386,1.9223,1.9223,0,0,1,1.3656,2.0916c.1922.1638.3829.4607.6758.3943.2747-.0713.608-.27.6133-.5878a3.355,3.355,0,0,0-1.97-3.0985,3.1694,3.1694,0,0,0-3.4491-4.8639,3.72,3.72,0,0,0-1.3884-1.873,3.1427,3.1427,0,0,0-3.7577.2924A3.0319,3.0319,0,0,0,63.1393,265.4425Z"/><path class="cls-6" d="M460.99,544.1949a6.0339,6.0339,0,0,1,4.6447-5.05,6.4851,6.4851,0,0,1,4.6145.7773,5.2325,5.2325,0,0,1,3.0905-1.8753,4.654,4.654,0,0,1,4.3847,1.82c.3116.4764.4939,1.02.7584,1.52a6.57,6.57,0,0,1,3.7242.3236,6.1071,6.1071,0,0,1,3.7678,5.3484,5.3057,5.3057,0,0,0-3.4948,1.2522.7273.7273,0,0,0,.3485,1.2148c.4008.125.7413-.1632,1.06-.3547a3.213,3.213,0,0,1,2.8118-.4,4.555,4.555,0,0,1,3.0915,4.1216,4.6875,4.6875,0,0,1-.9733,3.0216,6.9485,6.9485,0,0,1,2.7205,2.9433,6.0794,6.0794,0,0,1-.5747,5.9377,6.58,6.58,0,0,1-3.8126,2.524,5.1456,5.1456,0,0,1-4.6723-1.7846.9.9,0,0,0-.8191-.4258c-.5512-.0785-.9031.6891-.5823,1.1091a6.9,6.9,0,0,0,6.3876,2.6242,4.5637,4.5637,0,0,1-4.9386,3.5908c-7.1775-8.9466-14.2474-17.9879-21.3872-26.9667C460.7752,545.13,460.9627,544.6188,460.99,544.1949Zm4.3533,3.1111a4.5888,4.5888,0,0,0,7.329,2.7847.7394.7394,0,0,0-.3314-1.35c-.7516-.0182-1.268.772-2.0409.78a3.0848,3.0848,0,1,1,.1816-6.0736c.8892.1035,1.4586.8346,2.1288,1.3384.4754.2251.8359-.2123,1.0724-.561a2.0256,2.0256,0,0,1,2.0406-.8219,2.1655,2.1655,0,0,1,1.7361,2.5806c-.1017.8855-1.3246,1.2918-.9892,2.2713.1963.1091.3952.2184.5941.3278a2.7256,2.7256,0,0,1,2.2308.0127,2.0984,2.0984,0,0,1,.3492,3.4981,2.63,2.63,0,0,1-1.4422.5963.7011.7011,0,0,0-.4217,1.1435c.2677.4269.8049.334,1.222.2519a3.5655,3.5655,0,0,0,2.6286-2.1041,3.8374,3.8374,0,0,0-.3791-3.7015,3.9686,3.9686,0,0,0-2.4464-1.4263,4.8467,4.8467,0,0,0,.1594-1.9982,3.63,3.63,0,0,0-2.7042-2.8813,3.8038,3.8038,0,0,0-3.49.8883,4.8187,4.8187,0,0,0-4.8605-.5708A4.6362,4.6362,0,0,0,465.3432,547.306Zm6.3285,7.0048a3.6619,3.6619,0,0,0,1.1533,4.1207,4.1315,4.1315,0,0,0,2.88.7832,3.6917,3.6917,0,0,0,6.7874,1.4442,3.9034,3.9034,0,0,0,4.2356.677c.6705-.33.3771-1.6019-.4435-1.397a2.39,2.39,0,0,1-2.6859-.4014,2.1136,2.1136,0,0,1,.2994-3.2581c.4673-.4354,1.2409-.2475,1.6593-.733a.9035.9035,0,0,0-.1346-1.01,2,2,0,0,0-1.6786.0907,3.5768,3.5768,0,0,0-2.2664,3.0436,7.6767,7.6767,0,0,1-.0923,1.7814,2.28,2.28,0,0,1-2.0893,1.4432,2.1545,2.1545,0,0,1-2.079-2.1594c-.0186-.3457.0913-.7509-.17-1.0334-.3056-.4274-.874-.2232-1.2832-.1075a2.0514,2.0514,0,0,1-2.3659-.7716,2.1125,2.1125,0,0,1,.4065-2.9661c.4405-.4072,1.081-.3549,1.5958-.6032a.766.766,0,0,0-.4195-1.3341A3.52,3.52,0,0,0,471.6716,554.3108Z"/><path class="cls-5" d="M453.2355,548.5a6.0173,6.0173,0,0,1,5.581-2.4776c.3874.0608.871.0243,1.085.4306q9.6178,12.16,19.2451,24.3167c.6911.9085,1.452,1.7664,2.1071,2.7034a4.6081,4.6081,0,0,1-4.6433,3.9608,7.0651,7.0651,0,0,0-.6381-6.2578c-.26-.3464-.5531-.87-1.0668-.7772-.62.03-.82.8855-.4541,1.31a5.1678,5.1678,0,0,1,.9176,4.574,6.1111,6.1111,0,0,1-6.56,3.9847,6.2409,6.2409,0,0,1-5.1-4.4976,4.5379,4.5379,0,0,1-4.6481-.4769,4.46,4.46,0,0,1-1.8164-3.3384,3.4009,3.4009,0,0,1,1.3113-2.772.8458.8458,0,0,0,.3214-.6967.73.73,0,0,0-1.1161-.6119,5.3076,5.3076,0,0,0-2.0137,3.1056,6.1192,6.1192,0,0,1-3.7617-8.6223,4.7939,4.7939,0,0,1-2.4067-3.5521,4.5125,4.5125,0,0,1,1.1914-3.571,6.4938,6.4938,0,0,1,1.6759-1.1791A6.1937,6.1937,0,0,1,453.2355,548.5Zm1.4762,8.6529a3.7768,3.7768,0,0,0-.9348,5.3733,3.91,3.91,0,0,0,3.4115,1.4393,4.1463,4.1463,0,0,0,.6351,2.4107,3.7364,3.7364,0,0,0,5.3809.7345,2.7136,2.7136,0,0,0,1.12-2.6466,2.382,2.382,0,0,0-1.16-.1232,2.74,2.74,0,0,1-2.0146,2.07,2.1671,2.1671,0,0,1-2.4509-2.106c-.0981-.7507.7046-1.3182.5061-2.06a.7962.7962,0,0,0-1.2411-.2228,2.1412,2.1412,0,0,1-2.6194-3.3861c.372-.3342,1.0236-.3328,1.24-.8315.1654-.6691-.5082-1.1328-.65-1.7411a3.0779,3.0779,0,1,1,6.0112-.6629,3.4707,3.4707,0,0,1-1.307,2.331.7749.7749,0,0,0,.7787,1.2,4.36,4.36,0,0,0,2.0445-4.01,4.5382,4.5382,0,0,0-2.6087-3.9047,4.64,4.64,0,0,0-5.2322.8724A4.7538,4.7538,0,0,0,454.7117,557.1532Zm8.2965,4.2466a.72.72,0,0,0,.83.8267c.472.0406.5849-.5027.7757-.8175a2.1293,2.1293,0,0,1,2.8309-.9912,2.1855,2.1855,0,0,1,1.21,2.1589c-.0161.565-.4312.99-.6081,1.4993a.7541.7541,0,0,0,.6738.9784,2.1554,2.1554,0,0,1,1.6646.95,2.1077,2.1077,0,0,1-.8451,3.1541c-.9607.5335-1.9579-.1913-2.949-.16a3.54,3.54,0,0,0-3.4778,2.7341c-.1964.7334,1.0222,1.15,1.3434.4881a3.0348,3.0348,0,0,1,.8865-1.254,2.066,2.066,0,0,1,2.9687.4068,2.2429,2.2429,0,0,1-.1778,2.9091c.0659.2872.0376.698.3581.84a.85.85,0,0,0,.9835-.1233,3.9145,3.9145,0,0,0,.313-4.2727,3.698,3.698,0,0,0,.1576-6.9554,4.3408,4.3408,0,0,0,.0044-2.72,3.6668,3.6668,0,0,0-3.7217-2.3427A3.5376,3.5376,0,0,0,463.0083,561.4Z"/><path class="cls-5" d="M446.6151,729.82a2.4786,2.4786,0,0,1,.825-.1814c1.534-.169,3.0647-.3661,4.5983-.5387a1.1715,1.1715,0,0,1,1.4.93c.5276,4.3394,1.0239,8.6843,1.548,13.024a4.2723,4.2723,0,0,1-.2378,1.771c-.4546,1.6256-1.0645,3.2036-1.6621,4.78a4.8833,4.8833,0,0,1-.7678,1.4934c-.5261.1478-.81-.4281-1.0934-.7617a33.5288,33.5288,0,0,1-3.6775-6.034c-.5628-4.3958-1.0452-8.8047-1.5819-13.2054A1.1658,1.1658,0,0,1,446.6151,729.82ZM448.4,743.7655a11.4039,11.4039,0,0,0,1.5959,3.1562c.0916.0212.2766.0635.368.083a13.8562,13.8562,0,0,1,2.51-.2934c.0916-.0393.2765-.1183.37-.16a16.4349,16.4349,0,0,0,.9-3.4622C452.2272,743.3038,450.3137,743.5338,448.4,743.7655Z"/><path class="cls-5" d="M446.4484,750.8254a1.6266,1.6266,0,1,1,2.9068,1.2368,2.0677,2.0677,0,0,1-1.2388.6758,5.78,5.78,0,0,0-.2906,1.1286,4.9655,4.9655,0,0,1,3.1374,2.4178c.4036-.1582.7993-.3387,1.19-.5293a8.1923,8.1923,0,0,1,3.1072-5.6106,8.3577,8.3577,0,0,1,7.4641-1.4106,10.7481,10.7481,0,0,1,2.4633,1.1485,12.7451,12.7451,0,0,1-3.2975,7.2851c-.227-2.0243-.48-4.0438-.7105-6.066a9.7925,9.7925,0,0,0-2.8978.5264c-.7414.3158-1.4844.6336-2.2364.92.1932.7595.505,1.4818.7721,2.2183.6-.1815,1.1894-.4009,1.7778-.6238.219,1.7758.4013,3.5577.6467,5.33a12.7754,12.7754,0,0,1-5.54,2.14,8.83,8.83,0,0,1-1.6037-5.21c-.295.1276-.5876.26-.8785.3926a5.3267,5.3267,0,0,1-.4928,4.8878,13.1007,13.1007,0,0,1-8.9626-4.4624c.1544-.3515.3052-.7044.4578-1.0557-.2531-.1964-.5047-.3947-.7559-.59q-.3258.2283-.646.46a11.6371,11.6371,0,0,1-2.0333-4.2771,2.51,2.51,0,0,1,2.5731.2088,2.41,2.41,0,0,1,.869,2.2692c-.0524.3555-.3175.6756-.2762,1.04.167.1763.36.33.5447.4916a5.3606,5.3606,0,0,1,4.7948-2.0411c.0956-.3517.1928-.7054.2884-1.057A1.6911,1.6911,0,0,1,446.4484,750.8254Z"/><path class="cls-6" d="M444.8582,718.9161a24.3249,24.3249,0,0,1,6.0335-.8047,2.7073,2.7073,0,0,1,1.6713.2531,1.3743,1.3743,0,0,1,.0551,2.1677c-.43.3734-1.0273.2641-1.55.2778a21.91,21.91,0,0,0-5.6353.75,1.3125,1.3125,0,0,1-1.6341-1.0684A1.35,1.35,0,0,1,444.8582,718.9161Z"/><path class="cls-6" d="M447.2547,721.73a24.0509,24.0509,0,0,1,6.4934-.2764,1.37,1.37,0,0,1,.6874,2.255,1.573,1.573,0,0,1-1.3868.3886,21.3025,21.3025,0,0,0-8.174.9831,1.5021,1.5021,0,0,1-1.3847-.1053,1.3678,1.3678,0,0,1,.2463-2.3619A18.8078,18.8078,0,0,1,447.2547,721.73Z"/><path class="cls-6" d="M445.2841,725.4684a24.1072,24.1072,0,0,1,10.5416-.5539c.6069.1438,1.3476.1988,1.7219.7711a1.33,1.33,0,0,1-.4,1.92c-.7088.4563-1.5153-.0346-2.2632-.1047a20.8489,20.8489,0,0,0-10.7649,1.2272c-.794.2632-1.5591,1.0416-2.4411.6506a1.371,1.371,0,0,1-.2383-2.3456A16.4929,16.4929,0,0,1,445.2841,725.4684Z"/><path class="cls-6" d="M441.9508,731.4122a1.3381,1.3381,0,0,1,1.7382-1.2143,1.4733,1.4733,0,0,1,1.007,1.417,11.4468,11.4468,0,0,1,.1316,3.8088,4.8516,4.8516,0,0,1-1.8239,2.72,13.4628,13.4628,0,0,0-4.6493,10.6065,20.0263,20.0263,0,0,0,.4326,3.0087,11.6371,11.6371,0,0,0,2.0333,4.2771c.3206.39.633.7859.944,1.1857a13.1007,13.1007,0,0,0,8.9626,4.4624,22.1668,22.1668,0,0,0,2.9749-.07,12.7754,12.7754,0,0,0,5.54-2.14,20.1653,20.1653,0,0,0,2.6481-2.3057,12.7451,12.7451,0,0,0,3.2975-7.2851,13.55,13.55,0,0,0-7.0694-13.51,11.1168,11.1168,0,0,1-1.8882-1.0473,4.6724,4.6724,0,0,1-1.4621-1.98,12.9871,12.9871,0,0,1-.4963-2.8693,1.4843,1.4843,0,0,1,.6127-1.6,1.3532,1.3532,0,0,1,1.9961.7547c.2326.8814.17,1.8172.41,2.6977a2.1752,2.1752,0,0,0,1.2929,1.2424,16.1319,16.1319,0,0,1,5.8258,24.7646,15.8835,15.8835,0,0,1-8.4687,5.5267,16.1283,16.1283,0,0,1-15.5618-26.9969c.6587-.7284,1.7143-1.2507,1.8629-2.3144C442.2527,733.4972,441.9755,732.4643,441.9508,731.4122Z"/><path class="cls-5" d="M35.409,509.0965a2.5,2.5,0,0,1,.8491-.0695c1.5559.039,3.1123.0493,4.6683.0847A1.1814,1.1814,0,0,1,42.2,510.2312c-.0607,4.4081-.1535,8.8174-.2177,13.2254a4.3086,4.3086,0,0,1-.4776,1.7377c-.6746,1.563-1.4979,3.0573-2.3087,4.5519a4.9249,4.9249,0,0,1-.97,1.3884c-.5457.0764-.7513-.5376-.99-.9094a33.8139,33.8139,0,0,1-2.8576-6.5284c.0331-4.4693.1484-8.9407.2084-13.4113A1.1757,1.1757,0,0,1,35.409,509.0965Zm-.1054,14.1788a11.5009,11.5009,0,0,0,1.1673,3.37c.0887.0336.2678.1009.3565.1328a13.974,13.974,0,0,1,2.5483.0469c.0969-.0269.2923-.0807.391-.1094a16.5747,16.5747,0,0,0,1.3688-3.338C39.1905,523.3324,37.2471,523.303,35.3036,523.2753Z"/><path class="cls-5" d="M32.3963,530.0662a1.64,1.64,0,1,1,2.7374,1.63,2.0853,2.0853,0,0,1-1.33.5076,5.829,5.829,0,0,0-.4434,1.0885,5.0077,5.0077,0,0,1,2.8078,2.8414c.4248-.1035.8447-.23,1.2612-.3677a8.262,8.262,0,0,1,3.8654-5.186,8.4288,8.4288,0,0,1,7.65-.3983,10.84,10.84,0,0,1,2.3061,1.4815,12.8534,12.8534,0,0,1-4.2825,6.8336c.0474-2.0538.068-4.1063.1119-6.1584a9.8758,9.8758,0,0,0-2.9673.1334c-.7837.2152-1.5693.4321-2.36.6168.09.7852.3039,1.5493.4711,2.3215.6247-.1,1.2429-.2395,1.8612-.3825-.0218,1.8043-.081,3.61-.076,5.4146a12.884,12.884,0,0,1-5.8269,1.3879,8.9054,8.9054,0,0,1-.8967-5.424c-.3121.0875-.6225.18-.9311.2733a5.372,5.372,0,0,1-1.1547,4.8179,13.2121,13.2121,0,0,1-8.3523-5.6739c.202-.33.4-.6626.6006-.993-.2264-.2306-.4509-.4629-.6755-.6916q-.3566.184-.7079.3718a11.736,11.736,0,0,1-1.4524-4.55,2.5308,2.5308,0,0,1,2.5432.5573,2.43,2.43,0,0,1,.561,2.3855c-.1005.3482-.4088.6321-.4169,1.0015.143.1988.3149.3784.4777.5651a5.4062,5.4062,0,0,1,5.0682-1.39c.1432-.3385.2882-.6788.4314-1.0173A1.7055,1.7055,0,0,1,32.3963,530.0662Z"/><path class="cls-6" d="M37.1444,501.0985a24.2554,24.2554,0,0,1,6.5267.6037,1.3817,1.3817,0,0,1,.3814,2.3467,1.5864,1.5864,0,0,1-1.4386.2,21.4837,21.4837,0,0,0-8.302-.1251,1.5149,1.5149,0,0,1-1.37-.2928,1.3794,1.3794,0,0,1,.5662-2.327A18.9677,18.9677,0,0,1,37.1444,501.0985Z"/><path class="cls-6" d="M34.6685,504.5677a24.3122,24.3122,0,0,1,10.61.8748c.587.226,1.32.3812,1.6163,1.0039a1.3417,1.3417,0,0,1-.66,1.8649c-.77.36-1.51-.24-2.2475-.4113a21.0262,21.0262,0,0,0-10.9242-.2322c-.8291.1555-1.6992.83-2.5277.3194a1.3826,1.3826,0,0,1,.08-2.3764A16.6332,16.6332,0,0,1,34.6685,504.5677Z"/><path class="cls-6" d="M30.532,510.056a1.35,1.35,0,0,1,1.9017-.978,1.4858,1.4858,0,0,1,.8144,1.5526,11.5441,11.5441,0,0,1-.3846,3.8242,4.8928,4.8928,0,0,1-2.1912,2.4708,13.5772,13.5772,0,0,0-6.0834,9.97,20.1966,20.1966,0,0,0,.0246,3.0654,11.736,11.736,0,0,0,1.4524,4.55c.2675.433.5261.8711.7827,1.3128a13.2121,13.2121,0,0,0,8.3523,5.6739,22.3552,22.3552,0,0,0,2.9825.3328,12.884,12.884,0,0,0,5.8269-1.3879,20.3367,20.3367,0,0,0,2.9588-1.9454,12.8534,12.8534,0,0,0,4.2825-6.8336,13.6649,13.6649,0,0,0-5.2343-14.4588,11.2113,11.2113,0,0,1-1.7451-1.3024,4.7121,4.7121,0,0,1-1.1929-2.1766,13.0976,13.0976,0,0,1-.1072-2.9347,1.4969,1.4969,0,0,1,.8291-1.5157A1.3647,1.3647,0,0,1,45.6938,510.3c.113.9123-.0759,1.8391.0443,2.7515a2.1937,2.1937,0,0,0,1.1237,1.4168,16.269,16.269,0,0,1,2.4665,25.5381,16.0186,16.0186,0,0,1-9.2122,4.3757,16.2654,16.2654,0,0,1-11.8938-29.0882c.757-.6387,1.8827-1.0176,2.1753-2.06C30.5512,512.1806,30.4141,511.1108,30.532,510.056Z"/><path class="cls-5" d="M79.91,936.1555a1.29,1.29,0,0,1-.3905-1.8649c.88-1.4668,1.788-2.92,2.6884-4.3746a1.427,1.427,0,0,1,2.0407-.4967c3.3682,2.0439,6.6951,4.1547,10.0735,6.1789,2.9575,1.861,5.9527,3.661,8.9138,5.5163,1.14.7145,2.2937,1.4058,3.4346,2.115a5.9662,5.9662,0,0,1,1.7232,1.8662,53.6089,53.6089,0,0,1,3.0626,5.0218c.2223.3095.0626.6923.072,1.0349a10.3308,10.3308,0,0,1-2.1186.0637,51.2928,51.2928,0,0,1-5.69-.62,3.5206,3.5206,0,0,1-1.2613-.5368q-2.03-1.2635-4.0675-2.5131c-.9139-.5473-1.8189-1.1091-2.7244-1.6732-.2674-.1648-.5306-.3331-.7974-.4955-1.0324-.6283-2.0619-1.2548-3.0853-1.8977-.4829-.31-.9724-.6054-1.46-.9039q-1.6611-1.0088-3.3044-2.0367C84.6556,939.0685,82.2775,937.6207,79.91,936.1555Zm26.7127,13.6155a16.91,16.91,0,0,0,1.7409-2.6065c-.648-.9428-1.2837-1.8961-2.018-2.7738-1.1284,1.5282-2.0007,3.2264-3.0606,4.8029A12.2094,12.2094,0,0,0,106.6229,949.7711Z"/><path class="cls-6" d="M75.051,933.0984a1.3761,1.3761,0,0,1-.0393-1.6083c.9-1.4642,1.8-2.9307,2.712-4.39a1.4466,1.4466,0,0,1,2.0576-.4462c.8065.4189,1.8919,1.0719,1.5745,2.16-.6722,1.37-1.594,2.6088-2.3511,3.9348-.4279.6747-.8456,1.6745-1.8169,1.5651A4.1154,4.1154,0,0,1,75.051,933.0984Z"/><path class="cls-5" d="M97.4945,1215.155a1.29,1.29,0,0,1-.5235,1.832c-1.4622.8877-2.9429,1.7507-4.4172,2.6178a1.427,1.427,0,0,1-2.037-.5115c-2.0276-3.378-3.9876-6.796-6.0334-10.1613-1.75-3.0248-3.5608-6.0132-5.3162-9.0346-.6754-1.1633-1.3743-2.3127-2.0533-3.4719a5.9662,5.9662,0,0,1-.655-2.4542,53.6089,53.6089,0,0,1-.37-5.87c-.0525-.3774.2672-.6417.4186-.9492a10.3308,10.3308,0,0,1,1.9042.931,51.2928,51.2928,0,0,1,4.7455,3.2,3.5206,3.5206,0,0,1,.8658,1.0627q1.2077,2.0642,2.4278,4.1191c.5536.91,1.0925,1.8289,1.6308,2.75.16.27.3143.542.4746.81.6206,1.037,1.24,2.0711,1.8455,3.1168.2829.499.5782.9887.8706,1.48q1,1.6667,1.9746,3.342C94.6532,1210.3663,96.0827,1212.7554,97.4945,1215.155Zm-17.29-24.4951a16.91,16.91,0,0,0-2.755,1.4949c.134,1.1362.2522,2.2758.4929,3.3946,1.7106-.8263,3.2737-1.9223,4.9461-2.8232A12.2094,12.2094,0,0,0,80.2045,1190.66Z"/><path class="cls-6" d="M100.3691,1220.1243a1.3761,1.3761,0,0,1-.7147,1.4414c-1.4791.8759-2.9587,1.7541-4.4453,2.6205a1.4466,1.4466,0,0,1-2.0285-.5641c-.5184-.7465-1.1744-1.83-.3867-2.6444,1.2333-.8992,2.626-1.5654,3.9138-2.3858.693-.3976,1.5285-1.0875,2.3369-.5381A4.1154,4.1154,0,0,1,100.3691,1220.1243Z"/><path class="cls-6" d="M95.99,1066.1949a6.0339,6.0339,0,0,1,4.6447-5.05,6.4851,6.4851,0,0,1,4.6145.7773,5.2325,5.2325,0,0,1,3.0905-1.8753,4.654,4.654,0,0,1,4.3847,1.82c.3116.4764.4939,1.02.7584,1.52a6.57,6.57,0,0,1,3.7242.3236,6.1071,6.1071,0,0,1,3.7678,5.3484,5.3057,5.3057,0,0,0-3.4948,1.2522.7273.7273,0,0,0,.3485,1.2148c.4008.125.7413-.1632,1.06-.3547a3.213,3.213,0,0,1,2.8118-.4,4.555,4.555,0,0,1,3.0915,4.1216,4.6875,4.6875,0,0,1-.9733,3.0216,6.9485,6.9485,0,0,1,2.7205,2.9433,6.0794,6.0794,0,0,1-.5747,5.9377,6.58,6.58,0,0,1-3.8126,2.524,5.1456,5.1456,0,0,1-4.6723-1.7846.9.9,0,0,0-.8191-.4258c-.5512-.0785-.9031.6891-.5823,1.1091a6.9,6.9,0,0,0,6.3876,2.6242,4.5637,4.5637,0,0,1-4.9386,3.5908c-7.1775-8.9466-14.2474-17.9879-21.3872-26.9667C95.7752,1067.13,95.9627,1066.6188,95.99,1066.1949Zm4.3533,3.1111a4.5888,4.5888,0,0,0,7.329,2.7847.7394.7394,0,0,0-.3314-1.35c-.7516-.0182-1.268.772-2.0409.78a3.0848,3.0848,0,1,1,.1816-6.0736c.8892.1035,1.4586.8346,2.1288,1.3384.4754.2251.8359-.2123,1.0724-.561a2.0256,2.0256,0,0,1,2.0406-.8219,2.1655,2.1655,0,0,1,1.7361,2.5806c-.1017.8855-1.3246,1.2918-.9892,2.2713.1963.1091.3952.2184.5941.3278a2.7256,2.7256,0,0,1,2.2308.0127,2.0984,2.0984,0,0,1,.3492,3.4981,2.63,2.63,0,0,1-1.4422.5963.7011.7011,0,0,0-.4217,1.1435c.2677.4269.8049.334,1.222.2519a3.5655,3.5655,0,0,0,2.6286-2.1041,3.8374,3.8374,0,0,0-.3791-3.7015,3.9686,3.9686,0,0,0-2.4464-1.4263,4.8467,4.8467,0,0,0,.1594-1.9982,3.63,3.63,0,0,0-2.7042-2.8813,3.8038,3.8038,0,0,0-3.49.8883,4.8187,4.8187,0,0,0-4.8605-.5708A4.6362,4.6362,0,0,0,100.3432,1069.306Zm6.3285,7.0048a3.6619,3.6619,0,0,0,1.1533,4.1207,4.1315,4.1315,0,0,0,2.88.7832,3.6917,3.6917,0,0,0,6.7874,1.4442,3.9034,3.9034,0,0,0,4.2356.677c.6705-.33.3771-1.6019-.4435-1.397a2.39,2.39,0,0,1-2.6859-.4014,2.1136,2.1136,0,0,1,.2994-3.2581c.4673-.4354,1.2409-.2475,1.6593-.733a.9035.9035,0,0,0-.1346-1.01,2,2,0,0,0-1.6786.0907,3.5768,3.5768,0,0,0-2.2664,3.0436,7.6767,7.6767,0,0,1-.0923,1.7814,2.28,2.28,0,0,1-2.0893,1.4432,2.1545,2.1545,0,0,1-2.079-2.1594c-.0186-.3457.0913-.7509-.17-1.0334-.3056-.4274-.874-.2232-1.2832-.1075a2.0514,2.0514,0,0,1-2.3659-.7716,2.1125,2.1125,0,0,1,.4065-2.9661c.4405-.4072,1.081-.3549,1.5958-.6032a.766.766,0,0,0-.4195-1.3341A3.52,3.52,0,0,0,106.6716,1076.3108Z"/><path class="cls-5" d="M88.2355,1070.5a6.0173,6.0173,0,0,1,5.581-2.4776c.3874.0608.871.0243,1.085.4306q9.6178,12.16,19.2451,24.3167c.6911.9085,1.452,1.7664,2.1071,2.7034a4.6081,4.6081,0,0,1-4.6433,3.9608,7.0651,7.0651,0,0,0-.6381-6.2578c-.26-.3464-.5531-.87-1.0668-.7772-.62.03-.82.8855-.4541,1.31a5.1678,5.1678,0,0,1,.9176,4.574,6.1111,6.1111,0,0,1-6.56,3.9847,6.2409,6.2409,0,0,1-5.1-4.4976,4.5379,4.5379,0,0,1-4.6481-.4769,4.46,4.46,0,0,1-1.8164-3.3384,3.4009,3.4009,0,0,1,1.3113-2.772.8458.8458,0,0,0,.3214-.6967.73.73,0,0,0-1.1161-.6119,5.3076,5.3076,0,0,0-2.0137,3.1056,6.1192,6.1192,0,0,1-3.7617-8.6223,4.7939,4.7939,0,0,1-2.4067-3.5521,4.5125,4.5125,0,0,1,1.1914-3.571,6.4938,6.4938,0,0,1,1.6759-1.1791A6.1937,6.1937,0,0,1,88.2355,1070.5Zm1.4762,8.6529a3.7768,3.7768,0,0,0-.9348,5.3733,3.91,3.91,0,0,0,3.4115,1.4393,4.1463,4.1463,0,0,0,.6351,2.4107,3.7364,3.7364,0,0,0,5.3809.7345,2.7136,2.7136,0,0,0,1.12-2.6466,2.382,2.382,0,0,0-1.16-.1232,2.74,2.74,0,0,1-2.0146,2.07,2.1671,2.1671,0,0,1-2.4509-2.106c-.0981-.7507.7046-1.3182.5061-2.06a.7962.7962,0,0,0-1.2411-.2228,2.1412,2.1412,0,0,1-2.6194-3.3861c.372-.3342,1.0236-.3328,1.24-.8315.1654-.6691-.5082-1.1328-.65-1.7411a3.0779,3.0779,0,1,1,6.0112-.6629,3.4707,3.4707,0,0,1-1.307,2.331.7749.7749,0,0,0,.7787,1.2,4.36,4.36,0,0,0,2.0445-4.01,4.5382,4.5382,0,0,0-2.6087-3.9047,4.64,4.64,0,0,0-5.2322.8724A4.7538,4.7538,0,0,0,89.7117,1079.1532Zm8.2965,4.2466a.72.72,0,0,0,.83.8267c.472.0406.5849-.5027.7757-.8175a2.1293,2.1293,0,0,1,2.8309-.9912,2.1855,2.1855,0,0,1,1.21,2.1589c-.0161.565-.4312.99-.6081,1.4993a.7541.7541,0,0,0,.6738.9784,2.1554,2.1554,0,0,1,1.6646.95,2.1077,2.1077,0,0,1-.8451,3.1541c-.9607.5335-1.9579-.1913-2.949-.16a3.54,3.54,0,0,0-3.4778,2.7341c-.1964.7334,1.0222,1.15,1.3434.4881a3.0348,3.0348,0,0,1,.8865-1.254,2.066,2.066,0,0,1,2.9687.4068,2.2429,2.2429,0,0,1-.1778,2.9091c.0659.2872.0376.698.3581.84a.85.85,0,0,0,.9835-.1233,3.9145,3.9145,0,0,0,.313-4.2727,3.698,3.698,0,0,0,.1576-6.9554,4.3408,4.3408,0,0,0,.0044-2.72,3.6668,3.6668,0,0,0-3.7217-2.3427A3.5376,3.5376,0,0,0,98.0083,1083.4Z"/></g></svg>