<svg xmlns="http://www.w3.org/2000/svg" viewBox="0 0 274.94 270.69"><defs><style>.cls-1{fill:#0f70b7;}.cls-2{fill:#ec6f20;}</style></defs><title>CafeCientifico</title><g id="Layer_2" data-name="Layer 2"><g id="Layer_1-2" data-name="Layer 1"><path class="cls-1" d="M3.43,1.09C5-.36,7.29.1,9.23,0c4.8-.08,9.6.28,14.4.27a2.42,2.42,0,0,1,2.09,3.16c-.46,1.71-2.52,1.76-4,1.7Q14.23,4.83,6.7,4.91c-1.56,8.21.7,16.51.4,24.76.07,1.16-.27,2.78,1,3.45,1.78.73,3.82-.24,5.61.45s1.58,3.45,0,4.32c-1.79.59-3.71.18-5.54.51-1.25.33-1.52,1.77-1.52,2.87-.23,9-.69,18,0,27a24.11,24.11,0,0,0,.66,4c4.86,1.43,9.94-.11,14.88,0,2.1.1,2.78,3.26,1.07,4.36-1.28.74-2.85.43-4.26.64-4.51.16-9.24,1-13.6-.56-2.95-1-3.07-4.52-3.49-7.08C.76,55.59,2,41.45,2.32,27.34,2,20.52.91,13.7,1.45,6.87,1.69,4.85,2,2.64,3.43,1.09Z"/><path class="cls-1" d="M122,6.21c.32-2.13.78-4.8,3-5.82,1.93-.64,4-.29,6-.38,3.87-.1,7.73.31,11.61.23a4.82,4.82,0,0,1,2.87.51c1.08.94,1.26,3,0,3.83s-2.83.5-4.23.54c-4.65-.26-9.32-.24-14-.23-1.59,8,.63,16.19.37,24.28.11,1.23-.3,2.77.66,3.74,1.76,1.06,4-.06,5.83.6s1.72,3.6,0,4.39c-1.71.48-3.51.2-5.25.42-1.21.17-1.71,1.49-1.7,2.57-.24,9.22-.72,18.46,0,27.67a19.81,19.81,0,0,0,.69,3.75c5,1.45,10.12-.24,15.16.07a2.45,2.45,0,0,1,.35,4.53,31.83,31.83,0,0,1-4.94.48c-3.87.17-7.86.67-11.66-.34a4.41,4.41,0,0,1-3.45-2.94c-1.55-5.07-1.12-10.44-1.4-15.66.07-8.69.45-17.38.77-26.06C123.36,23.66,121.07,15,122,6.21Z"/><path class="cls-1" d="M255.77.7a9.44,9.44,0,0,1,8.13,1.05c3,2.07,4.6,5.56,5.51,9,1.63,6.33.91,12.91,1.34,19.36.19,10.46.61,21-1.39,31.38-1.06,4.49-2.16,9.35-5.62,12.66-2.41,2.32-6.42,3.28-9.3,1.26-3.79-2.62-5.3-7.26-6.71-11.43A130.34,130.34,0,0,1,243,33.4c-.16-7.61.28-15.43,3-22.62A16,16,0,0,1,255.77.7Zm1.8,4.62a8.79,8.79,0,0,0-4,2.33c-2.92,3-3.88,7.31-4.75,11.28-1.75,10.4-.84,21.06.82,31.41,1.08,6,2.15,12,4.82,17.52.81,1.58,1.85,3.5,3.81,3.76,2.17-.43,3.45-2.49,4.31-4.35,2-4.54,2.57-9.53,3.05-14.41.75-9.43.31-18.89.29-28.33-.14-3.91-.07-7.87-1-11.71-.58-2.35-1.34-4.82-3.12-6.54A4.31,4.31,0,0,0,257.57,5.32Z"/><path class="cls-1" d="M75.84,1.06a8.3,8.3,0,0,1,8.8,2.41c3.49,4.07,4.18,9.74,4.19,14.91a2.41,2.41,0,0,1-3.77,2c-1.4-.94-.92-2.79-1.09-4.21-.2-3.4-.68-7.2-3.24-9.71-1.8-1.69-4.47-.58-6.13.74-4.33,3.53-6.42,9.1-7.2,14.49-.92,8-1.58,16.12-1.83,24.2A76.78,76.78,0,0,0,66.45,61a17.23,17.23,0,0,0,4.25,8.9c1.44,1.45,3.63,2.47,5.67,1.73,2.38-.83,3.84-3.17,4.58-5.47.48-1.34.53-2.82,1.18-4.1a2.54,2.54,0,0,1,3.84,0A3.41,3.41,0,0,1,86.33,65c-.74,3.93-2.65,7.85-6,10.13a9.63,9.63,0,0,1-9.76.58c-4.3-2.22-6.88-6.74-8.16-11.25a60,60,0,0,1-1.58-15.75,234.18,234.18,0,0,1,1.65-26.57c.63-6.14,2.82-12.29,7-16.9A14.61,14.61,0,0,1,75.84,1.06Z"/><path class="cls-1" d="M216.3,2a23.29,23.29,0,0,1,10.49-1A16.56,16.56,0,0,1,238.38,7.8c3,3.92,3.55,9.3,2.22,14-1.47,5.22-5.22,9.49-9.44,12.75-1.4,1.13-3.07,1.89-4.49,3-.91.73-.49,2,0,2.86,1.73,3.31,3.36,6.68,4.84,10.11,2.68,5.82,4.53,12,7.25,17.78A31.37,31.37,0,0,1,240.46,72,2.51,2.51,0,0,1,237,74.24c-.88-.33-1.27-1.24-1.71-2-5.12-9.72-7.46-20.77-13.43-30.07-.85,1.59-.69,3.44-.77,5.18-.25,4.63-.32,9.26-.64,13.88a94.91,94.91,0,0,0,.21,11.61,2.42,2.42,0,0,1-3.73,1.94c-1-.55-1.12-1.77-1.18-2.78-.63-9.16.4-18.3.61-27.46a327.23,327.23,0,0,0-.58-38.13C215.65,5,214.64,3,216.3,2Zm5.54,3.76a2.69,2.69,0,0,0-1.12,2.88c.43,5.75.53,11.51.67,17.27a63.11,63.11,0,0,0,.21,7.79,9,9,0,0,0,2.87-.72,23.85,23.85,0,0,0,10.09-9.49c1.86-3.22,2.65-7.28,1.19-10.8C233.45,7.54,227.3,4.76,221.84,5.78Z"/><path class="cls-1" d="M51.79,4.17a2.49,2.49,0,0,1,4.1-1.71c.89.73.85,2,.67,3-1.78,13.09-1.21,26.34-.8,39.5.24,7.13.12,14.26.14,21.39-.09,2.28,0,4.67-.93,6.8-.94,1.94-4.24,1.74-4.81-.39-2-5.46-3.52-11.07-5.37-16.58-3-9-4.87-18.28-7.07-27.48a56.46,56.46,0,0,0-2.51-7.89c-.13,2.31-.23,4.62-.22,6.94,0,14.72-1.75,29.46-.16,44.14,0,1.16.43,2.47-.26,3.52-1,1.68-4,1.19-4.38-.73a41.58,41.58,0,0,1-.55-4.61c-1.06-14.26.53-28.53.47-42.79.27-6.81.8-13.62.51-20.44-.05-1.34-.6-3,.55-4,1.47-1.49,4.3-.51,4.79,1.46C37,8.62,38.89,12.67,39.9,17c2.66,11.34,5.29,22.69,8.4,33.92a32,32,0,0,0,2.81,7C51.15,40,49.39,22,51.79,4.17Z"/><path class="cls-1" d="M172.34,4.06c0-2,3-2.92,4.23-1.43.93,1,.53,2.5.4,3.72-2.31,17.63-.27,35.4-.56,53.1-.14,4.31.4,8.72-.61,13a2.74,2.74,0,0,1-3.86,1.89c-1.14-.48-1.38-1.81-1.75-2.85-1.53-4.57-3-9.18-4.41-13.78-3.17-9.25-5.16-18.83-7.41-28.33a49.47,49.47,0,0,0-2.69-8.46c-.28,9.28-.3,18.58-.79,27.86A157.38,157.38,0,0,0,155.34,72c0,1.17.44,2.5-.29,3.54A2.51,2.51,0,0,1,150.8,75a30.29,30.29,0,0,1-.6-4.43c-1-12.86.14-25.75.41-38.61-.11-9.17,1.13-18.34.36-27.5a2.54,2.54,0,0,1,3.64-2.16c1.41.38,2,1.86,2.22,3.16,1,4,2.73,7.68,3.62,11.67,2.67,11.36,5.29,22.73,8.43,34a30.84,30.84,0,0,0,2.74,6.75C171.68,39.95,169.87,21.91,172.34,4.06Z"/><path class="cls-1" d="M94,2.48c1.52-1,3.92.2,3.72,2.09-1.18,15.49.34,31,.44,46.49.39,5.8-.7,11.63.19,17.4.31,1.74,1,3.9,2.91,4.42a6.81,6.81,0,0,0,7.07-2.79c3.44-5.37,3.1-12,3-18.1-.4-12.38,1.09-24.8-.11-37.17-.13-3.41-.91-6.81-.61-10.22.5-2.38,4.38-2.25,4.69.16.33,7.83,1.67,15.63,1.16,23.49,0,8.22-.63,16.44-.26,24.66.15,6.78-.13,14-3.87,19.92-2.52,4.14-8,5.88-12.54,4.72-3-.75-5-3.42-5.8-6.26-1.18-4.16-.94-8.53-.73-12.79.4-17.64-1.69-35.27-.53-52.9C92.88,4.5,92.79,3,94,2.48Z"/><path class="cls-1" d="M180.48,3c8.42-.83,16.91.14,25.35-.09,1.09,0,2.41-.18,3.2.76a2.48,2.48,0,0,1-1.09,3.93c-3.64.48-7.32.05-11,.13-1.27-.07-1.8,1.32-1.6,2.38a96.73,96.73,0,0,1,.11,11.67c.06,15.33-1.61,30.71-.13,46,.06,1.67.76,3.4.25,5-.68,2-3.94,1.77-4.5-.17a30.3,30.3,0,0,1-.56-3.94c-1.55-15.47.15-31,.07-46.51,0-3.34.53-6.72-.22-10-.38-1.52.24-3.82-1.52-4.56-2.66-.5-5.39.08-8.07,0C178.52,7.31,178.26,3.59,180.48,3Z"/><path class="cls-1" d="M131.55,81.29a2.74,2.74,0,0,1,3.62,3.19c-.42,1.95-2.59,2.44-4.08,3.33-2.85,1.35-5,3.66-7.58,5.47-2.19,1.52-5-1.37-4.3-3.61a9.64,9.64,0,0,1,2.47-2.38A35.62,35.62,0,0,1,131.55,81.29Z"/><path class="cls-1" d="M18.6,98.1A9.63,9.63,0,0,1,28,101c3.43,3.89,4.57,9.2,4.95,14.24,0,1.52.4,3.1-.1,4.58a2.89,2.89,0,0,1-4.6.93c-1.15-1-.74-2.72-.89-4.09-.2-4.1-.69-8.64-3.6-11.79a4.49,4.49,0,0,0-5.49-.57c-3.77,1.91-6.24,5.61-7.95,9.35a32.75,32.75,0,0,0-2.65,10.16C6.76,132.5,6,141.25,5.72,150c0,6.81-.23,13.71,1.34,20.39a18.89,18.89,0,0,0,5,9.24c1.77,1.7,4.54,2.63,6.86,1.5,3.13-1.45,4.69-4.9,5.39-8.1.33-1.13.22-2.59,1.31-3.34,1.23-1,3.41-.92,4.2.58s.34,3,0,4.45c-1,4.11-3.13,8.16-6.7,10.6a11.38,11.38,0,0,1-11.22,1,17.59,17.59,0,0,1-7.8-8C1.19,173,.58,166.71.18,160.68-.42,148.44.7,136.2,1.92,124c.63-7.3,3-14.68,7.9-20.28A17,17,0,0,1,18.6,98.1Z"/><path class="cls-1" d="M78.54,99.05a5.32,5.32,0,0,1,2.15-.11c6.53.58,13.08-.07,19.61.39,1.64.22,3.69-.19,4.93,1.18a2.84,2.84,0,0,1-.5,4.25,3.7,3.7,0,0,1-2.55.42c-5.88-.51-11.8-.33-17.7-.33A2.32,2.32,0,0,0,82,107.3c.13,6.95.59,13.91.4,20.86-.05,2-.91,4.84,1.35,6,2.28.75,5-.66,7.11.69,1.88,1.17,1.24,4.36-.79,5-2.21.34-4.51.06-6.69.62-1.36.41-1.68,2-1.72,3.21-.59,12.36-1.18,24.78-.33,37.15,0,1.55.68,3.37-.35,4.73a2.92,2.92,0,0,1-4.49,0,5.19,5.19,0,0,1-.71-2.89,233,233,0,0,1-.43-26.54c.37-7.57.68-15.15,1.15-22.72.63-9.16,0-18.34-.14-27.5C76.07,103.46,76.13,100.38,78.54,99.05Z"/><path class="cls-1" d="M117.91,99.5a183.43,183.43,0,0,1,21.86-.32,2.82,2.82,0,0,1,.06,5.65c-7,.09-14-.51-21,.34-1.12,0-1.52,1.19-1.57,2.11-.37,5,.08,9.91.22,14.86,0,3.73.09,7.47.24,11.2a2.9,2.9,0,0,0,1.3,2.72c2,.84,4.61-.68,6.42.91a2.89,2.89,0,0,1-.93,4.75c-1.78.46-3.72,0-5.46.65-1.08.56-1.06,2-1.11,3,.27,9.46.47,18.95-.2,28.4-.16,2.49-.59,5-.2,7.48,5.83,1.26,11.8.25,17.68.05a2.83,2.83,0,0,1,.66,5.62c-4.43.29-8.85.61-13.29.65a21.55,21.55,0,0,1-7.24-1.07,5,5,0,0,1-3.15-3.21c-1.06-4-.08-8.22,0-12.32.82-16.43-.46-32.87-.44-49.3-.12-4.49-.52-9-.25-13.45.12-2.1,0-4.38,1.09-6.26S116,99.65,117.91,99.5Z"/><path class="cls-1" d="M149.57,102.61a3.62,3.62,0,0,1,3.72-3.8H243c4.25.07,8.59-.41,12.74.77a25.49,25.49,0,0,1-3.27,50,42.27,42.27,0,0,1-9,20,48.63,48.63,0,0,1-23.34,15.22,65.32,65.32,0,0,1-29.23,1.93,53.37,53.37,0,0,1-25.53-11.05,42.21,42.21,0,0,1-13.2-18.58,46.34,46.34,0,0,1-2.6-15.87Q149.59,121.92,149.57,102.61Zm41.8,3.35a6.48,6.48,0,0,1,3.59,7.8,6.71,6.71,0,0,1-6.71,4.62c-1.06,3.4-2.15,6.8-3.15,10.21a5.17,5.17,0,0,1,.12,6c1.41,1.92,2.83,3.85,4.26,5.75a9.36,9.36,0,0,1,8.71.74L199.4,140c-.21-1.26-.45-2.66.27-3.82a4.28,4.28,0,1,1,5.95,5.73c-1.63,1-3.67.53-5.2-.43l-.93.81a9.91,9.91,0,0,1,2,5.89l14.65,4.49a6.67,6.67,0,0,1,10.85-1c3-1,6.05-2.06,9.07-3.09.26-2.38,1.48-4.82,3.8-5.77a7,7,0,0,1,5.89.13c0-12.27,0-24.54,0-36.82H214.19C206.59,106,199,106.25,191.37,106Zm-34.54.13c0,7.22,0,14.44,0,21.66,1.5-.28,3.17-.59,4.56.24a5.89,5.89,0,0,1,2.65,3.34c4.64-.36,9.28-.79,13.92-1.12a5.65,5.65,0,0,1,3.77-2.9q1.62-5.09,3.17-10.2a7.83,7.83,0,0,1-2.34-3.8,6.59,6.59,0,0,1,3.52-7.3C176.34,106.2,166.58,106,156.84,106.09Zm96.28.4q0,17.76,0,35.52a18.47,18.47,0,0,0,13.1-11,18,18,0,0,0-2.14-17.41A18.63,18.63,0,0,0,253.12,106.49Zm-89.19,27.3a5.86,5.86,0,0,1-2.81,3.12,6.32,6.32,0,0,1-4.3,0c0,5.43.13,11,1.82,16.18a35.79,35.79,0,0,0,15.2,19.59,50.52,50.52,0,0,0,26.84,7.46c10.62.18,21.52-2.55,30.2-8.83a36.32,36.32,0,0,0,12.58-16.26,7.68,7.68,0,0,1-6.18-2.74c-3,1-5.91,2-8.86,3a7.14,7.14,0,0,1-1.57,4.58,6.51,6.51,0,0,1-9.18.61,8,8,0,0,1-2.25-4.4c-4.92-1.52-9.85-3-14.76-4.52a8.54,8.54,0,0,1-8.39,4.36c-2.72-.19-4.92-2.07-6.41-4.23-1.82.61-3.64,1.21-5.45,1.83a6.6,6.6,0,0,1-1.74,2.81,4.35,4.35,0,0,1-6.32-1.19,4.3,4.3,0,0,1,2.53-6.29,5.11,5.11,0,0,1,4.49,1.21c1.89-.57,3.75-1.21,5.62-1.84a9.89,9.89,0,0,1,1.73-5.69c-1.67-2.17-3.12-4.53-5-6.56-1.65-.68-3.24-1.62-3.87-3.42C173.23,133.05,168.56,133.29,163.93,133.79Z"/><path class="cls-1" d="M51.2,99.63a6.73,6.73,0,0,1,6.86,1.06c2.83,2.46,3.9,6.25,4.49,9.82a479.43,479.43,0,0,1,5.9,74.41,2.83,2.83,0,0,1-3.89,2.71,3.06,3.06,0,0,1-1.8-3.15c.06-13-.53-26.1-1.65-39.09a2.56,2.56,0,0,0-2.24-2.57c-3.69-.43-7.41-.49-11.12-.66A2.4,2.4,0,0,0,45.13,144c-1.28,12.85-2,25.77-3.12,38.63-.23,1.66-.07,4-2,4.67A2.8,2.8,0,0,1,36,184.43c1.71-18.24,2.72-36.55,4.84-54.75a168.57,168.57,0,0,1,2.89-17.76c.81-3.22,1.67-6.51,3.5-9.32A7.24,7.24,0,0,1,51.2,99.63ZM53,105c-1.58,1.11-2.13,3.11-2.72,4.84-2.31,7.46-3,15.29-4.05,23-.28,1.33,0,3.17,1.63,3.44,3.23.33,6.5.26,9.74.45A2.22,2.22,0,0,0,60,134.27c-.49-5.62-1.62-11.16-2-16.78-.33-3.84-.89-7.78-2.64-11.26C54.91,105.41,54,104.37,53,105Z"/><path class="cls-1" d="M154.35,177.15c2.14-.95,4.19,2,2.83,3.78-1.35,1.57-3,2.84-4.48,4.3a3.2,3.2,0,0,1-3.12,1.12c-2-.43-2.39-3.41-.77-4.52C150.66,180.3,152.18,178.25,154.35,177.15Z"/><path class="cls-1" d="M49.33,192.48c1.5-1.64,3.91-1.1,5.88-1.19,5.11-.09,10.21.19,15.31.29,1.93.3,2.52,3.36.85,4.37a5.25,5.25,0,0,1-3.08.54c-5.15-.19-10.3-.41-15.46-.29-1.67,8.42.71,16.94.4,25.42.08,1.15-.28,2.78.93,3.45,1.78.7,3.77-.1,5.58.4,2,.63,1.91,3.73.1,4.53-1.78.54-3.69.16-5.5.46a2.32,2.32,0,0,0-1.55,2.4q-.51,11.59-.33,23.2c.18,3,.14,6.15,1,9.1,5,1.55,10.21-.16,15.29.08,2.25.2,2.74,3.67.72,4.59a24.73,24.73,0,0,1-4.66.52c-3.93.18-7.94.71-11.83-.16-1.52-.35-3.22-1-3.88-2.51a24.92,24.92,0,0,1-1.41-7.92c-.77-13.63.4-27.27.64-40.9-.4-6.84-1.39-13.68-.89-20.54C47.66,196.3,48,194.09,49.33,192.48Z"/><path class="cls-1" d="M141.85,191.63c4.27-.35,8.56.25,12.84-.11,1.85,0,3.72-.59,5.56-.26,2.13.58,2,4.08,0,4.69-2.12.42-4.32.2-6.43.65a2.12,2.12,0,0,0-1.54,2.18c-.07,21.26-1,42.52-.08,63.77a2.18,2.18,0,0,0,1.63,2.11c2.16.15,4.31-.84,6.46-.45,1.74.45,2.15,2.78,1.05,4-.6.76-1.66.77-2.54.93a85.47,85.47,0,0,1-17.61.28c-2.29-.09-2.85-3.68-.84-4.62s4.37.59,6.24-.65c1-1.13.52-2.69.57-4-.63-20.45,0-40.91.2-61.37a2.15,2.15,0,0,0-2-2.36c-1.52-.28-3.47.45-4.6-.91A2.51,2.51,0,0,1,141.85,191.63Z"/><path class="cls-1" d="M256.23,191.72a9.49,9.49,0,0,1,8,1.7c3.57,2.9,5,7.56,5.72,11.95.78,4.62.38,9.32.65,14,.3,6.34.23,12.7.22,19.05-.21,6.41-.61,12.88-2.38,19.08-.95,3.62-2.35,7.35-5.26,9.85a7.74,7.74,0,0,1-8,1.63c-2.52-1-4.19-3.35-5.4-5.69-2.49-4.78-3.67-10.1-4.77-15.34a125.37,125.37,0,0,1-2.6-29.95,50,50,0,0,1,3.53-17.11A15.52,15.52,0,0,1,256.23,191.72Zm.42,5.09a10.25,10.25,0,0,0-5.47,4.65,38.16,38.16,0,0,0-3.64,13.78c-.91,9.73.12,19.53,1.77,29.12,1,5.49,2.14,11.06,4.57,16.13.74,1.48,1.61,3.08,3.18,3.8,1.33.46,2.62-.52,3.47-1.45,1.91-2.3,2.72-5.25,3.45-8.09,2.41-10.71,1.69-21.75,1.79-32.64-.33-6.61.36-13.42-1.68-19.82a10.38,10.38,0,0,0-2.9-4.88A4.85,4.85,0,0,0,256.65,196.8Z"/><path class="cls-1" d="M15.94,192.19a8.38,8.38,0,0,1,8.95,3.09c3.15,4.19,3.91,9.7,3.83,14.81.2,2.1-2.79,3.22-4.15,1.72-1.09-1.06-.61-2.72-.81-4.08-.24-3.56-.72-7.66-3.6-10.13-2-1.54-4.64-.12-6.33,1.26-4.39,3.86-6.47,9.72-7.12,15.4-.79,7.4-1.45,14.81-1.7,22.24a86.35,86.35,0,0,0,.6,15.84c.57,3.92,2,7.92,4.91,10.71a5.38,5.38,0,0,0,6,1.25c3.51-1.69,4.32-5.84,5.18-9.25a2.54,2.54,0,0,1,4.13-.33c.86,1.09.46,2.52.19,3.74-.88,3.77-2.81,7.53-6.15,9.68a9.91,9.91,0,0,1-10.18.36c-3.9-2.16-6.38-6.21-7.73-10.35C.53,253.57.24,248.71,0,243.93a204.8,204.8,0,0,1,1-22.78c.57-5.88.82-11.95,3.32-17.4C6.58,198.69,10.37,193.68,15.94,192.19Z"/><path class="cls-1" d="M227.43,192.23a8.4,8.4,0,0,1,8.83,2.68c3.07,3.68,3.88,8.64,4.16,13.28.05,1.3.27,3-1,3.81a2.48,2.48,0,0,1-4-1.94c-.07-3.55-.2-7.3-2-10.48-.79-1.42-2.18-2.86-4-2.66a9.4,9.4,0,0,0-5.32,3.13c-3.61,4-5.37,9.36-5.9,14.65-1.06,10.51-2,21.07-1.63,31.65.31,5.11.79,10.57,3.87,14.86,1.37,2,3.57,3.83,6.14,3.53s4.26-2.44,5.18-4.61c.8-1.68.9-3.58,1.59-5.29,1.23-1.75,4.46-1.12,4.52,1.19a16.81,16.81,0,0,1-4.24,10.27,10.18,10.18,0,0,1-10.15,3.14c-3.31-.91-5.91-3.47-7.7-6.31-2.89-4.59-3.63-10.11-4-15.42-.67-11,.34-22.08,1.44-33.06a31.44,31.44,0,0,1,6-16.6A15.73,15.73,0,0,1,227.43,192.23Z"/><path class="cls-1" d="M170.63,193c2.38-.36,4.85.23,7.27.14q6.55-.22,13.09.17a5,5,0,0,1,2.54.6,2.55,2.55,0,0,1,.08,3.92c-.89.76-2.13.5-3.19.45-4.48-.4-9-.15-13.46-.24-.88,0-1.89-.13-2.64.46a2.44,2.44,0,0,0-.7,2.2c.2,6.67.53,13.35.21,20a2.48,2.48,0,0,0,1.35,2.76c1.91.62,4.12-.41,6,.49,1.66.93,1.36,3.54-.25,4.36-2.07.46-4.27.07-6.3.7-1.28.56-1.26,2.12-1.34,3.3-.51,11.3-1.11,22.67-.07,34a2.45,2.45,0,0,1-2.31,2.79,2.4,2.4,0,0,1-2.57-1.92c-1.2-12.65-.58-25.38.11-38,.3-5.91.81-11.82.56-17.74-.18-4.78-.24-9.57-.37-14.36A4.27,4.27,0,0,1,170.63,193Z"/><path class="cls-1" d="M37.72,193.48a2.5,2.5,0,0,1,3.71,2.11c.57,14.55-.14,29.12-.52,43.67-.15,9.6.79,19.18.86,28.79a2.41,2.41,0,0,1-2.87,2.39,2.46,2.46,0,0,1-2.05-2.77c-.21-11.17-1.31-22.33-.8-33.5.42-11.94.72-23.89.52-35.83C36.57,196.7,36,194.47,37.72,193.48Z"/><path class="cls-1" d="M77.07,196a2.62,2.62,0,0,1,3.48-2.52,3.27,3.27,0,0,1,2.39,2.7c.93,4.23,2.87,8.15,3.82,12.38,2.31,9.86,4.61,19.74,7.2,29.54,1.13,4.15,2.06,8.42,4.22,12.2.18-18.41-1.82-36.93.84-55.25.22-1.84,2.8-2.56,4.1-1.37a2.66,2.66,0,0,1,.76,2.38c-3,22.07.24,44.34-.9,66.49a9.58,9.58,0,0,1-.86,3.61c-1,1.76-4.06,1.66-4.76-.32-2-5.3-3.48-10.78-5.25-16.15-3.25-9.61-5.29-19.57-7.65-29.42A71.63,71.63,0,0,0,82,212.46c-.36,4.91-.2,9.83-.39,14.74-.18,11.14-1.26,22.29-.38,33.43.07,2.31.58,4.63.43,6.94-.33,2.45-4.41,2.43-4.81,0-1.25-8.14-.93-16.42-.79-24.63.33-8.21.68-16.41.78-24.62C77,210.93,77.93,203.46,77.07,196Z"/><path class="cls-1" d="M203.6,193.38a2.5,2.5,0,0,1,3.53,2.12c.44,11.81.14,23.63-.27,35.43-.76,12.25.38,24.49.65,36.73a2.52,2.52,0,0,1-3.09,2.75,2.49,2.49,0,0,1-1.85-2.71c-.2-11-1.29-22-.81-33.07.42-12.22.74-24.45.51-36.68C202.19,196.37,201.85,194.21,203.6,193.38Z"/><path class="cls-1" d="M107,194.4c1.89-.56,3.92-.35,5.88-.43,7.27-.11,14.52.37,21.79.23a2.44,2.44,0,0,1,2,3.84c-.8,1.32-2.51,1-3.81,1.13-3,.19-5.91-.19-8.85,0-1.27,0-1.63,1.46-1.48,2.51a112.69,112.69,0,0,1,.1,12.53c.07,15.56-1.7,31.16-.08,46.69.09,1.57.68,3.18.26,4.73-.58,1.93-3.56,2-4.47.33a8.3,8.3,0,0,1-.53-2.44c-1.53-13-.7-26-.31-39.06.19-5.11.07-10.23.31-15.34.28-2.83-.55-5.58-.72-8.39a1.89,1.89,0,0,0-1.86-1.8c-2.49-.2-5,.14-7.47.17C105.47,198.94,105,195.26,107,194.4Z"/><path class="cls-2" d="M191.37,106c7.6.29,15.21,0,22.82.13h31.59c0,12.28,0,24.55,0,36.82a7,7,0,0,0-5.89-.13c-2.31,1-3.53,3.39-3.8,5.77-3,1-6,2.08-9.07,3.09a6.67,6.67,0,0,0-10.85,1l-14.65-4.49a9.91,9.91,0,0,0-2-5.89l.93-.81c1.53,1,3.57,1.46,5.2.43a4.28,4.28,0,1,0-5.95-5.73c-.72,1.16-.48,2.55-.27,3.82L198.19,141a9.36,9.36,0,0,0-8.71-.74c-1.44-1.91-2.85-3.83-4.26-5.75a5.17,5.17,0,0,0-.12-6c1-3.42,2.09-6.81,3.15-10.21a6.71,6.71,0,0,0,6.71-4.62A6.48,6.48,0,0,0,191.37,106Z"/><path class="cls-2" d="M156.84,106.09c9.75-.06,19.5.12,29.24-.09a6.59,6.59,0,0,0-3.52,7.3,7.83,7.83,0,0,0,2.34,3.8q-1.55,5.11-3.17,10.2a5.65,5.65,0,0,0-3.77,2.9c-4.64.34-9.28.77-13.92,1.12a5.89,5.89,0,0,0-2.65-3.34c-1.4-.83-3.06-.52-4.56-.24C156.86,120.52,156.84,113.3,156.84,106.09Z"/><path class="cls-2" d="M163.93,133.79c4.64-.5,9.3-.74,13.94-1.21.62,1.79,2.21,2.73,3.87,3.42,1.83,2,3.28,4.39,5,6.56a9.89,9.89,0,0,0-1.73,5.69c-1.87.63-3.74,1.27-5.62,1.84a5.11,5.11,0,0,0-4.49-1.21,4.3,4.3,0,0,0-2.53,6.29,4.35,4.35,0,0,0,6.32,1.19,6.6,6.6,0,0,0,1.74-2.81c1.81-.62,3.63-1.22,5.45-1.83,1.49,2.16,3.69,4,6.41,4.23a8.54,8.54,0,0,0,8.39-4.36c4.92,1.52,9.85,3,14.76,4.52a8,8,0,0,0,2.25,4.4,6.51,6.51,0,0,0,9.18-.61,7.14,7.14,0,0,0,1.57-4.58c3-1,5.91-2,8.86-3a7.68,7.68,0,0,0,6.18,2.74,36.32,36.32,0,0,1-12.58,16.26c-8.68,6.28-19.57,9-30.2,8.83a50.52,50.52,0,0,1-26.84-7.46,35.79,35.79,0,0,1-15.2-19.59c-1.69-5.22-1.84-10.75-1.82-16.18a6.32,6.32,0,0,0,4.3,0A5.86,5.86,0,0,0,163.93,133.79Z"/></g></g></svg>