<svg xmlns="http://www.w3.org/2000/svg" viewBox="0 0 274.94 274.92"><defs><style>.cls-1{fill:#00acc1;}.cls-2{fill:#ffab00;}</style></defs><title>DebateEstudiantil</title><g id="Layer_2" data-name="Layer 2"><g id="Layer_1-2" data-name="Layer 1"><path class="cls-1" d="M127.08,0l4.3.09.1,4.46,3.09.19c.05,1.2.1,2.39.14,3.6l-3,0c.26,3.63.41,7.27.71,10.9l2.76.14c.1.87.28,2.62.38,3.5-2.25.42-5.32,1.6-7-.7-2.32-4.54.82-10.71-2.94-14.57,0-.45.09-1.34.12-1.79C126.87,4.08,126.93,2,127.08,0Z"/><path class="cls-1" d="M163.7,1.18q6.14,1.56,12.32,3c-.25,1.05-.74,3.16-1,4.2l-7.84-1.86L165.83,12l6.88,1.6c-.32,1.41-.64,2.81-1,4.22q-3.46-.81-6.91-1.67c-.46,1.89-.93,3.77-1.38,5.66,2.64.62,5.29,1.23,7.93,1.87q-.48,2.11-.93,4.22c-4.17-1-8.32-2-12.49-3C159.83,17,161.81,9.09,163.7,1.18Z"/><path class="cls-1" d="M138.32,8c1.47-3.29,6.05-5,9.05-2.65,3.39,2.42,3,7.05,3.17,10.74-3.29-.11-6.56-.28-9.84-.32a34.85,34.85,0,0,0,2.54,3.79c1.72.19,3.34-.58,5-1,.49,1.08,1,2.17,1.5,3.25-2.63,1.36-5.83,2.78-8.65,1C136,19.87,136,12.74,138.32,8Zm4.76-.09a47.39,47.39,0,0,0-1.88,4.53c1.76.09,3.52.13,5.29.15-.33-1.32-.68-2.63-1-3.94Z"/><path class="cls-1" d="M90.58,6.1l4.36-1.28c.77,2.63,1.55,5.26,2.25,7.91,1.15-1.84,2.57-4,5-3.84,4.51,1,6,6,7,9.92.76,2.93.78,7-2.3,8.56-1.76,1.14-3.7,0-5.49-.44.18.41.54,1.23.71,1.65L97.79,29.9Q94.15,18,90.58,6.1Zm8.74,8c-1.26,3,0,6.36,1.61,9a2.46,2.46,0,0,0,3.51.73c1-2.46.27-5.19-.74-7.51C102.89,14.54,101.29,12.31,99.31,14.09Z"/><path class="cls-1" d="M110.64,8c3.47-1.91,8.75-3.67,11.51.3,2.38,4.79,2.15,10.4,3.24,15.56-1.71,0-3.41,0-5.12,0-1.81.87-3.93,2.17-5.93,1a7.39,7.39,0,0,1-1.88-9.38c1.61-2.4,4.85-1.93,7.32-2.37l-2.4-2.87c-1.81-.15-3.45.73-5.1,1.3Zm6.11,8.77c-1.56,1.18-.7,3.09,0,4.51,3.5,1.46,3.67-3,3.24-5.27C118.87,16.25,117.8,16.51,116.75,16.8Z"/><path class="cls-1" d="M176.71,20.06c-2.29-3.4,1.13-8.67,5.2-8,2.65.18,4.62,2.15,6.41,3.9-1,.83-2,1.64-2.94,2.46-1.52-1.58-3.31-2.8-5.57-1.85,1.49,2.8,3.81,5.2,4.76,8.29,0,2.8-1.9,5.7-4.84,6-3.4.48-6-2.2-8.21-4.35l3.07-2.75c1.47,1.47,2.87,3.56,5.27,3.16C180.66,24.19,177.67,22.36,176.71,20.06Z"/><path class="cls-1" d="M192.52,15.44c.55-1.06,1.1-2.14,1.63-3.2l4,1.83q-1,2.22-2,4.44l2.58,1.12c-.4.87-1.2,2.59-1.6,3.46l-2.64-1.33c-1.65,3.27-3.29,6.55-4.78,9.9L192.27,33l-1.77,3.35c-1.8-.88-4.27-1.13-5.24-3.11-.94-5.55,5.89-9.75,4.13-15.28A35.49,35.49,0,0,1,192.52,15.44Z"/><path class="cls-1" d="M78.82,21.39c0-3.69,3.89-6.87,7.49-5.75s5.25,4.95,7,8c-2.93,1.35-5.86,2.67-8.71,4.19,1.28.75,2.44,1.85,4,2.1,1.69-.35,2.62-2,3.84-3.07,1,.71,2,1.41,3,2.1-1.73,2.22-3.64,5-6.82,4.93C82.2,34.12,78.58,26.91,78.82,21.39Zm4.43,3.25c1.66-.73,3.3-1.5,4.92-2.31-1.29-1-2.13-3.33-4-3C82.11,20.35,83.26,22.93,83.25,24.64Z"/><path class="cls-1" d="M55.78,25.28c4-2.43,8.23-6.38,13.27-4.7,5.48,2.23,9.19,8,9.8,13.78.17,5.8-5.56,8.64-9.73,11.33C64.7,38.86,60.3,32,55.78,25.28ZM62,26c2.87,4.72,5.85,9.39,9.09,13.87,1.23-1.64,3.35-3.12,3-5.45C73.41,29,67.81,22.07,62,26Z"/><path class="cls-1" d="M194,35.42c2-5,5.6-9.21,8.31-13.86L206.11,24c-2.48,4.13-5.6,7.92-7.43,12.4.82,1.58,3,2.34,3.89.4,2.62-3.33,4.63-7.07,6.95-10.61l3.84,2.42c-3.34,5.24-6.71,10.47-10,15.73q-2-1.24-3.94-2.5l1.54-1.41C197.58,41.41,193,39.58,194,35.42Z"/><path class="cls-1" d="M211.14,37.79c2.2-2.46,5.53-5.54,9.08-4,2.23.75,2.35,3.33,2.93,5.23,1.61-2.18,3.35-4.27,5.11-6.34,1.15,1,2.3,2,3.47,3-5.39,6.3-10.75,12.61-16.15,18.91-1.18-1-2.37-2-3.55-3l1.81-1.4c-2.2,0-4.83.16-6.07-2.09C205.81,44.34,208.84,40.52,211.14,37.79ZM216.6,39c-2.39,1.78-6.45,5.83-3.46,8.62,3.62-.4,6.3-3.74,7.29-7C221,38.19,218,37.42,216.6,39Z"/><path class="cls-1" d="M232.24,42.45l3.06-3.16c1.12,1.15,2.24,2.29,3.37,3.44l-3.3,2.87Z"/><path class="cls-1" d="M46,41.32c5.53-2.76,11.39,2.29,13.53,7.18C61.69,52.84,58,58.64,53.08,58,45.69,57.68,38.18,46.28,46,41.32Zm.23,5a16.85,16.85,0,0,0,3.56,5.39c1.7,1.52,4.49,3.49,6.27,1-.2-4.09-3.91-6.69-7.2-8.41Z"/><path class="cls-1" d="M217.35,56.54c4.53-4.23,9-8.53,13.47-12.82,1.06,1.05,2.13,2.09,3.2,3.12-4.42,4.39-9,8.65-13.53,12.89C219.46,58.67,218.4,57.61,217.35,56.54Z"/><path class="cls-1" d="M37.06,54.41c0-1.71,0-3.4.09-5.11,1.38,1,2.77,2,4.12,3.06-.1,1.66-1.15,3.71.28,5.11,2.48,2.67,5.58,4.67,8.35,7L47.09,68c-4.83-3.92-9.73-7.77-14.51-11.74l2.83-3.53Z"/><path class="cls-1" d="M234.11,53.89l2.22-3.12c3.48,2.08,7.77,6.42,5,10.68-3.27,4-7.88,6.62-11.84,9.88-.84-1.47-1.65-3-2.35-4.5-1.58-1.16-3.84-2.19-3.75-4.5.2-3.39,3.53-6.07,6.76-6.48,3.17,0,4.5,3.45,6.4,5.37.34-1.34,1.14-2.66.93-4.09A25.68,25.68,0,0,0,234.11,53.89Zm-6.92,8.74c.93.76,1.63,2.25,3,2.09a25.08,25.08,0,0,0,3.6-2c-.83-.9-1.62-1.84-2.51-2.65C229.58,60.09,228.5,61.73,227.19,62.63Z"/><path class="cls-1" d="M22.29,62.77c.83-1.19,1.64-2.38,2.47-3.56l3.85,2.72,1.67-2.53,3.2,2.24L31.73,64c3.09,2.06,6.17,4.15,9.35,6.08.39-.62,1.16-1.86,1.54-2.48l3.09,2.22c-1.13,2.1-2.49,5.67-5.52,4.86-4.55-2-8-6.25-13.19-6.88A23.28,23.28,0,0,0,22.29,62.77Z"/><path class="cls-1" d="M247,63.6l2.36,3.82-1.78.59c2,1.15,5,2.15,4.78,5,.16,2.21-1.83,3.65-3.48,4.7-3.71,2.28-7.51,4.42-11.25,6.67-.76-1.32-1.52-2.64-2.28-4,4-2.51,8.46-4.38,12-7.54A2.43,2.43,0,0,0,245.94,70c-4.56,1.58-8.43,4.64-12.66,6.91L231,73Q239,68.3,247,63.6Z"/><path class="cls-1" d="M20.56,76.29c-.1-3.1,2.64-5,4.71-6.87l2.07,3.18c-1.06,1.55-4.32,3.15-2.18,5.14,2.62-.81,4.93-2.38,7.55-3.17a5.45,5.45,0,0,1,6.15,5.86c-.23,3.24-3,5.3-5.44,7l-2.17-3.24c1.47-1.42,3.91-2.45,3.73-4.87-2.42-1.25-4.64,1.43-6.95,2C24.68,83.21,20.09,80.08,20.56,76.29Z"/><path class="cls-1" d="M256.94,79l3.32-1.52,1.87,4.13-4.35,2L259,86.39l-3.47,1.41-1.16-2.63c-3.26,1.5-6.71,2.68-9.74,4.65.15.64.46,1.92.62,2.57l-3.12,1.45c-1.12-2-3.55-4.91-1.4-7,3.24-2.47,7.31-3.48,10.84-5.46A3.81,3.81,0,0,1,256.94,79Z"/><path class="cls-1" d="M16.06,85.44c3.22-3.22,8.08-1.2,11.8-.1-1.18,3-2.38,6.05-3.31,9.18,1.61-.55,3.82-.34,4.73-2.1l.09-4,3.62-.5c.71,3.17.61,7-2.29,9.05-4,3-9.4,1.14-13.09-1.4C14.31,93.46,12.9,88.29,16.06,85.44Zm2.09,2.38c-.23,2.37,1.48,3.91,3.15,5.29q1-2.53,2-5.09C21.59,87.92,19.87,87.85,18.15,87.83Z"/><path class="cls-1" d="M261.9,88.84,266,87.36c.5,1.5,1,3,1.54,4.51l-4,1.34C262.93,91.75,262.42,90.3,261.9,88.84Z"/><path class="cls-1" d="M242.57,95.84q8.78-3.19,17.58-6.29c.5,1.42,1,2.83,1.52,4.24-5.85,2.11-11.71,4.15-17.55,6.28C243.61,98.65,243.08,97.24,242.57,95.84Z"/><path class="cls-1" d="M185,97.51c3.56-2.67,7.54-5.06,12.06-5.54a22,22,0,0,1,20.22,35.74,21.18,21.18,0,0,1-24.41,6.36c-4.2-1.66-7.51-4.86-10.32-8.31,6.08-3.2,11.74-7.77,14.27-14.36-6,1.64-12.4,3-18.58,1.31.2-1.66.43-3.33.69-5-1.12-2.17-3.09-4.73-1.62-7.23C179,98.13,182.27,98,185,97.51Z"/><path class="cls-1" d="M156.8,96.58c.19-2.46,2.52-3.23,4.57-2.35a111.87,111.87,0,0,1,5.94,12.11c2.13-1.88,4.68-3,7.5-2a41,41,0,0,0-4.36,10.5c-.77,4.19-5.86,6.37-9.65,4.87-2.82-.73-4-3.66-6.23-5.31s-4.42-2.92-6.65-4.38a22.15,22.15,0,0,1,.76-3.54c3-1,5.39,1.72,7.84,2.93-2.14-2.32-4.57-4.39-6.39-7a2.79,2.79,0,0,1,3.68-3.77c2.74,2.2,4.83,5.08,7.32,7.55C159.66,103,157.89,99.95,156.8,96.58Z"/><path class="cls-1" d="M245.17,103.07c8-2.24,16-4.48,23.91-6.77l1.21,4.4c-8,2.21-15.92,4.5-23.88,6.72C246,106,245.58,104.52,245.17,103.07Z"/><path class="cls-1" d="M11.27,98.13c6.1,1.57,12.24,3,18.36,4.52-.63,1.72-1.31,3.42-2.07,5.09.72,2.74-.2,6.4-3.55,6.6-5.38-.41-10.53-2.36-15.82-3.42l1.1-4.44c4.22,1,8.35,2.34,12.64,3,2.05.61,3.61-2.52,1.46-3.49-4.22-1.63-8.74-2.24-13.1-3.39C10.6,101.12,10.93,99.63,11.27,98.13Z"/><path class="cls-1" d="M1.35,115.5c8.12.74,16.24,1.44,24.36,2.18-.11,1-.3,3-.41,4-4.85,2-9.67,4-14.57,5.92,4.65.43,9.31.85,14,1.3l-.45,4.52C16.17,132.66,8.07,132,0,131.21c.13-1.43.27-2.86.4-4.28q7-2.85,13.89-5.72c-4.42-.37-8.84-.77-13.25-1.13C1.15,118.55,1.25,117,1.35,115.5Z"/><path class="cls-1" d="M259.62,120.9c3.25-2,7.82,1.07,7.41,4.81.19,3.79-4.77,6.45-7.85,4.2C255.78,128,256,122.43,259.62,120.9Z"/><path class="cls-1" d="M161,126.56A22.69,22.69,0,0,1,175.87,121c2.33,8.71,10.32,14.26,18.4,17.09,2.24.87,4.71,1.34,6.71,2.76,3,2.6,3.74,6.77,4,10.52.38,8.49-1.59,16.87-3.81,25-11.69,0-23.38,0-35.06,0A98.21,98.21,0,0,1,174.4,156a64.51,64.51,0,0,1-19.35-2.91c1.2-5,3.9-10.06,8.75-12.35a59.86,59.86,0,0,0,15.2,3.08C172,139.28,165.43,133.78,161,126.56Z"/><path class="cls-1" d="M143.66,138.24c-.76-2.73-1-5.61,1.21-7.73a44,44,0,0,0,7.92,8.19c4.75,3.22,2.71,11.57-2.75,12.81-4.17.93-7.19,4.17-11.07,5.71a3.08,3.08,0,0,1-2.52-2.63c.83-2.71,3.86-3.62,5.84-5.3-3.23,1.08-6.36,2.59-9.72,3.23-1.92-.73-3-3-1.64-4.77,3.12-1.76,6.67-2.57,10-3.9-3.51-.11-7,.39-10.54.09-1.6-.81-1.71-2.76-.92-4.18C133.61,137.26,139,138.74,143.66,138.24Z"/><path class="cls-1" d="M69.13,178.33H208.66V192c-4.46,0-8.92.08-13.38-.13s-9-.2-13.42,0q-43,.31-85.94,0-6.83-.31-13.68,0c-4.36.2-8.73.11-13.1.12Z"/><path class="cls-2" d="M66.55,96.05a22.43,22.43,0,0,1,21.91,1.56c3,2.27,7.68.78,10.12,3.94,1.7,2.4-.39,5.06-1.33,7.29.38,1.58.74,3.15,1.1,4.73a32.8,32.8,0,0,1-18.23.55c4.84,4.17,11.3,5.54,17.54,4.67C96,125.13,92.87,131.47,87,134.91a21.06,21.06,0,0,1-22.87,0,22.3,22.3,0,0,1,2.37-38.88Z"/><path class="cls-2" d="M125.78,119.82c3.57-3.49,6.41-7.93,11-10.25,1,1.25,2.63,2.35,2.24,4.19-2.05,2.87-4.79,5.15-7.06,7.85,3.08-1.56,6-3.54,9.19-4.8,2-.49,3.4,1.67,3.31,3.46-2.25,3.07-6.18,4.12-9.34,6a55.45,55.45,0,0,1,7.12-1.35,3.16,3.16,0,0,1,1.34,3.89c-1.89,1.55-4.5,1.65-6.73,2.45-3.46.6-6,4-9.67,3.52-4.11,0-7.78-3.94-7.11-8.08a37.57,37.57,0,0,0-.91-11.16C122.12,115.46,124.3,117.37,125.78,119.82Z"/><path class="cls-2" d="M114.49,133.8a21.33,21.33,0,0,1,14.21,5l-.06.91c-2.45,6.05-8,10.2-13,14.11,2.91,3,6.32,7.43,4.09,11.72-1.17,2.91-4.44,3.42-7.16,3.88.78,2.3,1.52,4.61,2.27,6.91H76.45C74.47,167.82,73,159,74,150.24c.6-4.28,2.5-9,6.75-10.82a13.49,13.49,0,0,1,11,1c4.1,2.28,8.11,4.73,12.23,7A24.58,24.58,0,0,0,114.49,133.8Z"/><path class="cls-2" d="M250.15,143.23c8.27.59,16.52,1.36,24.79,2-.1,1.51-.17,3-.24,4.55-8.26-.65-16.5-1.42-24.76-1.94C250,146.66,250.11,144.37,250.15,143.23Z"/><path class="cls-2" d="M249.45,150.49c1.41.17,2.81.35,4.23.55-.18,1.54-.38,3.07-.56,4.62l-4.3-.54C249,153.57,249.24,152,249.45,150.49Z"/><path class="cls-2" d="M255.57,151.44q9.24,1.3,18.49,2.71c-.23,1.47-.44,3-.64,4.42-6.17-.84-12.32-1.79-18.48-2.67C255.14,154.4,255.36,152.92,255.57,151.44Z"/><path class="cls-2" d="M10.46,156.17a7.51,7.51,0,0,1,5.55,0c2.65,1.47,2.68,6-.1,7.33-2.29,1.25-5.75,1.65-7.44-.77C6.7,160.54,7.91,157.14,10.46,156.17Z"/><path class="cls-2" d="M254.72,158l3.57.79c-.15.72-.44,2.17-.59,2.89,3.4.78,6.78,1.74,10.25,2.2l1.7-2.92c4.34.38,3.5,6.49.21,7.57-5.1.31-9.94-2.93-15.05-1.4-2.16-1-4-2.58-6.41-3.16l1-4.14,4.59,1.06C254.16,160.17,254.53,158.72,254.72,158Z"/><path class="cls-2" d="M251.2,177.51c-1.66-2.9-1.1-7.29,2.76-7.85,5.54.63,10.62,3.29,15.93,4.87l-1.47,4.22c-4.5-1.33-8.8-3.34-13.41-4.28l-1,.67c-.17.55-.5,1.63-.68,2.17,4.11,2.79,9.21,3.48,13.73,5.41-.49,1.41-1,2.82-1.46,4.23-5.88-2-11.77-4-17.63-6,.48-1.48,1-3,1.46-4.43Z"/><path class="cls-2" d="M5.2,180l22.66-9.06c.52,1.33,1,2.65,1.56,4-3.22,3.79-6.49,7.54-9.68,11.36q6.14-2.48,12.27-4.93c.56,1.42,1.13,2.83,1.71,4.26-7.55,3-15.08,6-22.64,9-.5-1.26-1-2.51-1.52-3.76,3.5-3.92,6.83-8,10.34-11.91-4.32,1.76-8.66,3.47-13,5.23Z"/><path class="cls-2" d="M242.61,194.47c.57-3.89,2.13-9.25,6.94-9.32,5.19.9,9.53,4.22,14.3,6.27-.62,1.33-1.26,2.66-1.86,4l-1.13-1c0,2.18.35,4.95-1.79,6.33-3,1.9-6.94-.1-8.88-2.63-2-2.87.67-5.84,2-8.29-1.6.28-4-.64-4.61,1.48a26.31,26.31,0,0,0-1.17,3.73Zm11.61,1.67c1.59,1.67,4.52.78,4.25-1.75a22.67,22.67,0,0,0-3.84-2.92C254.1,192.87,252.31,195,254.22,196.15Z"/><path class="cls-2" d="M18.11,197c3.78-2.37,7.72-4.48,11.56-6.75l2.28,3.9c-4,2.6-8.65,4.39-12.21,7.65a2,2,0,0,0,2.15,2.56c4.28-1.74,8.08-4.48,12.1-6.74l2.28,4c-5.37,3.12-10.77,6.21-16.1,9.38-.78-1.34-1.56-2.68-2.34-4l1.71-.73c-1.93-.94-4.72-1.78-4.58-4.47C14.6,199.61,16.53,198.11,18.11,197Z"/><path class="cls-2" d="M82,191.18q6.86-.31,13.71,0c0,4.52,0,9,0,13.55H82.06C82.06,200.2,82.07,195.7,82,191.18Z"/><path class="cls-2" d="M181.88,191.18c4.48-.2,9-.2,13.45,0,0,4.52,0,9,0,13.55H181.9C181.9,200.2,181.91,195.7,181.88,191.18Z"/><path class="cls-2" d="M232.39,197.38l2.48-3.93,3.68,2.21c-.82,1.32-1.62,2.64-2.42,4Z"/><path class="cls-2" d="M237.74,200.56c.79-1.27,1.59-2.54,2.38-3.8q8,4.86,15.89,9.77c-.81,1.28-1.6,2.57-2.39,3.85C248.36,207.07,243,203.85,237.74,200.56Z"/><path class="cls-2" d="M228.58,202.89l2.73-3.67c6.53,5.11,13.16,10.08,19.75,15.12-.93,1.21-1.86,2.45-2.79,3.67l-1.33-1.48c-.27,1.93.27,4.51-1.69,5.74-3.16,2.47-7.15,0-9.89-2-2.75-2.09-6.19-5-5.54-8.85.45-2.5,3.06-3.11,5.07-3.9C232.76,206.06,230.66,204.48,228.58,202.89Zm6.37,8.07c-1.41.82.21,2.63.79,3.55,1.88,2.09,4.4,4.09,7.38,3.94,2.51-2-.33-4.63-2-6.08C239.51,211.1,236.84,209.31,234.95,211Z"/><path class="cls-2" d="M25.92,218.94c-1.49-6.09,4.5-11.22,10-12.26a6.21,6.21,0,0,1,7.47,6c-.29,3.85-3.68,6.27-6.36,8.61-1.92-2.59-3.86-5.15-6-7.56a23.12,23.12,0,0,0-1.21,4.3c.67,1.67,2.58,2.05,4,2.86-.53,1.18-1,2.37-1.56,3.55C29.63,223.28,26.7,221.94,25.92,218.94Zm7.92-7.31q1.56,2.17,3.16,4.32a35.28,35.28,0,0,0,2.49-3.52C39,209.27,35.77,211.22,33.84,211.63Z"/><path class="cls-2" d="M222.69,219.43l3.26-3.24c4.37,4.5,8.87,8.87,13.26,13.34a21.85,21.85,0,0,1-4.3,2.75c-.46,2.82-3.17,5.92-6.24,4.36-4.67-2.9-7.94-7.53-12-11.18,1.06-1.08,2.14-2.16,3.21-3.23,3.26,3.13,6.22,6.6,9.7,9.48a1.88,1.88,0,0,0,2.57-2.6C229.28,225.64,225.81,222.69,222.69,219.43Z"/><path class="cls-2" d="M41.3,222.32c0-3.86,5-6.46,8.16-4.21,2.3,1.28,3.16,3.85,4,6.15l-3.77,1.08c-.62-1.43-1.27-2.82-2-4.21l-2.33,1c.39,2.56,1.2,5.1,1,7.71-.5,3.48-4.92,5.7-7.94,3.76-2.8-1.3-3.59-4.51-4.56-7.14l3.74-1c.88,1.78,1.61,6.29,4.42,4.18C42.08,227.17,41.35,224.78,41.3,222.32Z"/><path class="cls-2" d="M57.23,223.89l2.36-2.69c1.13,1,2.25,2,3.39,3l-3.22,3.66,2.38,1.75-2.56,3-2.14-2c-2.44,2.8-4.91,5.58-7.17,8.53l2.24,1.8-2.62,2.78c-1.72-1.44-4.61-2.68-4.36-5.37,1.79-3.8,5.19-6.55,7.73-9.84A3.93,3.93,0,0,1,57.23,223.89Z"/><path class="cls-2" d="M206.54,227.57l3.51-2.89c1,1.27,2,2.52,3,3.79l2.29-1.85,2.4,2.86c-.78.64-1.56,1.3-2.33,2,2.31,2.86,4.59,5.73,7.05,8.46l2.13-1.86,2.32,3c-1.69,2-4.67,5-7.25,2.54-3.63-3.93-6.4-8.81-11.56-11,.38-.32,1.12-1,1.49-1.28Z"/><path class="cls-2" d="M52.73,246.26q5.44-7.57,10.89-15.13l3.86,2.71-1.63,1.54,5-.18c-.91,1.55-1.86,3.07-2.82,4.59l-4-.38c-3.25,2.49-5.1,6.3-7.59,9.47Z"/><path class="cls-2" d="M200.74,238.1c1.27-3,4.81-3.62,7.64-4.33.15,1.29.3,2.59.44,3.89-1.66.82-5.83.77-4.06,3.57,2.8.54,5.78-.11,8.49.9,2.91,1.59,4,6.05,1.44,8.47-1.89,2.33-5,2.57-7.77,3,0-1.32-.1-2.64-.15-4,2.31-.39,5.28-.49,5.52-3.47-2.59-.31-5.22-.25-7.8-.63C201.21,245.14,199.22,241,200.74,238.1Z"/><path class="cls-2" d="M182.8,240.72c3.76-1.87,7.54-3.71,11.22-5.72.65,1.27,1.3,2.54,2,3.82-2.37,1.27-4.75,2.52-7.15,3.75.9,1.64,1.79,3.31,2.68,5,2.08-1.07,4.17-2.18,6.23-3.3l1.91,3.84c-2.08,1.12-4.17,2.24-6.27,3.35.88,1.71,1.74,3.41,2.62,5.12,2.43-1.22,4.85-2.45,7.25-3.76.63,1.29,1.27,2.59,1.91,3.88-3.74,2-7.54,3.86-11.32,5.78C190,255.3,186.51,247.95,182.8,240.72Z"/><path class="cls-2" d="M71.63,239.66c3.85-1.86,8.93.77,9.43,5.08.44,4.51-2.14,9-5.67,11.69-3.69,2.87-9.79.44-10.43-4.19C64.32,247.27,67.32,242.06,71.63,239.66ZM72.82,244c-2.21,2.09-3.91,5.12-3.62,8.24.68,2.05,3.23,1.44,4.29.08,2.13-2.25,3.85-5.46,3-8.64A2.68,2.68,0,0,0,72.82,244Z"/><path class="cls-2" d="M86,265.23c2.4-7.76,5.07-15.45,7.62-23.17,3.88,1.45,8.64,2.13,11.08,5.88,2.22,3.45,1.52,7.78.24,11.43-1.23,3.35-3.39,6.8-7,7.91C93.89,268.48,89.88,266.41,86,265.23Zm5.68-2.08c2.16,0,4.81.67,6.37-1.29,3.62-4.07,5.42-12.41-1.17-14.6C95.08,252.52,93.2,257.77,91.72,263.15Z"/><path class="cls-2" d="M124.52,249.32c1.51,0,3,.05,4.52.1-.17,2.74-.3,5.48-.47,8.22,1.79-1.6,4.33-3,6.61-1.42,3,2.34,3,6.63,2.76,10.09-.16,3.19-1,7.11-4.38,8.38-2.31.88-4.11-1.07-5.81-2.29.05.5.17,1.51.23,2l-4.65-.38C123.76,265.8,124,257.56,124.52,249.32Zm5.15,10.9c-1.86,2.43-1.84,6-.88,8.82.27,1.78,3.1,2.29,3.68.43a11.26,11.26,0,0,0,.58-8.17A1.93,1.93,0,0,0,129.67,260.22Z"/><path class="cls-2" d="M155.28,249.4l4.22-.64c.3,1.58.59,3.15.88,4.73l2.86-.72c.26,1.23.5,2.47.76,3.7l-2.92.62c.72,3.54,1.05,7.2,2.27,10.63l2.73-.1.52,3.5c-2.27.64-5.68,2.23-7.18-.5-1.58-3.73-1.66-7.9-2.66-11.81C153.2,256.87,156.49,252.51,155.28,249.4Z"/><path class="cls-2" d="M166.56,255.57c.48-3.83,4.85-6.66,8.47-5,3.31,1.71,4.4,5.57,5.63,8.8-3,1-6.15,1.9-9.17,3,1.2,1,2.31,2.3,3.91,2.68a23,23,0,0,0,4-2.54l2.51,2.52c-2.29,2.76-5.87,5-9.52,3.48C167.77,266.23,165.85,260.41,166.56,255.57Zm4.62-1.21a20.59,20.59,0,0,0-.63,4.72c1.78-.49,3.55-1,5.34-1.51C174.69,256.11,173.52,253.08,171.18,254.36Z"/><path class="cls-2" d="M109.64,256.27a6.17,6.17,0,0,1,9.13-1c2.9,2.9,1.85,7.34,1.58,11-3.19-.54-6.38-1.12-9.59-1.55l1.5,3.38c1.43,1.73,3.63.57,5.37.15.43,1.19.87,2.39,1.31,3.6-3.11,1.15-7.1,2-9.65-.77C105.54,267.1,106.67,260.41,109.64,256.27Zm1.87,5.17c1.8.34,3.62.65,5.44,1-.31-1.69-.45-3.47-1.45-4.92C113.11,257.31,112.55,259.84,111.51,261.44Z"/><path class="cls-2" d="M141,256.72c3.65-1.5,9.21-2.87,11.57,1.36,1.73,5,1.22,10.42,1.91,15.6a49.56,49.56,0,0,1-5.37-.43,19.56,19.56,0,0,1-3.5,1.29c-4.65-.6-5.74-7-3.37-10.3,1.84-2.27,5-1.51,7.57-1.8a34.15,34.15,0,0,0-2.29-3c-1.76-.62-3.48.57-5.17,1C141.92,259.19,141.46,258,141,256.72Zm4.34,10.68c0,1.41.25,3.6,2.16,3.4,2.74-.13,2-3.52,1.89-5.37C147.91,265.81,145.91,265.58,145.35,267.4Z"/></g></g></svg>