<svg xmlns="http://www.w3.org/2000/svg" viewBox="0 0 269.49 270.25"><defs><style>.cls-1{fill:#00b0ff;}.cls-2{fill:#ffab00;}</style></defs><title>EncuentroInnovaTIC</title><g id="Layer_2" data-name="Layer 2"><g id="Layer_1-2" data-name="Layer 1"><path class="cls-1" d="M146.21.05a13.7,13.7,0,0,1,9.18,2.38,12.28,12.28,0,0,1,4.77,12.92,12.17,12.17,0,0,1-8.78,9.1,13.49,13.49,0,0,1-13-3.37,12.46,12.46,0,0,1,7.83-21Zm-.6,5.23a7.5,7.5,0,0,0-5,7.75,7.07,7.07,0,0,0,7.47,6.85c4.61,0,7.89-5.25,6.55-9.51A7.26,7.26,0,0,0,145.61,5.28Z"/><path class="cls-1" d="M119.82.56a9,9,0,0,1,7.66,2.27,9.22,9.22,0,0,1,1.79,8c-.45,2.12-2.2,3.57-3.89,4.75,2.35,2.46,4.53,5.08,6.79,7.62-2.09.31-4.18.54-6.27.82-2-2.25-3.89-4.57-5.91-6.79a10.53,10.53,0,0,0-4.17.43c.41,2.48.71,5,.93,7.5a49.37,49.37,0,0,1-5.42.54c-.7-7.92-1.79-15.81-2.87-23.69C112.24,1.45,116,1.07,119.82.56Zm-5.38,5.6c.37,2.24.37,4.53,1,6.71,2.48-.64,5.37-.14,7.55-1.68,2-1.52,1.07-5.11-1.36-5.59C119.24,5.32,116.85,6,114.44,6.17Z"/><path class="cls-1" d="M82.33,9.94c6.33-2,12.51-4.42,18.9-6.2.47,1.48,1.06,2.91,1.44,4.41-2,1.26-4.59,1.61-6.81,2.55,2,6,4,12,6.09,18-1.72.59-3.43,1.21-5.18,1.7-1.93-6-4.06-11.94-6-17.94-2.36.61-4.63,1.51-7,2.23A36.43,36.43,0,0,1,82.33,9.94Z"/><path class="cls-1" d="M70.56,16a28.29,28.29,0,0,1,4.66-2.8c4,6.92,8.22,13.75,12.25,20.67-1.33.79-2.66,1.56-4,2.29-5.77-2.37-11.56-4.66-17.33-7,2.35,4.36,5,8.56,7.56,12.8A40.94,40.94,0,0,1,69,44.8Q62.85,34.37,56.63,24c1.67-.48,3-2,4.68-2.21,5.57,2.07,11.06,4.39,16.55,6.64C75.61,24.19,73,20.15,70.56,16Z"/><path class="cls-1" d="M36.69,41.71c4.43-4.08,8.88-8.15,13.21-12.34C51,30.54,52.12,31.76,53.23,33c-3,3.06-6.43,5.67-9.27,8.88a42.12,42.12,0,0,1,3,3.24c2.95-2.38,5.62-5.09,8.38-7.68,1.13,1.19,2.25,2.38,3.3,3.63-2.67,2.52-5.45,4.94-8,7.54.76,1.44,2.14,2.44,3.15,3.71,3-3.06,6.3-5.88,9.4-8.89,1.18,1.13,2.29,2.33,3.41,3.51C62.08,51,57.69,55.18,53.23,59.26H52.9C47.53,53.38,41.92,47.71,36.69,41.71Z"/><path class="cls-1" d="M27.45,52.9c1.14-1.36,1.89-3.08,3.19-4.27C34.47,51,38,53.8,41.77,56.3c3.18,2.13,5.74,5.87,5,9.85-.89,4.4-4.12,8.68-8.65,9.7a10.83,10.83,0,0,1-8.29-2.26C26,71,22.31,68.3,18.54,65.71c.94-1.49,2-2.91,3-4.37,3.1,1.69,5.82,4,8.76,5.93,2.2,1.46,4.45,3.71,7.33,3.13,2.81-.89,5.08-4.58,3.33-7.31a8.25,8.25,0,0,0-2.79-2.69Z"/><path class="cls-1" d="M10.3,90.3c-2.16-6.16,1-14.07,7.27-16.36,1.2,1.16,1.57,3,2.53,4.41-2.46,1.41-4.95,3.37-5.35,6.39-.77,5.18,5.16,9.45,9.95,7.92,3-.77,4.91-3.87,5-6.87-.12-1.35-.52-2.65-.73-4,1.48-.57,2.95-1.17,4.41-1.78A13.21,13.21,0,0,1,34,89.6a12.19,12.19,0,0,1-10,8.77A12.84,12.84,0,0,1,10.3,90.3Z"/><path class="cls-1" d="M145.15,75.65a34.48,34.48,0,0,1,15.34,1.5,16.46,16.46,0,0,1,9.2,8.52C174.94,97,171.41,112,161,119.26a16.18,16.18,0,0,1-8.55,2.85c-1.15,3.74,1.15,7.21,1.8,10.78-6.32-.11-12.72-4.64-13.77-11.09a24.67,24.67,0,0,1-10.88-4.31A30.56,30.56,0,0,0,147,101.33,25.63,25.63,0,0,0,145.15,75.65Z"/><path class="cls-1" d="M133,89.05c3.56-1.89,8.56.7,8.78,4.8.51,2.8-1.9,5.45-.41,8.16-1.78.63-3.56,1.29-5.31,2-.25-.64-.51-1.28-.75-1.92-1.37-1.11-3-1.92-4.25-3.14C128.28,96.07,129.23,90.59,133,89.05Z"/><path class="cls-1" d="M260.78,101.83a27.12,27.12,0,0,1,4.92-.82c1.07,6.51,2.29,13,3.44,19.51a45.9,45.9,0,0,1-5,.76c-.37-2.32-.75-4.63-1.22-6.93-6.29.83-12.5,2.25-18.78,3.16a39.27,39.27,0,0,1-.8-5.37c6.24-.79,12.38-2.21,18.6-3.14C261.65,106.59,261.09,104.23,260.78,101.83Z"/><path class="cls-1" d="M3.8,101.19c7.87,1.34,15.73,2.8,23.63,3.92a16.06,16.06,0,0,1-.86,4.73c-5.15,2.86-10.47,5.41-15.62,8.27l-.26.65c4.74.61,9.42,1.57,14.14,2.32a30.92,30.92,0,0,1-1.07,5.33C16,124.83,8.23,123.64.45,122.36a15,15,0,0,1,.8-5C6.48,114.4,12,112,17.13,108.82c-4.75-.78-9.49-1.55-14.22-2.43C3.25,104.66,3.52,102.92,3.8,101.19Z"/><path class="cls-1" d="M136.62,104.56c1.46-.59,2.94-1.13,4.41-1.7q1.09-.21,1.12,1a41.08,41.08,0,0,1-5.62,2C136.55,105.58,136.59,104.9,136.62,104.56Z"/><path class="cls-1" d="M137.71,106.17c1.47-.52,2.92-1.61,4.55-1.1-.48,1.74-2.7,1.89-4.2,2.17C138,107,137.8,106.44,137.71,106.17Z"/><path class="cls-1" d="M68.79,124.94c8.27-5.81,20.48-5,27.79,2,2.78.27,6,.52,8,2.78,1.74,2.44-.05,5.32-1.7,7.25a33.2,33.2,0,0,1,.87,4.83c-3.41,1.65-7.07,3.27-9.5,6.29a17.35,17.35,0,0,1,5-1.35c.56-1.21,1.5-2.75,3.08-2.29,3.36,1.61,5.94,4.42,8.49,7.07,1.9,2.28,4.05,4.91,3.71,8.08,0,3.91-4.32,6.87-8,5.85a6.29,6.29,0,0,1-4.67-4.31c-.57-1.72-2-3.9-.24-5.39-.39-1.33-.82-3.16.63-4l1.5-.17a5.38,5.38,0,0,0-2.65-2.12c-.37,5-3.79,9.22-7.76,12.06a22.51,22.51,0,0,1-12.69,4.18,21.88,21.88,0,0,1-14.84-6.29,22.32,22.32,0,0,1,3-34.47Z"/><path class="cls-1" d="M245.3,128.16c8-.46,16-.57,24-.79.05,1.62.21,3.23.19,4.85l-.64.52c-7.78,0-15.53.6-23.31.65A49.93,49.93,0,0,1,245.3,128.16Z"/><path class="cls-1" d="M19,130.24a15.91,15.91,0,0,1,4.79-.48c.52,6,.43,12.12,1,18.17-8,.59-16,.74-24.06,1.13-.22-6-.75-12-.68-17.94,1.49-.53,3.18-.16,4.75-.29,0,4.26.22,8.51.57,12.75,1.51,0,3-.09,4.54-.08a107.33,107.33,0,0,0-.5-11.17,14.32,14.32,0,0,1,4.89-.37c.27,3.7.19,7.41.52,11.11,1.59.15,3.2-.09,4.8-.07C19.54,138.75,19.36,134.49,19,130.24Z"/><path class="cls-1" d="M249.92,140.36a13,13,0,0,1,15.67,2.44c5,5.29,3.88,14.63-1.75,19-1.29-1.2-2.44-2.52-3.6-3.84,2.17-2,4.18-4.95,3.36-8.06-.94-4.18-5.94-6.55-9.88-5.21a6.65,6.65,0,0,0-4.75,5.18c-.72,2.53.53,5,2,7-1.3,1-2.59,2-3.84,3C241.76,154.47,243.14,144.1,249.92,140.36Z"/><path class="cls-1" d="M103.35,169.66c3-3,7.77-3.79,11.92-3.3a109,109,0,0,1,2.8,19.07c0,.67.7,1,1.06,1.47a8.23,8.23,0,0,1,2.59,7.71c-.91,2.18-2.9,4.3-5.46,4.09-2.27.27-4.28-.88-6.21-1.9a44.31,44.31,0,0,1,.43,7.65c-13.66-.08-27.34.06-41-.07.08-8.57,1.41-17.28,5-25.12,2.1-4.43,5.11-8.71,9.56-11a13.37,13.37,0,0,1,12.68.08c3,1.51,5.35,4.08,7.95,6.2C104.4,172.86,103.75,171.29,103.35,169.66Z"/><path class="cls-1" d="M13.84,195.81c4.7-2.67,9.47-5.22,14.09-8,2.17,3.5,4,7.17,6.14,10.7a27,27,0,0,1-2.93,1.65c-1.43-2.48-2.78-5-4.27-7.47-.86.48-1.72,1-2.6,1.43,1.07,2.33,2.55,4.44,3.62,6.77q-1.41.77-2.8,1.57c-1.3-2.14-2.51-4.35-3.7-6.56-1,.46-1.9.93-2.84,1.42,1.31,2.62,2.8,5.15,4.28,7.68a16.27,16.27,0,0,1-3,1.57C17.86,202.95,15.76,199.43,13.84,195.81Z"/><path class="cls-1" d="M235.78,203.71c-2-4.77,1.31-10.71,6.33-11.75.36,1.1.71,2.21,1.08,3.31-2.08.76-4.33,2.26-4.45,4.7-.33,3.93,4.89,7,8,4.47,1.91-1.39,2.18-3.88,1.9-6.05,1.07-.13,2.13-.29,3.21-.44a9,9,0,0,1-5.17,10.63A8.63,8.63,0,0,1,235.78,203.71Z"/><path class="cls-1" d="M22.28,210.34c4.36-3.23,8.58-6.67,13-9.75a30.13,30.13,0,0,1,2,2.58c-1.09,3.92-2.24,7.84-3.29,11.78,2.61-1.84,5.16-3.79,7.65-5.79a15.16,15.16,0,0,1,2.31,3c-4.31,3.27-8.66,6.5-12.94,9.82-.64-.84-1.28-1.66-1.93-2.48,1.05-4.11,2.37-8.14,3.34-12.27-2.69,2-5.28,4.24-8.15,6C23.68,212.23,23,211.28,22.28,210.34Z"/><path class="cls-1" d="M230.62,205.41c4.31,3.26,8.54,6.63,12.91,9.83-.7,1-1.44,2.06-2.19,3.07-4.34-3.29-8.67-6.59-13-9.94C229.08,207.35,229.83,206.37,230.62,205.41Z"/><path class="cls-1" d="M226.35,211c1.15-1.65,2.34.93,3.41,1.48-1.15,1.2-2.3,2.4-3.37,3.66,3.16,2.88,6.34,5.74,9.46,8.68-.84.87-1.65,1.77-2.43,2.69-3.24-2.76-6.38-5.66-9.42-8.65-1.13,1-2.06,2.26-3.25,3.21a3.39,3.39,0,0,1-2.56-2.12C220.85,216.9,223.61,213.94,226.35,211Z"/><path class="cls-1" d="M37.16,224.74c.16-4.5,4.61-8.19,9.05-7.79a8.81,8.81,0,0,1,8.1,8.87c-1.13.13-2.26.21-3.39.29-.26-2-1-4.29-3-5.14-3.41-1.64-7.66,1.82-7,5.47.28,2.75,3.19,4.08,5.64,4.32,0,1,0,2.07,0,3.11C41.44,234.56,36.65,229.74,37.16,224.74Z"/><path class="cls-1" d="M57.24,225.34a22,22,0,0,1,3,2.23c-1.69,2.22-3.37,4.46-5.07,6.67a6.23,6.23,0,0,0-1.61,3.37,4.08,4.08,0,0,0,2.89,3.19c1.43.44,2.73-.61,3.53-1.68,1.91-2.45,3.74-5,5.6-7.44a27.24,27.24,0,0,1,3.08,2.25c-2.09,2.55-4,5.27-6,7.83a7.11,7.11,0,0,1-4.07,2.65c-3.52.52-7.06-1.92-8.38-5.12-1-2.21,0-4.62,1.37-6.43C53.45,230.34,55.35,227.85,57.24,225.34Z"/><path class="cls-1" d="M62.89,249.48c2.57-4.8,5.35-9.47,8-14.23,3.59,2,7.18,4.06,10.76,6.12q-.85,1.41-1.67,2.84c-2.54-1.36-5-2.81-7.53-4.26A20.43,20.43,0,0,0,71,242.77c2.2,1.18,4.38,2.42,6.54,3.67l-1.68,2.89c-2.17-1.29-4.39-2.5-6.58-3.74-.57.9-1.09,1.83-1.58,2.77,2.51,1.42,5,2.89,7.54,4.24a32.89,32.89,0,0,1-1.56,3C70,253.59,66.48,251.51,62.89,249.48Z"/><path class="cls-1" d="M83.55,242.47c1.11.39,2.45.57,3.26,1.47,1.1,3.62,2.07,7.3,3,11,.88-.25.93-1.25,1.28-1.93.89-2.19,1.67-4.43,2.73-6.54,1.1.45,2.21.91,3.3,1.4-2.09,5-4.11,10-6.08,15.09a30.41,30.41,0,0,1-3-1.29c-1-3.81-2-7.64-3.15-11.42l-.56.16c-1.16,2.76-2.24,5.56-3.34,8.36a9.3,9.3,0,0,1-3.45-1.43C79.61,252.38,81.69,247.46,83.55,242.47Z"/><path class="cls-1" d="M98.6,248.4c4.45.84,8.77,2.23,13.2,3.2-.22,1.13-.48,2.25-.78,3.37-1.6-.26-3.22-1.2-4.83-.92-1.14,4-2,8.15-3.17,12.19-1.13-.3-2.25-.59-3.38-.86.73-4.25,2.19-8.36,3-12.6-1.54-.34-3.06-.72-4.58-1.1C98.19,250.58,98.39,249.49,98.6,248.4Z"/><path class="cls-1" d="M113.56,252.19c2.63-.18,5.34.54,8,.78s5.21,2.41,4.87,5.2a5.29,5.29,0,0,1-3.87,5.55c1,2,2.11,4,3.08,6.09-1.44-.12-2.86-.31-4.28-.53-.87-1.84-1.81-3.66-2.7-5.49l-2.75-.37c-.16,1.72-.4,3.43-.62,5.14q-1.82-.26-3.63-.46C112.31,262.82,113,257.51,113.56,252.19Zm3.31,3.74c-.27,1.38-.39,2.79-.6,4.18a20.28,20.28,0,0,0,4.8.51c1.64-.29,1.93-2.22,1.31-3.5C120.9,255.91,118.68,255.83,116.88,255.94Z"/><path class="cls-1" d="M135.34,253.58c4.14-1,9.06,1.22,10.28,5.47a8.47,8.47,0,0,1-5.72,10.8c-4.39,1.44-9.77-1.16-10.87-5.76C127.7,259.57,130.63,254.39,135.34,253.58Zm.58,3.37c-3.45,1-4.49,5.84-2,8.33a4.73,4.73,0,0,0,7.8-1.42C143.65,260.32,139.79,255.58,135.92,257Z"/><path class="cls-2" d="M178.1,12.71c1.59.68,3.22,1.29,4.87,1.85-1.93,5.79-4.44,11.37-6.32,17.18a19,19,0,0,1-5.19-1.85C173.82,24.22,175.78,18.4,178.1,12.71Z"/><path class="cls-2" d="M189.05,17l4.6,2.45c-.3.68-.58,1.37-.87,2.06a6.76,6.76,0,0,1,7.06,1.13c2.39,1.75,2.5,5.26,1.19,7.7-1.94,3.7-3.95,7.36-6,11-1.52-.89-3-1.77-4.61-2.58,1.69-3.45,3.74-6.71,5.4-10.17.82-2.2-1.44-4.37-3.6-4-1.49.46-2.3,1.89-3,3.18-1.36,2.66-2.91,5.22-4.22,7.9a49.25,49.25,0,0,1-4.69-2.33,20.74,20.74,0,0,1,1.91-3.86Q185.64,23.23,189.05,17Z"/><path class="cls-2" d="M197.81,43.15q5.83-7.2,11.67-14.4c1.36,1.2,2.81,2.27,4.17,3.48-.48.54-1,1.08-1.43,1.63,2.24-.26,4.68.09,6.27,1.84a5.8,5.8,0,0,1,.8,7.72c-2.56,3.58-5.59,6.81-8.18,10.37a29.66,29.66,0,0,1-4.27-3.46c2.18-2.52,4.21-5.16,6.34-7.73.77-1,1.78-2.37,1-3.65-.75-1.83-3.38-2.9-4.88-1.28-2.63,2.78-4.82,6-7.35,8.83C200.56,45.4,199.18,44.28,197.81,43.15Z"/><path class="cls-2" d="M223.07,47.6c6-2,12.6,2.87,13,9,.66,5.51-4.41,10.65-9.9,10.25a10.34,10.34,0,0,1-9.65-11.75A9.54,9.54,0,0,1,223.07,47.6Zm1.16,5.12c-3,1.48-4,6-1.16,8.16,3,2.82,8.33-.32,8.13-4.21C231.12,53.39,227.12,50.81,224.23,52.72Z"/><path class="cls-2" d="M241.5,61.33c1,1.62,2.35,3.17,2.76,5-2.64,3.15-5.58,6.07-8.06,9.35,4.07-.85,8.16-1.62,12.22-2.58,1,1.57,1.91,3.2,2.92,4.77C244.75,79,238.16,80,231.56,81c-.88-1.28-1.55-2.69-2.42-4C233.13,71.7,237.39,66.57,241.5,61.33Z"/><path class="cls-2" d="M116.29,65.21c10.53-2.63,22.45,1.38,28.89,10.21-.82.14-1.64.27-2.44.47a37.82,37.82,0,0,0-11.17,4.21,23.15,23.15,0,0,0-10,13.18,21.39,21.39,0,0,0,3.7,19.59c1.21,1.82,3.13,3,4.42,4.7a30,30,0,0,1-6.63.86c-.63,5.77-6.46,11.56-12.5,9.56.64-1.6,1.95-2.82,2.59-4.42A13.54,13.54,0,0,0,114.2,117c-1.69-.6-3.67-.34-5.35-1.19-6-2.28-9.55-8.27-11.29-14.16-2.19-7.16-2.25-15.23,1-22.06A26.11,26.11,0,0,1,116.29,65.21Z"/><path class="cls-2" d="M248.53,85.24c1.1-.8,2.14-1.68,3.17-2.56a15,15,0,0,1,4.91,9.55C257,95.29,254.74,98,252,99c-3.56,1.41-7.16,2.7-10.74,4.05a35.55,35.55,0,0,1-1.75-4.84l1.33-.63a8,8,0,0,1-3.8-9.23c1.27-3.49,6.44-4.66,9.07-2a12.45,12.45,0,0,1,3.25,8.15,2.93,2.93,0,0,0,2.34-2.82C251.49,89.21,249.92,87.19,248.53,85.24Zm-7.43,5.92c-.89,2.95,2.57,6.67,5.45,4.48-.29-2-.72-4.41-2.61-5.61C242.85,89.48,241.7,90.27,241.1,91.16Z"/><path class="cls-2" d="M131.08,84.5l.92-.67a3.64,3.64,0,0,1,1.5,3.67C131.66,88.48,131.37,85.76,131.08,84.5Z"/><path class="cls-2" d="M137.51,84.16a1.42,1.42,0,0,1,1.48.47,3,3,0,0,1-.75,2.65C136.34,87.7,137.57,85.11,137.51,84.16Z"/><path class="cls-2" d="M141.42,89a23.07,23.07,0,0,1,2.38-1.89c.29.4,1.1.63.89,1.25a6.15,6.15,0,0,1-2.06,2C141.54,90.5,141.14,90,141.42,89Z"/><path class="cls-2" d="M126,89.34c.26-.47.32-1.57,1.13-1.24,1.11.4,3.17,1.27,2.21,2.74C128,91.29,127,89.89,126,89.34Z"/><path class="cls-2" d="M145.7,93.23c1.15-.32,1.83,1.78.5,1.81-1.06.06-2.77.73-3.21-.66C143.23,93.15,144.77,93.46,145.7,93.23Z"/><path class="cls-2" d="M124.09,94.7a13,13,0,0,1,4-.52l.11,1.47c-1,.2-2,.34-3,.56A8.42,8.42,0,0,1,124.09,94.7Z"/><path class="cls-2" d="M142.34,98.41a3.84,3.84,0,0,1,2.52,1.3c.7.53.37,1.84-.63,1.58S140.68,99.62,142.34,98.41Z"/><path class="cls-2" d="M126.8,100.6c.79-.76,1.82-2.09,3-1.43.61,1.64-1.4,2.2-2.34,3.1C127.08,101.8,126.18,101.3,126.8,100.6Z"/><path class="cls-2" d="M132,105.41c.12-1.3,0-3.08,1.4-3.7,1.65.72.4,2.65,0,3.83Z"/><path class="cls-2" d="M175.85,127.67c8.07-6.14,20.49-5.47,27.74,1.67a21.16,21.16,0,0,1,6.86,16.76c0,10.11-8.27,19.35-18.27,20.68a21.19,21.19,0,0,1-19.09-7.44c-2.89-3.2-4.21-7.42-5.31-11.5,6,1.14,12.73-.26,17.1-4.79-5.82,1.47-12.14,1.81-17.8-.51A31.8,31.8,0,0,1,168.2,138c-1.16-1.75-2.37-3.71-2-5.91.53-2,2.66-2.87,4.48-3.27S174.44,129,175.85,127.67Z"/><path class="cls-2" d="M127.25,143.31c-1.33-2.24,1.77-5.05,3.89-3.43,3.25,2.94,5.92,6.51,9.32,9.31.46-2.59,3.07-4.87,5.76-3.89-.23,2.74-1.18,5.52-.92,8.34.23,2,.6,4.17-.47,6-2,3.93-7.68,5.12-11.21,2.55-2.86-2.73-7.25-2.19-10.57-4a2.45,2.45,0,0,1,1.24-4.13c2.21.05,4.27,1.11,6.43,1.54-2.34-2.2-5.57-3.08-8.14-5a2.68,2.68,0,0,1,.77-4.35c1.27-.75,2.59.16,3.7.78,2.3,1.26,4.55,2.62,6.89,3.81C132.21,147.92,129.17,146.07,127.25,143.31Z"/><path class="cls-2" d="M136.54,168.23a19,19,0,0,1,14.62-5.29c1.36,5.63,5.46,10.19,10.29,13.19,3.6-2.19,7.32-4.19,11-6.33,4.08-2.78,10.08-3.29,14.09-.12,3.2,2.88,4.19,7.39,4.48,11.51a70.31,70.31,0,0,1-2.82,23.29c-12.41-.11-24.83,0-37.24,0a58,58,0,0,1,2.18-7c-2-.24-4.18-.17-5.7-1.64a6.56,6.56,0,0,1-2.14-5.56,12,12,0,0,1,4.84-7.66C144.9,178.51,139.85,174,136.54,168.23Z"/><path class="cls-2" d="M13.42,168.25c.89-1.52,2.67-2,4.26-2.39,2.31.34,4.64,1.66,5.05,4.16,1.09,3.7-3,7.48-6.59,6.07A5.17,5.17,0,0,1,13.42,168.25Z"/><path class="cls-2" d="M246.82,176.49c2.27-.51,5,.47,6,2.73a5.22,5.22,0,0,1-3,7.18,5.17,5.17,0,1,1-3-9.9Z"/><path class="cls-2" d="M216.55,226.38a4.74,4.74,0,0,1,6,1c1.75,2,3.51,3.91,5.13,6-.85.67-1.66,1.38-2.47,2.11l-1.19-.28c-.21,2.91-3.9,5.39-6.55,3.73a4,4,0,0,1-1.71-4.44c.65-2.09,2.55-3.41,4.45-4.27a1.74,1.74,0,0,0-2-.88c-1.63.58-2.6,2.12-3.49,3.5-.84-.43-1.66-.86-2.48-1.3A9.88,9.88,0,0,1,216.55,226.38Zm2.75,9.48c2.29,1,4.42-2.45,2.55-4.11C220.23,232.24,217.66,234.06,219.3,235.87Z"/><path class="cls-2" d="M207.45,233.76a25.28,25.28,0,0,1,3.16-2.12c.94,4.39,2.14,8.72,3.11,13.12-.89.6-1.76,1.23-2.62,1.88-3.76-2.54-7.62-4.94-11.28-7.62q1.58-1.09,3.2-2.14c2.26,1.74,4.54,3.44,6.87,5.08C209,239.23,208.29,236.48,207.45,233.76Z"/><path class="cls-2" d="M195.49,241.55c3.67-.91,7.76,2,7.8,5.87.48,4.6-4.66,8.38-9,6.92a6.51,6.51,0,0,1-3.8-9A7,7,0,0,1,195.49,241.55Zm.61,3.22a2.94,2.94,0,0,0-2.7,3.22c-.07,2.7,3.66,4.59,5.56,2.4C201.22,248.37,198.95,244.31,196.11,244.76Z"/><path class="cls-2" d="M179.35,250.54a4.34,4.34,0,0,1,5.9-2.61c1.56.68,2.09,2.42,2.7,3.86a65.87,65.87,0,0,1,2.41,6.48,19.33,19.33,0,0,1-3.37,1c-1-2.32-1.71-4.74-2.87-7-.81-1.79-3.81-.87-3.7,1,.38,2.75,2.13,5.09,2.66,7.82-1.09.4-2.18.81-3.25,1.23-1.5-3.9-3.16-7.73-4.6-11.65,1.06-.4,2.1-.82,3.16-1.23C178.72,249.83,179,250.18,179.35,250.54Z"/><path class="cls-2" d="M154.52,251.34l3.49-.48q.16,1.5.33,3l-2.89.59-.57.12C154.76,253.5,154.64,252.43,154.52,251.34Z"/><path class="cls-2" d="M165.85,254.71a4.44,4.44,0,0,1,6.21-1.73c1.24.74,1.63,2.22,2,3.52.63,2.42,1.34,4.82,1.89,7.25-1.13.27-2.25.58-3.37.92-.94-2.51-1.24-5.22-2.31-7.67-.89-1.76-4.1-.85-3.78,1.2.4,2.58,1.45,5,1.89,7.59-1.13.29-2.25.61-3.36.94-1.23-4-2.11-8.06-3.41-12C163.05,254.4,164.79,253.11,165.85,254.71Z"/><path class="cls-2" d="M155.2,255.79a36.62,36.62,0,0,1,3.67-.59c.43,4.13,1.63,8.14,2,12.28q-1.67.27-3.32.62C156.62,264,156,259.89,155.2,255.79Z"/><path class="cls-2" d="M145.18,75.42a27.3,27.3,0,0,1,15.31,1.72,34.48,34.48,0,0,0-15.34-1.5c-.81.09-1.61.22-2.41.25C143.54,75.69,144.36,75.56,145.18,75.42Z"/><path class="cls-2" d="M137.5,83.67l1.91,0c-.06,1.37-.37,2.72-.41,4.1a4.49,4.49,0,0,1-2.09-.44C137.06,86.08,137.28,84.88,137.5,83.67Zm0,.48c.06.95-1.16,3.54.73,3.13a3,3,0,0,0,.75-2.65A1.42,1.42,0,0,0,137.51,84.16Z"/><path class="cls-2" d="M124.09,94.7c1.09-1,2.68-.42,4-.52A13,13,0,0,0,124.09,94.7Z"/><path class="cls-2" d="M154.23,251.1a19.23,19.23,0,0,0,4-.46c.19,1.13.32,2.27.41,3.42-1.07.12-2.13.26-3.2.42l2.89-.59q-.17-1.52-.33-3l-3.49.48c.12,1.08.25,2.16.36,3.25A12.72,12.72,0,0,1,154.23,251.1Z"/></g></g></svg>