<svg xmlns="http://www.w3.org/2000/svg" viewBox="0 0 269.49 268.25"><defs><style>.cls-1{fill:#ffab00;}.cls-2{fill:#00b0ff;}</style></defs><title>EvaluacionIntegral</title><g id="Layer_2" data-name="Layer 2"><g id="Layer_1-2" data-name="Layer 1"><path class="cls-1" d="M126.88,0c6,.18,11.94.34,17.91.33a42.71,42.71,0,0,0-.13,4.84c-4.24-.31-8.49-.23-12.73-.29,0,1.55,0,3.1,0,4.65,3.72.26,7.44,0,11.15.24,0,1.57,0,3.15,0,4.72-3.78.07-7.55-.1-11.32-.2,0,1.64,0,3.28,0,4.92,4.31.26,8.64.06,12.95.26q-.06,2.35,0,4.71c-2.71,0-5.43.1-8.14-.09-3.3-.26-6.61-.11-9.92-.16C126.78,16,126.75,8,126.88,0Z"/><path class="cls-1" d="M96.95,5.08c6.53-1.28,13-2.79,19.53-4.08.27,1.62.61,3.23,1,4.83-2.38.53-4.78,1-7.13,1.62,1.37,6.17,2.74,12.34,3.94,18.54-1.74.13-3.58,1.2-5.28.77-1.23-6.1-2.66-12.15-3.79-18.26-2.41.43-4.79,1-7.19,1.45C97.65,8.34,97.31,6.7,96.95,5.08Z"/><path class="cls-1" d="M153.73,8.95a12.17,12.17,0,0,1,11.19-5.67A15,15,0,0,1,175.78,9c-1.39,1.16-2.85,2.23-4.3,3.31-1.91-2.48-4.92-4.51-8.18-3.89-5.29.94-8,8.3-4.32,12.32,2.12,2.6,5.78,3,8.86,2.3.29-1.13.57-2.26.83-3.4-1.7-.41-3.4-.81-5.12-1.17.31-1.55.7-3.09,1.13-4.61,3.32.84,6.66,1.62,10,2.42a98.28,98.28,0,0,1-2.37,10.2c-6.06,3.37-14.84,2-18.75-4A13,13,0,0,1,153.73,8.95Z"/><path class="cls-1" d="M82.08,10.73c1.58-.79,3.19-1.53,4.78-2.3,3.44,7.23,6.93,14.44,10.27,21.72-1.39.6-2.69,1.54-4.2,1.81-5.63-2.7-11.11-5.73-16.69-8.57,2.17,4.52,4.25,9.09,6.49,13.58-1.61.8-3.23,1.59-4.87,2.31-3.35-7.28-7-14.44-10.22-21.76,1.93-.54,3.89-2.8,5.88-1.34Q80.89,20,88.27,23.82C86.22,19.45,84.14,15.09,82.08,10.73Z"/><path class="cls-1" d="M188.16,10.73c3.56,1.91,7.22,3.67,10.74,5.66a8.54,8.54,0,0,1,4,4.6c1.15,3.07-.31,6.59-2.61,8.72-1.61,1.5-3.91,1.72-6,1.71.45,3.39.85,6.8,1.26,10.19-1.87-.89-3.71-1.87-5.55-2.83-.31-3-.67-6.07-1-9.11-1.2-.62-2.4-1.27-3.58-1.91-1.13,2.29-2.39,4.51-3.54,6.79-1.59-.84-3.21-1.63-4.8-2.49Q182.65,21.41,188.16,10.73Zm-.53,12.74c2.1,1.06,4.06,2.54,6.38,3.07,2.63.6,5-3.08,3.08-5.09-1.72-1.83-4.24-2.54-6.33-3.83C189.65,19.53,188.65,21.51,187.62,23.47Z"/><path class="cls-1" d="M53.65,27.28c1.46-1,2.91-2.07,4.33-3.14,4.77,6.43,9.4,13,14.18,19.4-1.44,1.11-2.91,2.2-4.42,3.23C63.09,40.24,58.27,33.83,53.65,27.28Z"/><path class="cls-1" d="M198,43.13c7.85-3.88,15.81-7.54,23.65-11.46,1.18,1.06,2.46,2,3.55,3.18a4.45,4.45,0,0,1-.35,2c-2.56,7.7-5.15,15.39-7.6,23.13-1.48-1.2-2.9-2.47-4.29-3.76.66-1.79,1.25-3.61,1.92-5.41-2.54-2.14-5-4.37-7.49-6.59-1.77.82-3.51,1.7-5.24,2.58Zm14-1.34a55.17,55.17,0,0,0,4.65,4q1.22-3.84,2.61-7.63Q215.6,40,211.95,41.8Z"/><path class="cls-1" d="M220.39,63.3c6.31-4.55,12.64-9.08,18.93-13.64,1,1.49,2.13,2.95,3.2,4.41q-7.8,5.56-15.55,11.2,3.58,4.79,7,9.69-2,1.34-4,2.81c-3.21-4.3-6.27-8.7-9.44-13C220.25,64.37,219.71,63.6,220.39,63.3Z"/><path class="cls-1" d="M100.07,72a2.88,2.88,0,0,1,4.25.11c2.73,2.67,5.42,5.38,8.11,8.09a3.18,3.18,0,0,1,0,4.68c-6.17,6.26-12.46,12.39-18.6,18.68-5.56,5.46-11,11-16.56,16.5-2.14,2.11-4.23,4.25-6.36,6.36A13.31,13.31,0,0,1,66,129.23a119.57,119.57,0,0,1-12.48,4.06c-.79.32-1.53-.22-2.28-.38a23,23,0,0,1,1-4.63,114.41,114.41,0,0,1,4.28-12,7.85,7.85,0,0,1,1.81-2.46q3.79-3.76,7.55-7.53c1.66-1.7,3.34-3.38,5-5.05l1.49-1.48c1.9-1.92,3.79-3.83,5.71-5.72.92-.89,1.81-1.8,2.71-2.7q3-3.09,6.12-6.12C91.3,80.81,95.67,76.4,100.07,72ZM56.76,123c1.16,2,3.24,3.37,4.76,5.12,2.38-.92,4.78-1.81,7.06-3-2.74-3.24-6-6-8.85-9.12A27.23,27.23,0,0,0,56.76,123Z"/><path class="cls-1" d="M151.13,250.86c3.63-2,8.32,1.7,7.32,5.66-.53,3.86-5.89,5.55-8.57,2.78A5.19,5.19,0,0,1,151.13,250.86Z"/><path class="cls-2" d="M31,48.91c1.27-1.14,1.89-3.38,3.56-3.87,6.34,4.67,12.56,9.51,18.84,14.26-.75,1-1.49,1.93-2.21,2.92l-.57,0c-3-.13-5.94,0-8.92,0s-6.25-.39-9.25.57l-.95.23.6.37c3.92,2.83,7.75,5.79,11.55,8.78l-3.2,4.18q-9.64-7.21-19.17-14.56c1.06-1.32,2.06-2.68,3.11-4,6,0,12,.09,18-.06C38.57,54.74,34.66,51.95,31,48.91Z"/><path class="cls-2" d="M109.2,63a3.07,3.07,0,0,1,3.51.74q4.07,4.06,8.13,8.15a3.23,3.23,0,0,1-.09,4.7c-1.32,1.53-3.3,3.55-5.5,2.3-2.63-2.16-4.84-4.8-7.33-7.13-1.24-1.28-3.2-2.7-2.46-4.75A9.18,9.18,0,0,1,109.2,63Z"/><path class="cls-2" d="M4.07,78.82c1.21-1.17,2.48-2.28,3.66-3.48.48,1.9,1,3.81,1.46,5.71-.53,1.3-1.06,2.6-1.57,3.91C6.44,82.91,5.26,80.86,4.07,78.82Z"/><path class="cls-2" d="M17.64,76a12.52,12.52,0,0,1,15.14,6.32c3.27,6.6-.3,15.61-7.34,17.95A12.67,12.67,0,0,1,10.29,94.1C6.85,87.48,10.52,78.32,17.64,76Zm2.84,4.92A7.46,7.46,0,0,0,14,88.45c.31,4.39,5,7.71,9.28,6.76a7.32,7.32,0,0,0,5.64-7.74A7.89,7.89,0,0,0,20.48,80.92Z"/><path class="cls-2" d="M81,85.32a4.32,4.32,0,0,1,5.88-.13q-3.09,3-6.12,6.12C80.16,89.39,79.42,87,81,85.32Z"/><path class="cls-2" d="M237.1,91.64C244.74,89.29,252.4,87,260,84.5c1,3.14,2,6.31,3,9.47,1.07,4,.56,8.58-2.23,11.76a12.59,12.59,0,0,1-12.64,3.61,12.41,12.41,0,0,1-8-8C239,98.1,238.09,94.86,237.1,91.64Zm6.26,3.74c.94,2.6,1.34,5.69,3.66,7.5,3.69,3.14,10.07.75,11.27-3.8.79-2.68-.69-5.29-1.36-7.83C252.38,92.49,247.88,94,243.37,95.38Z"/><path class="cls-2" d="M68.68,92.91c-.36-3,3.16-5.14,5.75-3.75,1.72,1.15,2.44,3.24,3.63,4.86-1.92,1.89-3.81,3.8-5.71,5.72C71.17,97.44,69.19,95.48,68.68,92.91Z"/><path class="cls-2" d="M138.31,96.32a31.27,31.27,0,0,1,33.22-2.45A31,31,0,0,1,143.28,149a31.79,31.79,0,0,1-15.59-17.1c9.68,1.6,19.64-1.86,27.33-7.68-2.44,0-4.87.31-7.3.19a30.21,30.21,0,0,1-20.82-9.76c-.31-1.55.61-3.1.92-4.6-1.41-2.63-3.15-5.62-2.26-8.7s4.67-4,7.56-4.25C134.83,96.83,136.88,97.6,138.31,96.32Z"/><path class="cls-2" d="M64,103.1c-.48-2.29,1.93-4.35,4.12-3.9,1.2.19,2,1.23,2.79,2-1.69,1.67-3.38,3.35-5,5.05C65.08,105.3,63.93,104.44,64,103.1Z"/><path class="cls-2" d="M93.85,103.58c2.58-2.13,7-2.44,9.09.54-3.45,3.65-6.72,7.67-8.48,12.43a9.76,9.76,0,0,1-8.18,6.19,12.25,12.25,0,0,1-9-2.66C82.84,114.61,88.29,109,93.85,103.58Z"/><path class="cls-2" d="M207.34,104a4,4,0,0,1,4.39-1.25,4,4,0,0,1,1.92,5.52c-2.07,3.37-5,6.32-6.11,10.2,1.47-1.49,2.63-3.25,4.08-4.77a3.89,3.89,0,0,1,5.92.39,4.2,4.2,0,0,1,.37,3.86,27,27,0,0,1-3.42,4.15c1.14,2.14,2.27,4.43,2.07,6.94a10.73,10.73,0,0,1-7.9,10.43,10.92,10.92,0,0,1-13.08-6.24c-.94-1.94-.5-4.2-1.37-6.15-.64-1.74-1.68-3.32-2.2-5.11-.09-1.7,1.87-1.93,3.08-2.34,1,.29,2,.62,3,1A54,54,0,0,1,207.34,104Z"/><path class="cls-2" d="M3.41,105.94c7.88,1.46,15.72,3.13,23.6,4.58-.36,1.76-.72,3.52-1,5.29q-11.78-2.33-23.56-4.6C2.72,109.44,3.09,107.69,3.41,105.94Z"/><path class="cls-2" d="M252.91,117.31a12.8,12.8,0,0,1,12,2.14c5.8,4.55,6.18,14.21.87,19.28-5.22,5.29-15.18,4.28-19.06-2.14C242.3,130.08,245.13,119.69,252.91,117.31Zm2.8,5.07a7.22,7.22,0,0,0-6.06,7.07,7.06,7.06,0,0,0,5.79,7c4.51,1.09,9.5-2.81,9.08-7.54C264.34,124.61,259.79,121.51,255.71,122.38Z"/><path class="cls-2" d="M92.37,125.38a35.49,35.49,0,0,1,10.28-4.8,67,67,0,0,0,13.64,16.07,119.62,119.62,0,0,0,28.06,17.7c2.18.89,3.7,2.78,5.72,3.91,7,2.68,15,4.32,22.38,1.89,5.16-1.58,9.3-5.45,12.18-9.92a44.42,44.42,0,0,0,6.24-14,82.2,82.2,0,0,1,17,9.28c-3.75,8.48-8.1,16.93-14.7,23.58s-16.38,9.2-25.57,9.51a64.33,64.33,0,0,1-7.61-.84,107.09,107.09,0,0,1,4.14,28.45c-17-.07-34.05,0-51.08,0a104.42,104.42,0,0,1,4.23-28.43,56.7,56.7,0,0,1,8.21-17.07,70.6,70.6,0,0,1-25.44-14.79c-4.8-4.53-9.35-9.49-12.55-15.3C88.45,128.36,90.55,126.83,92.37,125.38Z"/><path class="cls-2" d="M3.34,121.81,4,121.4a39.58,39.58,0,0,1,3.82,3.23c-1.81,2.06-3.43,4.73-2.73,7.6.85,4.12,5.71,6.48,9.58,5.21a6.81,6.81,0,0,0,5.16-6.88c.1-2.3-1.34-4.23-2.7-5.92l3.57-3.36c5.7,4.94,5.49,15.07-.59,19.6a13.12,13.12,0,0,1-15.57-.2C-1.07,136.28-1.5,126.95,3.34,121.81Z"/><path class="cls-2" d="M4.72,161.38c6.55-4.76,13.12-9.5,19.61-14.33a42,42,0,0,1,1.24,5.51,44.78,44.78,0,0,1-4.6,3.3q1.07,4.91,2.26,9.8c1.9.27,3.79.62,5.69.9.43,1.78.82,3.56,1.22,5.35-8.61-1.56-17.24-3-25.85-4.59-.38-1.53-.8-3-1.07-4.59C3.51,162.11,4.21,161.81,4.72,161.38Zm5.54,2.21,7.87,1.27c-.48-1.93-.84-3.88-1.39-5.79A53.07,53.07,0,0,0,10.25,163.58Z"/><path class="cls-2" d="M248.43,150.53c6.09-3.07,14.34-.26,17.09,6A13.86,13.86,0,0,1,260.7,173c-1.14-1.37-2.2-2.81-3.29-4.22,2.06-1.6,4-3.74,4.12-6.49.32-4.16-3.78-7.56-7.76-7.4a6.91,6.91,0,0,0-7,5.74c-.53,2.28.59,4.42,1.49,6.43-1.39.82-2.76,1.69-4.11,2.57C239.58,163.69,241.56,153.84,248.43,150.53Z"/><path class="cls-2" d="M238.32,173.58c7.35,3.27,14.58,6.81,21.88,10.2-2.65,5.38-5.13,10.85-7.69,16.28a42.49,42.49,0,0,1-4.43-2c1.84-3.84,3.59-7.72,5.45-11.55-1.41-.65-2.8-1.31-4.19-2-1.65,3.34-3.21,6.74-4.81,10.11-1.5-.61-3-1.27-4.4-2,1.62-3.36,3.14-6.76,4.8-10.1a37.2,37.2,0,0,0-4.49-2.07c-1.69,3.95-3.65,7.76-5.42,11.67-1.45-.68-2.91-1.34-4.35-2C233.12,184.57,235.84,179.13,238.32,173.58Z"/><path class="cls-2" d="M22.72,180.42c2.44-1.14,5.27-2,8-1.22,2.86.69,5,3,6.31,5.57s2.07,5.85,1,8.71-3.52,4.56-6,5.82c-4,2-7.83,4.1-11.81,6-.81-1.58-1.61-3.18-2.43-4.75,4.05-2.22,8.23-4.21,12.3-6.4,1.8-1,3.51-2.76,3.27-5-.33-2-1.48-4.05-3.49-4.68-1.52-.69-3.17.08-4.56.71-4.09,2.08-8.09,4.32-12.25,6.26-.8-1.6-1.63-3.19-2.39-4.8C14.62,184.64,18.66,182.52,22.72,180.42Z"/><path class="cls-2" d="M224.4,199.08c1.14-1.39,2.25-2.82,3.42-4.19,6.19,5.07,12.46,10,18.73,15q-1.49,1.91-3,3.82c-6.13.17-12.24-.4-18.36-.32,3.78,3,7.65,6,11.33,9.14-1.28,1.15-1.93,3.24-3.58,3.83-6.24-4.79-12.3-9.83-18.51-14.66.92-1.27,1.9-2.5,2.89-3.71,6.25.31,12.51.46,18.76.45C232.2,205.29,228.28,202.2,224.4,199.08Z"/><path class="cls-2" d="M39.91,200.65c1.26-1.06,2.53-2.1,3.81-3.14q5.52,6.68,11.05,13.35c-6.18,5.1-12.31,10.24-18.51,15.32-1.15-1.38-2.33-2.74-3.51-4.1,4.89-4.12,9.83-8.18,14.76-12.26C44.94,206.8,42.41,203.74,39.91,200.65Z"/><path class="cls-2" d="M57.69,214.47c1.52,1.12,3,2.27,4.52,3.44-.59,1.81-1,3.67-1.56,5.51,2.63,2.06,5.33,4,7.94,6.12,1.66-1,3.32-1.92,4.94-3A50.49,50.49,0,0,1,77.94,230c-7.63,4.29-15.22,8.64-22.85,12.94-1.3-1-2.63-2-3.93-3.06Q54.44,227.19,57.69,214.47Zm1.57,14c-.67,2.55-1.46,5.07-2,7.66,2.29-1.29,4.52-2.68,6.84-3.93C62.56,230.93,60.93,229.7,59.26,228.51Z"/><path class="cls-2" d="M200.85,222.88q2.12-1.62,4.19-3.3c4,4.87,7.87,9.93,11.8,14.9,1.93-1.46,3.84-3,5.75-4.45,1.06,1.3,2.08,2.62,3.11,3.95-5.22,4.09-10.45,8.16-15.61,12.32a20.73,20.73,0,0,1-3-4c1.78-1.57,3.7-3,5.59-4.4Q206.71,230.41,200.85,222.88Z"/><path class="cls-2" d="M174.38,238c5.42-2.83,11-5.36,16.47-8.1,3.53,7.17,7,14.38,10.53,21.55-5.38,2.79-10.88,5.33-16.31,8-.71-1.46-1.41-2.93-2-4.42,3.83-1.77,7.57-3.72,11.39-5.49-.64-1.41-1.3-2.81-1.94-4.22-3.48,1.5-6.78,3.37-10.26,4.87-.65-1.43-1.3-2.86-2-4.25,3.3-1.75,6.7-3.32,10-5-.67-1.45-1.39-2.88-2.08-4.32-3.9,1.8-7.74,3.74-11.59,5.64C175.86,240.89,175.14,239.46,174.38,238Z"/><path class="cls-2" d="M70.64,253.24C76.62,246.94,83,241,89,234.82c1.49.6,3,1.22,4.43,1.86-.33,8.64-.55,17.27-.6,25.92a45.74,45.74,0,0,1-5.61-2.25c.33-2.87.44-5.76.5-8.65s.54-6,.4-9c-4.07,4.25-8.1,8.53-12.16,12.79C74.22,254.78,72.44,254,70.64,253.24Z"/><path class="cls-2" d="M105.83,241.57c6,.8,12,2.08,18,3.1-1.28,7.87-3,15.68-4.05,23.57-6-1-12-2-18-3.26a36,36,0,0,0,.76-4.54c4.24.61,8.44,1.43,12.64,2.2A36.71,36.71,0,0,0,116,258c-3.67-.74-7.38-1.21-11-2.08a45.29,45.29,0,0,0,.77-4.56c3.74.44,7.4,1.35,11.13,1.86.41-1.52.59-3.1,1-4.63-4.24-1.07-8.6-1.5-12.86-2.49C105.31,244.6,105.5,243.07,105.83,241.57Z"/><path class="cls-2" d="M32.42,62.73c3-1,6.16-.53,9.25-.57s5.94-.1,8.92,0l.79.53C45.05,62.71,38.73,62.69,32.42,62.73Z"/><path class="cls-2" d="M31.47,63l.95-.23c6.32,0,12.64,0,19,0-3,.84-6.1.39-9.15.48-3.38-.06-6.77,0-10.15.1Z"/></g></g></svg>