<svg xmlns="http://www.w3.org/2000/svg" viewBox="0 0 269.49 174"><defs><style>.cls-1{fill:#0d3e67;}.cls-2{fill:#ffab00;}</style></defs><title>LiiD</title><g id="Layer_2" data-name="Layer 2"><g id="Layer_1-2" data-name="Layer 1"><path class="cls-1" d="M27,15.55a3.31,3.31,0,0,1,3.68-4.35c3.82,1,7.57,2.29,11.37,3.37l2.19.66c4.53,1.39,9.08,2.74,13.61,4.12l3,.91q10.7,3.23,21.41,6.45A4.18,4.18,0,0,1,85,28.46a3.31,3.31,0,0,1-2.45,5c-1.73,0-3.31-.91-5-1.11Q61.35,86,45.1,139.78a5.18,5.18,0,0,1-1.3,2.3q-13.77,15-27.51,30.11a5.79,5.79,0,0,1-10-3.36Q3.21,148.65.06,128.49c-.25-1.31.35-2.55.68-3.78Q15,77.41,29.29,30.11c1.1-3.86,2.44-7.66,3.38-11.56C30.68,17.9,27.83,17.85,27,15.55Zm12.06,5Q23,73.94,6.83,127.29c-.32,1.28.13,2.58.28,3.85,1.84,11.78,3.64,23.56,5.49,35.34,8.45-9.34,17-18.61,25.48-27.92a4.29,4.29,0,0,0,1-1.57C49.83,101.44,60.5,65.85,71.31,30.32c-4.88-1.55-9.8-3-14.71-4.46Q55.31,25.45,54,25l-.06.08c-3.65-1.18-7.35-2.21-11-3.37-.71-.17-1.44-.32-2.16-.46l0-.16Z"/><path class="cls-1" d="M110.58,39.19c2.55,0,5.11,0,7.67,0,0,2.22,0,4.44,0,6.66h-7.71C110.58,43.62,110.56,41.41,110.58,39.19Z"/><path class="cls-1" d="M125,45.81a46.27,46.27,0,0,1,.22-6.65c2.54.07,5.07,0,7.61,0,0,2.23,0,4.45,0,6.67C130.2,45.84,127.59,45.88,125,45.81Z"/><path class="cls-1" d="M81.39,40.59c2.49,0,5,0,7.46,0-.24,9-.08,18.06-.09,27.09,5.59.07,11.18,0,16.77,0,0,2.21,0,4.41,0,6.62-8.06,0-16.12,0-24.18,0,.36-3.81.09-7.64.17-11.47C81.46,55.46,81.76,48,81.39,40.59Z"/><path class="cls-1" d="M140.19,52.7c.18-4-.11-8.08.12-12.11,5.4.17,10.84-.3,16.22.34a16.76,16.76,0,0,1,13.56,10.18c1.32,3,1.14,6.37.92,9.56-1.11,7.74-8.51,13.63-16.21,13.66-4.91,0-9.82.08-14.72-.07C140.16,67.07,140.32,59.89,140.19,52.7Zm7.6-5.22q0,1.5,0,3c.11,2.67,0,5.34-.12,8,.27,3,.06,6.08.16,9.12,2,0,4.08,0,6.12,0A9.5,9.5,0,0,0,162,63a11.19,11.19,0,0,0,.14-10.62,9.57,9.57,0,0,0-7.81-4.89C152.18,47.41,150,47.49,147.79,47.48Z"/><path class="cls-1" d="M110.85,48.66c2.36,0,4.72,0,7.09,0,0,8.54,0,17.09,0,25.63q-3.57,0-7.14,0C110.86,65.73,110.82,57.19,110.85,48.66Z"/><path class="cls-1" d="M125.21,74.33c0-8.61,0-17.21,0-25.82,2.42,0,4.83,0,7.25,0,.12,7.91,0,15.82.05,23.72,0,.67.1,1.35.18,2C130.22,74.41,127.71,74.29,125.21,74.33Z"/><path class="cls-1" d="M181,77.31c2.46,0,4.92,0,7.38,0-.07,8.34,0,16.68,0,25a6.52,6.52,0,0,0,.29,1.93c5.5-.14,11,0,16.52-.08a55.43,55.43,0,0,0-.14,6.59c-8,.15-16-.23-24,.19C181.09,99.76,181.06,88.54,181,77.31Z"/><path class="cls-1" d="M81.08,77.51a70.55,70.55,0,0,0,7.31-.18c0,6.43,0,12.86,0,19.29A8.23,8.23,0,0,0,91,103.18a7.94,7.94,0,0,0,8.94.19,7.4,7.4,0,0,0,2.71-4.8,56.85,56.85,0,0,0,.27-8.2c0-4.3,0-8.59-.06-12.89q3.67,0,7.34,0c0,6.84,0,13.67,0,20.51-.19,4-1.67,8.2-5,10.68a15.49,15.49,0,0,1-9.87,2.85,15,15,0,0,1-10-3.17A13.63,13.63,0,0,1,81,98.93C81.25,91.79,81.05,84.65,81.08,77.51Z"/><path class="cls-1" d="M115.21,77.34c5.21.31,10.42.07,15.64.14,4.17-.07,8.35.15,12.52-.14-.27,2.17.08,4.35,0,6.54l-.9.35c-3.07,0-6.13,0-9.2-.2-.68,4.43.16,9-.22,13.43.22,4.5-.32,9,.14,13.5-2.58.06-5.17.06-7.75,0,0-4.5,0-9,0-13.5-.05-1.49,0-3,0-4.46-.13-3,.05-6-.13-9-3.38.16-6.76.13-10.14,0C115.23,81.8,115.24,79.57,115.21,77.34Z"/><path class="cls-1" d="M149,77.46c3,0,5.93,0,8.89,0,3.33,0,6.71-.22,10,.56a10.73,10.73,0,0,1,7.55,8.75c.21,2.58.26,5.33-1,7.67-1.9,3.86-6.16,6-10.3,6.34-2.58.16-5.18.06-7.77.06-.34,3.32-.12,6.66-.16,10-2.4,0-4.79,0-7.19,0C149,99.73,149,88.59,149,77.46ZM156.36,84c0,3.41,0,6.82,0,10.23,3-.23,6.26.6,9.07-.75,3.17-1.5,3.53-6.61.51-8.45S159.53,84.26,156.36,84Z"/><path class="cls-1" d="M102.57,114.95h1.5c0,2,0,4-.06,6,1-1,2.23-2.15,3.81-2,2.81-.23,5.12,2.45,5,5.15a5.19,5.19,0,0,1-4.6,5.52c-1.67.21-3.08-.86-4.21-1.94l0,1.64h-1.49C102.58,124.5,102.6,119.72,102.57,114.95Zm3.6,5.76a3.92,3.92,0,0,0-1.79,5.1,3.42,3.42,0,0,0,3.43,2.19c2.25.18,3.71-2.36,3.33-4.38C111,121.34,108.25,119.46,106.17,120.71Z"/><path class="cls-1" d="M175,115.32l1.85,0c0,.62-.07,1.25-.1,1.87C175.46,117.44,174.78,116.53,175,115.32Z"/><path class="cls-1" d="M206.87,114.93l1.69,0q0,7.13,0,14.26l-1.7.07c0-.45,0-1.35,0-1.8-1.29,1.61-3.49,2.66-5.51,1.79-3.84-1.33-4.43-7.19-1.21-9.5a5,5,0,0,1,6.74,1C206.84,118.86,206.88,116.89,206.87,114.93Zm-5.31,5.88c-2.79,1.56-2.17,6.64,1.08,7.16a3.69,3.69,0,0,0,4.29-3.88C207,121.51,203.85,119.29,201.57,120.81Z"/><path class="cls-1" d="M79.28,115.51l1.59,0c0,4.11,0,8.23,0,12.34,2.58,0,5.16,0,7.74,0,0,.48,0,1,0,1.46-3.11,0-6.22,0-9.34,0Q79.31,122.38,79.28,115.51Z"/><path class="cls-1" d="M147.42,118.95c0-1.05,0-2.09,0-3.14.65,0,1.89,0,1.68,1,0,.71,0,1.43,0,2.15l3.13,0,.12,1.32a14.58,14.58,0,0,1-3.25.23c.06,2.17-.1,4.34.07,6.5.41,1.35,2.16.62,3.17.71,0,2.64-4.58,2-4.85-.25s0-4.64-.08-7h-1.36c0-.53,0-1.05,0-1.57Z"/><path class="cls-1" d="M129.78,121.46a4.48,4.48,0,0,1,4.26-2.53c0,.55,0,1.1,0,1.66a4.19,4.19,0,0,0-3.51,1.79c-1.24,2.09-.69,4.63-.81,6.94l-1.63-.11c.07-3.06,0-6.12,0-9.18-.18-.95.93-1,1.57-1C129.69,119.81,129.73,120.63,129.78,121.46Z"/><path class="cls-1" d="M168.8,121.1a5.45,5.45,0,0,1,4-2.26c0,.59,0,1.18,0,1.77a4,4,0,0,0-3.15,1.48c-1.53,2.08-.72,4.81-.91,7.2l-1.7,0c0-3.39,0-6.78,0-10.17l1.66,0C168.76,119.74,168.78,120.42,168.8,121.1Z"/><path class="cls-1" d="M91.5,119.58c1.91-.51,4-1,5.92-.16a4,4,0,0,1,2,3.71c.06,2,0,4.08,0,6.13l-1.59,0c0-.31-.08-.91-.11-1.22-1.76,1.9-5.23,2.14-6.86,0a3.1,3.1,0,0,1,1.4-4.65,10,10,0,0,1,5.58,0,3,3,0,0,0-1.19-2.52c-1.58-1-3.49-.3-5.06.34C91.59,120.66,91.54,120.12,91.5,119.58Zm1.12,5.32a1.82,1.82,0,0,0,.66,3.09c2.26,1.12,5.28-1,4.53-3.56C96.11,124.42,94.07,123.72,92.62,124.9Z"/><path class="cls-1" d="M118.49,119.15c3.2-1.17,7.26,1.33,7,4.9.42,3.45-3.29,6.34-6.56,5.39a5.38,5.38,0,0,1-3.83-6.7A5.17,5.17,0,0,1,118.49,119.15Zm-1.68,6.56a4.48,4.48,0,0,0,3.41,2.57,4.49,4.49,0,0,0,3.23-2.17c1.41-2.35-.47-5.87-3.26-5.79C117.56,120.21,115.67,123.42,116.81,125.71Z"/><path class="cls-1" d="M135.86,119.59c2-.5,4.19-1.05,6.14-.12a3.91,3.91,0,0,1,1.86,3.72c0,2,0,4,0,6.07h-1.57c0-.3-.09-.89-.12-1.19a4.81,4.81,0,0,1-6,.8c-.95-.55-1.2-1.65-1.54-2.6.34-1,.6-2.12,1.61-2.65,1.83-1,4-.7,6-.24a2.74,2.74,0,0,0-.84-2.38c-1.58-1.21-3.62-.39-5.34,0Q135.95,120.31,135.86,119.59Zm1,5.55c-1,1-.08,2.58,1.09,3,2.24.86,5-1.22,4.21-3.69C140.43,124.41,138.2,123.65,136.86,125.14Z"/><path class="cls-1" d="M157.11,119.27c3.25-1.45,7.61,1.09,7.32,4.81.42,3.59-3.68,6.51-7,5.25a5.37,5.37,0,0,1-3.23-7.15A5,5,0,0,1,157.11,119.27Zm.14,1.56a4.05,4.05,0,0,0,.74,7.07c2.4,1,5.08-1.35,4.88-3.83C162.86,121.38,159.63,119.25,157.25,120.83Z"/><path class="cls-1" d="M182.83,119.28c3.24-1.47,7.63,1.06,7.34,4.78.39,3.45-3.36,6.34-6.62,5.38a5.36,5.36,0,0,1-3.76-6.73A5,5,0,0,1,182.83,119.28Zm-1.13,6.81a4.53,4.53,0,0,0,3.22,2.18,4.45,4.45,0,0,0,3.27-2.27c1.31-2.33-.53-5.71-3.24-5.68C182.1,120.1,180.24,123.78,181.7,126.09Z"/><path class="cls-1" d="M213.06,119.88a4.8,4.8,0,0,1,6.51.6c1.08,1.13,1.14,2.77,1.33,4.23-2.77.13-5.53,0-8.3.1.47,1.27,1.05,2.73,2.49,3.13,1.58.74,3.1-.35,4.43-1.1.49.1.67.6.93,1a5.91,5.91,0,0,1-6.15,1.43C210.6,127.89,210.05,122.23,213.06,119.88Zm-.38,3.63c2.2,0,4.4,0,6.6,0-.41-1.54-1.45-3.3-3.28-3.2C214.18,120.19,213.07,122,212.68,123.51Z"/><path class="cls-1" d="M13.76,124.5a4.37,4.37,0,0,1,4.49-3.35,4.06,4.06,0,0,1,3,2c1.08,1.67,1.41,3.68,2.06,5.53-4.39.07-8.74,2.54-10.38,6.73-.27-2-.59-4.07-.94-6.09.71-.24,1.68-.37,1.9-1.24C13.83,126.91,13.4,125.69,13.76,124.5Z"/><path class="cls-1" d="M18.66,132.45A14.89,14.89,0,0,1,24,131a37.41,37.41,0,0,1,1.21,4.14,8.61,8.61,0,0,1-2.81,5.48,4.84,4.84,0,0,1-4.42.86,4.62,4.62,0,0,1-2.5-4.59A5.74,5.74,0,0,1,18.66,132.45Z"/><path class="cls-1" d="M188,133l1.83.75-2.27,2.15-1.43,0C186.82,135,187.45,134,188,133Z"/><path class="cls-1" d="M79.52,133.13h1.53c0,4.66.05,9.32,0,14l-1.49,0C79.48,142.45,79.51,137.79,79.52,133.13Z"/><path class="cls-1" d="M128.89,134.42l1.72,0q0,1.44,0,2.9h3.2c0,.51,0,1,0,1.56-1.06,0-2.12,0-3.18,0,0,2-.06,4.06.05,6.08-.11.9.9,1.19,1.52,1.54l1.72-.49c.42,2.67-4,2.32-4.65.27-.63-2.37-.18-4.87-.31-7.29a1.24,1.24,0,0,1-1.39-1.64l1.4,0Q128.91,135.83,128.89,134.42Z"/><path class="cls-1" d="M84.84,137.29l1.46,0c0,.4,0,1.21-.07,1.62.92-.87,2-1.84,3.36-1.67a3.6,3.6,0,0,1,4.05,3.2c.14,2.42,0,4.85,0,6.54h-1.6c-.12-1.73.21-4.24-.2-6.68-1-2.5-4.9-2-5.44.55-.35,2.27,0,4.58-.17,7.38H84.86C84.81,144.23,84.84,140.76,84.84,137.29Z"/><path class="cls-1" d="M95.4,136.9h1.74c1.15,2.79,2.19,5.63,3.48,8.37a85.79,85.79,0,0,1,3.44-8.42l1.56.08c-1.38,3.52-2.94,7-4.46,10.42H99.81C98.34,143.86,96.76,140.43,95.4,136.9Z"/><path class="cls-1" d="M108.14,138.65c1.91-2.19,6-1.92,7.43.67a7.6,7.6,0,0,1,.87,3.72c-2.71,0-5.43,0-8.14,0a3.72,3.72,0,0,0,3.94,3.41c1.46.09,2.71-2.29,4-.58a5.6,5.6,0,0,1-7.32,1.08A5.66,5.66,0,0,1,108.14,138.65Zm.14,3.27h6.5c-.2-1.59-1.23-3.31-3-3.4C109.9,138.36,108.49,140.18,108.28,141.92Z"/><path class="cls-1" d="M119.81,137.82c1.85-1.19,4.18-.45,6,.43l-.7,1.3c-1.15-.47-2.33-1.17-3.62-1-.77.2-1.17.92-1.66,1.47,1.33,1.94,4.16,1.44,5.68,3.13a9.86,9.86,0,0,1,.64,1.74c-.41,1-.88,2.17-2,2.56a6.86,6.86,0,0,1-6.15-1.14l.82-1.23c1.41.79,3.19,1.92,4.8,1,.87-.34,1.22-1.71.32-2.2-1.61-1-4-.86-5.09-2.58A2.73,2.73,0,0,1,119.81,137.82Z"/><path class="cls-1" d="M136.47,137.29l1.66,0c0,3.48,0,7,0,10.45l-1.65,0Q136.44,142.48,136.47,137.29Z"/><path class="cls-1" d="M141.5,139.62c1.56-3,6.11-3.2,8.19-.63,0-.46.06-1.37.08-1.84.53.15,1.07.29,1.61.42-.16,2.92,0,5.84-.1,8.76a4.54,4.54,0,0,1-3.22,4.21,8.66,8.66,0,0,1-6.56-1l.37-1.41c1.77.76,3.73,1.8,5.69,1,1.76-.57,2.33-2.61,2.15-4.27-1.29,1.39-3.21,2.45-5.15,1.82A4.9,4.9,0,0,1,141.5,139.62Zm2.84-.61a3.37,3.37,0,0,0-.42,5.64,3.66,3.66,0,0,0,5.81-2.41C150,139.56,146.57,137.67,144.35,139Z"/><path class="cls-1" d="M154.56,138.17c2.05-1,4.67-1.45,6.71-.18,1.31.78,1.54,2.43,1.6,3.83,0,1.64,0,3.28,0,4.92.17.9-.86,1-1.5,1.07l-.2-1.49a4.78,4.78,0,0,1-6.22.7,3.09,3.09,0,0,1,.11-5c1.87-1.24,4.25-.82,6.31-.4.08-1.82-1.42-2.86-3-3.13a30.44,30.44,0,0,0-3.13.9Zm.82,5.71c0,.38.11,1.14.15,1.53a3.41,3.41,0,0,0,5.09,0,3.91,3.91,0,0,0,.75-2.46C159.38,142.41,156.76,141.93,155.37,143.87Z"/><path class="cls-1" d="M166.34,139.18a5.48,5.48,0,0,1,8.4-.07l-1.25.93c-1-.85-2.3-1.8-3.71-1.37a3.94,3.94,0,0,0-2.45,5.64,3.75,3.75,0,0,0,3.41,2.12,7.06,7.06,0,0,0,3.06-1.54l.93,1a5.58,5.58,0,0,1-6.5,1.47A5.5,5.5,0,0,1,166.34,139.18Z"/><path class="cls-1" d="M177.26,137.18l1.61.37c-.1,3.06,0,6.13,0,9.19.19.94-.94,1-1.56,1.06C177.23,144.26,177.24,140.72,177.26,137.18Z"/><path class="cls-1" d="M185.06,137.48a5.58,5.58,0,0,1,5.87,1.42,5.45,5.45,0,0,1-.44,7.59,5.35,5.35,0,0,1-8-.94C180.56,142.85,181.81,138.49,185.06,137.48Zm.08,1.58c-2.67,1.43-2.42,5.88.36,7,2.29,1.18,5.14-1,5.09-3.41C190.93,140,187.57,137.48,185.14,139.06Z"/><path class="cls-1" d="M194.93,147.81c-.06-3.54,0-7.08,0-10.63,1-.11,1.9.35,1.81,1.49,1.78-2.47,6.36-1.79,7,1.32a75.71,75.71,0,0,1,.1,7.77c-.74,0-1.86,0-1.67-1-.13-2.16.2-4.35-.15-6.5-.92-2.32-4.57-2-5.3.3a53,53,0,0,0-.06,6.87Z"/><path class="cls-1" d="M213.87,138.38a4.83,4.83,0,0,1,7,.7,7.1,7.1,0,0,1,1,3.91c-2.72.08-5.44,0-8.15,0a4,4,0,0,0,2.2,3.13c1.58.78,3.33-.06,4.53-1.15l1.13.87a5.65,5.65,0,0,1-7,1.27C211.65,145.39,211.38,140.68,213.87,138.38Zm-.06,3.54c2.17,0,4.34,0,6.5,0a3.89,3.89,0,0,0-2.56-3.32C215.7,138.07,214,140,213.81,141.92Z"/><path class="cls-1" d="M19.13,144.4c3.55.06,6.06-3.13,7.17-6.18.51,1.33,1,2.82,2.36,3.5-3.39,3.52-6.57,7.25-10,10.77a1.76,1.76,0,0,1-3.06-.59c-.83-3.28-.95-6.7-1.75-10A6.55,6.55,0,0,0,19.13,144.4Z"/><path class="cls-1" d="M165.44,151.46c.62-.2,1.21.39,1.79.55-1,1-2,2.47-3.58,2.13A20.89,20.89,0,0,1,165.44,151.46Z"/><path class="cls-1" d="M79.5,152.13h1.57c0,4.59,0,9.18,0,13.77H79.54C79.46,161.31,79.54,156.72,79.5,152.13Z"/><path class="cls-1" d="M190.56,152.26c2.29,0,4.58,0,6.87.07a6.87,6.87,0,0,1,4.69,3.91c1.57,3.67-.51,8.47-4.51,9.36-2.35.12-4.7.07-7,.06C190.54,161.19,190.56,156.72,190.56,152.26Zm1.57,1.39c0,3.56,0,7.12,0,10.69a41.83,41.83,0,0,0,4.22-.07,5.38,5.38,0,0,0,4.22-3.29c.63-2.13.29-4.78-1.63-6.16C197,153.22,194.42,153.67,192.13,153.65Z"/><path class="cls-1" d="M253,152.67h1.65c0,1,0,2,0,3h3.2l.05,1.4q-1.65,0-3.29.06c.09,2.12-.08,4.25.09,6.37.08.69.85.88,1.32,1.26.59-.19,1.19-.37,1.8-.55-.18.55.16,1.55-.6,1.71-1.45.39-3.56.22-4-1.51-.43-2.41-.06-4.88-.21-7.31l-1.42,0v-1.47l1.28.08Q252.94,154.19,253,152.67Z"/><path class="cls-1" d="M84.82,155.67l1.53,0c0,.37-.1,1.12-.13,1.49a4.75,4.75,0,0,1,3.88-1.75,3.72,3.72,0,0,1,3.58,3.65c.07,2.27,0,4.53,0,6.79h-1.6c-.14-2.42.23-4.88-.21-7.26-.82-2.48-4.86-2-5.41.42-.4,2.25,0,4.58-.2,6.86l-1.42,0C84.81,162.48,84.85,159.08,84.82,155.67Z"/><path class="cls-1" d="M96.81,155.67h1.58c0,.31,0,.93,0,1.24,1.1-.74,2.27-1.67,3.69-1.49a3.65,3.65,0,0,1,3.66,3.21c.1,2.43,0,4.85,0,7.28l-1.64,0c-.08-2.37.12-4.75-.1-7.12-.64-2.47-4.6-2.31-5.34,0-.58,2.32-.11,4.75-.3,7.12l-1.5,0C96.79,162.48,96.83,159.08,96.81,155.67Z"/><path class="cls-1" d="M111.9,155.69a5.34,5.34,0,0,1,6.8,3.54,5.45,5.45,0,0,1-3,6.49c-3,1.36-7.08-.55-7.37-4A5.28,5.28,0,0,1,111.9,155.69Zm.11,1.52a4,4,0,0,0-.87,6.49,3.59,3.59,0,0,0,5.88-1.57C118.32,159.2,115,155.75,112,157.21Z"/><path class="cls-1" d="M119.88,155.72c.61,0,1.21,0,1.83,0q1.58,3.85,3.12,7.72l.42.08c1.08-2.61,2.09-5.25,3.22-7.83l1.77.08c-1.62,3.41-3,6.93-4.58,10.34l-1.45-.21C122.88,162.43,121.36,159.08,119.88,155.72Z"/><path class="cls-1" d="M132,156.38c2.17-.86,4.86-1.46,6.91,0,1.25.92,1.33,2.58,1.37,4a28.1,28.1,0,0,1-.25,5.53l-1.31,0c0-.31-.06-.91-.08-1.21-1.68,1.53-4.48,2-6.34.55a3.06,3.06,0,0,1,0-4.74c1.9-1.41,4.36-.95,6.52-.59a3.23,3.23,0,0,0-1.35-2.55c-1.55-.72-3.34-.25-4.85.35Zm1.37,5.17c-1.29,1.11,0,3.23,1.48,3.23a3.26,3.26,0,0,0,3.9-3.58C137,160.83,134.82,160.23,133.32,161.54Z"/><path class="cls-1" d="M143.59,157.68c1.89-2.9,6.34-2.9,8.57-.39l-1.2,1.1a9,9,0,0,0-2.91-1.68,4.69,4.69,0,0,0-3.1,1.82c-1.61,2.22-.09,5.9,2.7,6.13,1.42.22,2.55-.8,3.64-1.54l.8,1.25a5.94,5.94,0,0,1-4.88,1.7C143.35,165.78,141.26,160.7,143.59,157.68Z"/><path class="cls-1" d="M154.62,155.64l1.67.07c0,3.39,0,6.77,0,10.16l-1.64,0C154.6,162.48,154.6,159.06,154.62,155.64Z"/><path class="cls-1" d="M162.9,155.62a5.34,5.34,0,1,1,1.18,10.48,5.35,5.35,0,0,1-1.18-10.48Zm-1.41,2.62a4.08,4.08,0,0,0,1.73,6.26c2.47.92,5.2-1.56,4.75-4.1,0-2-1.8-3.18-3.5-3.68C163.41,157.06,162.17,157.27,161.49,158.24Z"/><path class="cls-1" d="M172.26,155.61a15.88,15.88,0,0,1,1.63.2l.16,1.26c1.69-2.56,6.26-2,7,1,.29,2.58.06,5.2.1,7.79h-1.43c-.17-2.49.29-5-.42-7.48-1-2.15-4.58-1.84-5.24.4-.35,2,0,4.08-.15,6.12.17,1-1,1-1.66,1C172.23,162.52,172.27,159.06,172.26,155.61Z"/><path class="cls-1" d="M209,155.57a5.37,5.37,0,0,1,6.38,3.58,5.38,5.38,0,0,1-9.33,5C203.69,161.29,205.23,156.28,209,155.57Zm-2.07,3.54c-1.29,2.45.88,6,3.72,5.55,2.64-.18,4.13-3.54,2.84-5.74-.61-1.3-2-1.82-3.27-2.21A4.49,4.49,0,0,0,206.9,159.11Z"/><path class="cls-1" d="M219.12,156.92a5.6,5.6,0,0,1,7.94.38c-.39.37-.78.74-1.16,1.12-1.25-1.29-3.3-2.06-4.94-1a4.08,4.08,0,0,0,.41,6.93c1.67.93,3.44-.16,4.77-1.17l.91,1a5.37,5.37,0,1,1-7.93-7.21Z"/><path class="cls-1" d="M230.77,156.2a4.72,4.72,0,0,1,6.6,1.46,6.68,6.68,0,0,1,.71,3.79c-2.7,0-5.41,0-8.12,0,.47,1.2,1,2.55,2.36,3,1.62.75,3.33-.22,4.57-1.24l1,1.1a6.13,6.13,0,0,1-6.69,1.28C227.73,163.9,227.5,158.24,230.77,156.2Zm-.78,4c2.21,0,4.43,0,6.65,0-.38-1.78-1.78-3.75-3.83-3.33C231.17,157.14,230.36,158.73,230,160.2Z"/><path class="cls-1" d="M242.26,157.17c1.7-2.56,6.18-2.27,7.17.76a68.2,68.2,0,0,1,.12,8h-1.47c-.16-2.39.24-4.84-.25-7.2-.44-1.7-2.57-2.05-4-1.44a3.05,3.05,0,0,0-1.53,2.7c-.08,2,0,3.94,0,5.91l-1.54,0c0-3.42,0-6.85,0-10.26l1.57.08Z"/><path class="cls-1" d="M262.22,156.09a4.7,4.7,0,0,1,6.48,1.68,8.2,8.2,0,0,1,.79,3.68c-2.74,0-5.48,0-8.22,0,.43,1.47,1.42,3,3.08,3.24,1.47.27,2.74-.64,3.87-1.45l.89,1.09a5.92,5.92,0,0,1-6.77,1.19C258.91,163.7,258.84,158,262.22,156.09Zm-.94,4.11c2.2,0,4.41,0,6.61,0-.35-1.43-1.07-3-2.68-3.32C263.16,156.35,261.61,158.4,261.28,160.2Z"/><path class="cls-1" d="M81.81,46.49a47.63,47.63,0,0,1,.17-5.9c.37,7.42.07,14.87.16,22.31-.08,3.82.19,7.65-.17,11.47a49.21,49.21,0,0,1-.16-6.16Q81.81,57.35,81.81,46.49Z"/><path class="cls-1" d="M88.85,40.59a19.34,19.34,0,0,1,.29,3.68c-.07,7.71,0,15.42-.05,23.12,5.59,0,11.19-.08,16.78.08.09,2.27.06,4.54.06,6.81l-.36,0c0-2.21,0-4.41,0-6.62-5.59,0-11.18,0-16.77,0C88.77,58.64,88.6,49.61,88.85,40.59Z"/><path class="cls-1" d="M110.54,48.35c2.58-.08,5.15,0,7.73,0,.08,8.74.14,17.48,0,26.22-2.54,0-5.07,0-7.6,0-.27-2.72-.07-5.46-.12-8.18C110.53,60.41,110.47,54.38,110.54,48.35Zm.31.31c0,8.53,0,17.07,0,25.6q3.57,0,7.14,0c-.06-8.54,0-17.09,0-25.63C115.57,48.65,113.21,48.63,110.85,48.66Z"/><path class="cls-2" d="M44,1.25C44,.08,45.39-.31,46.21.27s.38,1.53.36,2.29C45.82,6.79,45,11,44.2,15.23L42,14.57A122.92,122.92,0,0,0,44,1.25Z"/><path class="cls-2" d="M66.3,6.44a2.62,2.62,0,0,1,3.58,2.8c-.24,2.27-3.65,2.83-4.78.94C64.18,8.89,65,7.12,66.3,6.44Z"/><path class="cls-2" d="M57.81,19.35c1-1.37,1.66-3,2.94-4.12a2,2,0,0,1,2.29.71c.46,1.82-1.28,3-2.2,4.32Z"/><path class="cls-2" d="M40.81,21.25c.72.13,1.45.28,2.16.46-.78,4.44-1.64,8.86-2.41,13.3,3,.5,6,.9,9.06,1.25a1.32,1.32,0,0,1,.59,2.32,15.09,15.09,0,0,1-4.07-.5A75.84,75.84,0,0,0,38.34,37a4,4,0,0,1-.17-2C39.13,30.41,40.09,25.85,40.81,21.25Z"/><path class="cls-2" d="M54,25.08,54,25q1.28.45,2.58.85c-1.84,2.39-3.24,5.09-5,7.51A1.59,1.59,0,0,1,49,31.63C50.52,29.38,52.35,27.3,54,25.08Z"/><path class="cls-2" d="M53.6,36.2l1-.55c2.92.91,5.94,2.27,7.66,4.93,1.94,2.91,1.49,6.73.32,9.86C60.54,55.59,57,60.37,52.07,63a12.36,12.36,0,0,1-10.4.79c-.55-.2-1.36-.69-.86-1.37C45.14,53.73,49.66,45.09,53.6,36.2ZM55.37,38c-3.65,6.51-6.86,13.26-10.17,20a45.65,45.65,0,0,0-2.08,4.61,11.14,11.14,0,0,0,6.28-.43c4.84-2,8.4-6.22,10.54-10.89,1.24-2.74,2.19-6,.91-8.9A7.75,7.75,0,0,0,55.37,38Z"/><path class="cls-2" d="M35.72,44.27c-.07-1.43,1.45-1.94,2.62-2,.94.62,1.8,1.64,1.25,2.82C39.06,47.25,35.17,46.58,35.72,44.27Z"/><path class="cls-2" d="M36,51a1.33,1.33,0,0,1,1.84.32,4.46,4.46,0,0,1,0,2.25A96.56,96.56,0,0,0,36.32,66.9a1.32,1.32,0,0,1-2.09,1.17c-.63-.33-.4-1.17-.37-1.74a109.63,109.63,0,0,0,1.47-13.61C35.38,52.1,35.35,51.29,36,51Z"/><path class="cls-2" d="M39.8,70.81c4.36-.44,8.71-1.1,13-1.84,2.46.36,2.59,3.16,2.15,5.09l-1.27,0A71.51,71.51,0,0,1,49.9,81c-1.18-.55-2.38-1.08-3.54-1.66,1.35-2.08,2.71-4.17,4-6.27.1-.82-.27-1.21-1.09-1.2-1.31,2.31-2.49,4.71-3.9,7-1-.34-2.19-1.3-3,0a5.55,5.55,0,0,0,2.17,1.4c-1.39,2.25-2.72,4.53-4.13,6.77l-2-.9c-.67,1.13.13,1.94,1.24,2.17-1.12,1.85-2.31,3.66-3.47,5.49-.6.59-.3,1.35.12,1.93,2.12-1.83,2.95-4.7,4.51-7,1.11.55,2.7.63,3.44,1.67-1.28,2.15-2.63,4.25-4,6.34.31.5.91,1,1.47.48,1.37-2,2.47-4.25,3.69-6.38.88.21,1.76,1.12,2.66.58.47-1.3-1-1.45-1.84-1.9,1.36-2.33,2.66-4.7,4.18-6.93l1.6,1.07c-3.16,9.92-6.09,19.92-9.19,29.86,0-1.78,0-3.84-1.35-5.17a3.48,3.48,0,0,0-4.21-.86c-1.65.79-2.5,2.51-3.26,4.07-.05-3.5-.53-7-.64-10.48-.43-3.89-.31-7.82-.79-11.7l-1.17-.59c-.31.49-.95,1-.73,1.63,1.19,8.51,1.57,17.11,2.11,25.68.16,2.21,0,4.47.62,6.62,3.41.28,6.22-2.18,8-4.8-1.09,3.86-2.22,7.72-3.54,11.51-.66-1-1.63-2-2.93-1.52-1.84,1.17.58,3.59,2.16,3.31-1.64,3.26-4.26,5.8-6.66,8.49a11.63,11.63,0,0,1-2.27-3.78c-1.17-3.76-2.31-7.53-3.49-11.28-.84-2.57-2.57-5.2-5.39-5.82s-5.32,1.08-7.17,2.95c1-3.73,2.26-7.38,3.26-11.11,1,1.47,2,3,3.15,4.38.64.43,1.28-.24,1.79-.56-.94-2.67-3.85-4.52-3.75-7.55.53-2.31,3.39-3.49,5.52-2.67,3,1.05,5.54,4.17,4.89,7.46-.43,2.28-1.08,4.66-.29,6.95a18.34,18.34,0,0,0,4.7,6.95c.74.72,2.13-.36,1.57-1.23-1.58-2-3.51-3.93-4.28-6.46-.9-3.26,1.53-6.54.17-9.75-1.48-4.22-6.46-7.62-10.92-5.86,1.2-3.8,2.22-7.66,3.53-11.42C23,92,24.54,93,26,94.18c.82.62,1.6,1.51,2.72,1.45,0-.32.12-1,.16-1.29-2.11-1.77-4.6-3-6.68-4.81,4.27-5.45,12.31-4.19,17.36-8.46a11,11,0,0,0,3.24-5.81C42.92,73.27,41.2,71.93,39.8,70.81Z"/><path class="cls-2" d="M28.4,72.65c1.92-.59,4-.55,5.9-1C33.45,72.94,31,74,31.67,75.81l.82.27c1.14-1,1.85-2.48,3.18-3.32a3.46,3.46,0,0,1,4.25-.08,3.11,3.11,0,0,1,.87,3.55,9,9,0,0,1-5,5.54c-4.3,1.87-9.19,2.27-13.13,5C23.92,82.83,25,78.88,26.25,75A3.19,3.19,0,0,1,28.4,72.65Z"/><path class="cls-2" d="M41.74,87.28c1.19-2.29,2.66-4.43,3.91-6.69,1.22.43,2.41.94,3.61,1.43-1.22,2.41-2.71,4.66-4.07,7C44.06,88.46,42.53,88.26,41.74,87.28Z"/><path class="cls-2" d="M35.84,110.6a4.86,4.86,0,0,1,3.25-1.72c2.11.65,2.39,3.19,2.11,5a8.56,8.56,0,0,1-6.39,7.36C34.63,117.76,33.33,113.61,35.84,110.6Z"/><path class="cls-2" d="M51.1,81.5c.9-1.8,2-3.51,3-5.24-.38,1.92-1,3.77-1.6,5.64Z"/><path class="cls-1" d="M80.8,77.19a57.89,57.89,0,0,1,7.59.15,70.55,70.55,0,0,1-7.31.18c0,7.14.16,14.28-.11,21.41a49,49,0,0,1-.21-6.8C80.78,87.15,80.72,82.17,80.8,77.19Z"/><path class="cls-1" d="M102.62,77.18c2.58-.07,5.16-.06,7.75,0-.11,6.94.21,13.9-.16,20.84,0-6.84,0-13.67,0-20.51q-3.67,0-7.34,0c.08,4.3,0,8.59.06,12.89a56.85,56.85,0,0,1-.27,8.2C102.46,91.44,102.54,84.31,102.62,77.18Z"/><path class="cls-1" d="M115.21,77.34a42.48,42.48,0,0,1,6.76-.23H137a36.73,36.73,0,0,1,6.32.23c-4.17.29-8.35.07-12.52.14C125.63,77.41,120.41,77.66,115.21,77.34Z"/><path class="cls-1" d="M148.68,77.18c4.24-.17,8.49,0,12.73-.08,2.17,0,4.48-.12,6.46.94-3.27-.78-6.65-.54-10-.56-3,0-5.93,0-8.89,0,0,11.13,0,22.27,0,33.4,2.39,0,4.79,0,7.19,0,0-3.33-.18-6.67.16-10a91.39,91.39,0,0,1,.16,10.28c-2.61.1-5.23.11-7.84,0C148.61,99.81,148.58,88.49,148.68,77.18Z"/><path class="cls-1" d="M205.17,104.2a55.1,55.1,0,0,1,.11,7c-6.94.06-13.87,0-20.81,0A27.4,27.4,0,0,1,181,111c8-.42,16,0,24-.19A55.43,55.43,0,0,1,205.17,104.2Z"/><path class="cls-1" d="M175.28,129.28c.07-3.38-.09-6.77.08-10.14l1.39-.12c0,3.42,0,6.84,0,10.26Z"/><path class="cls-1" d="M136.39,133.57l1.87,0-.05,1.76h-1.79C136.4,134.77,136.4,134.17,136.39,133.57Z"/><path class="cls-1" d="M177.12,133.58l1.8,0c0,.58,0,1.16,0,1.74l-1.74,0C177.15,134.77,177.13,134.18,177.12,133.58Z"/><path class="cls-1" d="M154.48,151.78h1.88c0,.59,0,1.19,0,1.79h-1.8C154.51,153,154.5,152.37,154.48,151.78Z"/><path class="cls-1" d="M190.41,151.91c2.34.11,4.75-.32,7,.41-2.29-.11-4.58-.05-6.87-.07,0,4.46,0,8.93,0,13.39,2.35,0,4.7.06,7-.06h.34c-2.45.77-5,.34-7.55.43C190.38,161.31,190.32,156.61,190.41,151.91Z"/></g></g></svg>