<svg xmlns="http://www.w3.org/2000/svg" viewBox="0 0 269.49 266.07"><defs><style>.cls-1{fill:#00b0ff;}.cls-2{fill:#ffab00;}</style></defs><title>ObservatorioEduTendencias</title><g id="Layer_2" data-name="Layer 2"><g id="Layer_1-2" data-name="Layer 1"><path class="cls-1" d="M108.64,129.05c2.07,2.32,4.33,4.47,6.23,6.93-2.47-1.17-4.42-3.71-7.34-3.66C107.89,131.22,108.27,130.14,108.64,129.05Z"/><path class="cls-2" d="M129,0c6,.22,12,0,18.05.48,0,1.5,0,3,0,4.49-4.31.42-8.63-.2-12.95,0,0,1.56,0,3.12,0,4.69,3.65,0,7.3.19,11,.09a20.37,20.37,0,0,1,.3,4.86c-3.78-.1-7.56,0-11.32-.3-.18,1.64-.2,3.29-.27,4.93,4.3.22,8.61.24,12.92.24,0,1.63,0,3.25,0,4.89-6.11-.15-12.23-.24-18.34-.46C128.75,16,128.82,8,129,0Z"/><path class="cls-2" d="M171.33,4.09c1.74.37,3.46.82,5.18,1.31-2,8.07-4.15,16.11-5.94,24.22a41.08,41.08,0,0,1-5.27-1.34c.11-.52.33-1.55.44-2.07a7.74,7.74,0,0,1-11.19-2.91c-2.33-4.83-.48-11.61,4.45-14.06a7.77,7.77,0,0,1,10.15,3.33C170,9.79,170.62,6.93,171.33,4.09Zm-9.11,9.51c-3.08,1.19-4.47,5.52-2.41,8.17a4.29,4.29,0,0,0,5,1.29,5.64,5.64,0,0,0,2.73-6.68A4.21,4.21,0,0,0,162.22,13.6Z"/><path class="cls-2" d="M179.84,25.09c1.61-3.2,3.23-6.4,4.8-9.63,1.59.76,3.18,1.56,4.76,2.35-1.6,3.55-3.67,6.89-5,10.54-.93,2.49,2.54,4.64,4.58,3.29a7.74,7.74,0,0,0,2-2.93c1.31-2.68,2.68-5.33,4-8,1.61.69,3.16,1.5,4.74,2.27-2.54,5.59-5.51,11-8.11,16.51-1.65-.71-3.25-1.52-4.82-2.38.32-.69.66-1.38,1-2.07a6.79,6.79,0,0,1-8.83-2.61C177.75,30,178.65,27.29,179.84,25.09Z"/><path class="cls-2" d="M106.41,72.39C118.15,67,129.84,61.45,141.58,56a6,6,0,0,1,6.52,1.2,26.79,26.79,0,0,1,2.57,4.93q7.47,16,15,32c1.2,2.38.6,5.76-1.91,7-3.17,1.5-6.31,3.08-9.5,4.54a4.66,4.66,0,0,1-6.2-2.11c-1.35-3-2.49-6.14-3.81-9.17-4.38,11.75-8.57,23.58-12.92,35.34-2.11,0-3.59,1.6-4.87,3.06-2-4.11-3.8-8.3-5.93-12.32-.61-1.29-2.14-1.35-3.36-1.54a15.25,15.25,0,0,0-1.65,1.73,4.19,4.19,0,0,0,.38,3.37c1.29,2.73,2.73,5.39,3.86,8.18-2.6-2.19-4.58-5-7.06-7.31a5.45,5.45,0,0,0-2.11-1.08C115,111.6,119.46,99.3,124,87.06c-3.11,1.24-6.13,2.7-9.17,4.09A5.41,5.41,0,0,1,110,91.1c-2.44-1.11-2.91-4.05-4.12-6.18-1.1-2.83-3.33-5.49-2.84-8.69A5.14,5.14,0,0,1,106.41,72.39Z"/><path class="cls-2" d="M106.08,136.29c2.18,1.89,4.77,3.21,7.12,4.87,1.27.9,1.89,2.39,3,3.49a8.42,8.42,0,0,0,9.11,1.75c-.78,1.63-1,3.56-2.11,5-1.09.8-2.17,1.62-3.24,2.46a13.05,13.05,0,0,0,1.69,3c-2.86,6.71-5,13.73-7.68,20.53-2.68,7.51-5.46,15-8.14,22.5-.85,2.5-3.35,4-5.74,4.77-2.69.68-5.14-.87-7.61-1.68-2-.8-4.09-1.22-5.89-2.35-1.87-1.93-1.66-5-1.23-7.4,1.33-3.92,2.85-7.77,4.22-11.67.8-2.33,1.66-4.64,2.53-6.95.28-.75.58-1.5.84-2.26q1-2.89,2.08-5.75C98.7,156.49,102.29,146.35,106.08,136.29Z"/><path class="cls-2" d="M142.21,252.1c3.16-1.41,7.47.93,7.24,4.58.42,3.95-4.47,6.66-7.73,4.63C138.16,259.44,138.44,253.57,142.21,252.1Z"/><path class="cls-1" d="M90.66,7.19a12.83,12.83,0,0,1,10.52,2.18c5.49,4.09,6.39,13,1.73,18.08a13.47,13.47,0,0,1-15.49,3.27,12.44,12.44,0,0,1-6.25-15.29A12.93,12.93,0,0,1,90.66,7.19ZM92.22,12a7.2,7.2,0,0,0-5.52,4c-2,3.93.42,9.28,4.61,10.53,4.24,1.54,9.47-2.21,9.11-6.8C100.55,15.45,96.57,11.36,92.22,12Z"/><path class="cls-1" d="M62.35,21.21a48.88,48.88,0,0,1,4.74-2.68c4.06,6.8,8.17,13.58,12.42,20.27a30.86,30.86,0,0,1-4.65,2.94C70.69,34.89,66.45,28.1,62.35,21.21Z"/><path class="cls-1" d="M208.1,27.51c1-1.38,2.07-2.69,3.18-4,5.14,4.15,10.23,8.34,15.45,12.38a34,34,0,0,1-3.15,4c-1.84-1.55-3.75-3-5.56-4.57q-6,7.37-11.94,14.85a36.89,36.89,0,0,1-4.23-3.52c4-4.85,7.92-9.78,11.84-14.69C211.89,30.44,210,29,208.1,27.51Z"/><path class="cls-1" d="M44.57,34.83c2.24-2,4.81-4.29,8.05-4.1,5.5.08,9.55,6.81,6.75,11.69,3.34.8,6.67,1.67,10,2.42-1.48,1.48-3.08,2.84-4.62,4.26-3-.76-6-1.48-9-2.28-1,.92-2,1.81-3,2.65,1.68,1.93,3.39,3.83,5.1,5.74-1.34,1.24-2.69,2.46-4.1,3.63-5.26-6-10.75-11.89-16-17.95C40.06,38.87,42.38,36.92,44.57,34.83Zm.65,6c1.28,1.8,2.87,3.33,4.28,5a27,27,0,0,0,5.1-4.72c1.57-2.06-.64-5.28-3.05-5C48.94,36.92,47.37,39.36,45.21,40.86Z"/><path class="cls-1" d="M215.82,59c6.32-4.9,12.49-10,18.81-14.89,3.75,4.75,7.61,9.42,11.28,14.23-1.4.72-2.4,2.55-4,2.66-2.67-3.15-5.15-6.45-7.74-9.66-1.23.92-2.43,1.87-3.65,2.8,2.21,3.09,4.78,5.89,7,9-1.29.93-2.53,1.91-3.77,2.9-2.39-2.89-4.7-5.84-7-8.78-1.21,1-2.45,1.94-3.7,2.85,2.39,3.6,5.36,6.8,8,10.26q-1.83,1.6-3.79,3C223.41,68.61,219.49,63.93,215.82,59Z"/><path class="cls-1" d="M29.23,55.15a12.77,12.77,0,0,1,10.09,1.59,12.33,12.33,0,0,1,5.51,12c-.68,6-6,11.38-12.13,11.49a12.5,12.5,0,0,1-12.32-8.36C18.1,65.05,22.32,57,29.23,55.15Zm1.51,5.14a7.46,7.46,0,0,0-5.87,7.35,8.13,8.13,0,0,0,8.38,7.12,7.43,7.43,0,0,0,6.54-6.56C40.13,63.54,35.29,59.39,30.74,60.29Z"/><path class="cls-1" d="M230.7,78.86c7.29-3.32,14.56-6.72,21.87-10,.73,1.51,1.45,3,2.07,4.6-2.84,5.33-5.84,10.6-8.45,16,4.26-2.18,8.69-4,13-6.1.9,1.55,1.57,3.22,2.4,4.82-7.29,3.39-14.61,6.7-21.9,10.09-.66-1.42-1.33-2.83-1.92-4.27,3-5.49,5.89-11.05,8.86-16.57-4.57,2-9.09,4.19-13.65,6.24C232.2,82.08,231.45,80.47,230.7,78.86Z"/><path class="cls-1" d="M4.64,99C7,92.73,9,86.37,11.45,80.19c1.48.62,3,1.15,4.54,1.63-.65,2.35-1.6,4.61-2.38,6.92,6,2.1,11.91,4.27,17.89,6.33a40.28,40.28,0,0,1-1.88,5.17C23.77,98,17.78,96,11.88,93.82,11,96,10.21,98.31,9.46,100.58A42,42,0,0,1,4.64,99Z"/><path class="cls-1" d="M241.87,105.28c7.92-1.14,15.78-2.69,23.69-4,.53,5.7,3.23,11.73.65,17.3-2.68,6.27-11.3,8.68-17,5.1a12.86,12.86,0,0,1-5.7-8.64C243,111.8,242.36,108.55,241.87,105.28Zm5.75,4.62c.5,2.7.54,5.83,2.62,7.9,3.27,3.54,10,2.05,11.68-2.43,1-2.53,0-5.25-.32-7.81C256.91,108.13,252.26,109,247.62,109.9Z"/><path class="cls-1" d="M1.16,118.45c8.32-2.59,16.61-5.3,25-7.69-.21,1.81-.39,3.63-.49,5.45-1.89.62-3.81,1.1-5.67,1.81-.24,3.31-.74,6.6-.9,9.92a39.75,39.75,0,0,1,5.08,2.73c-.25,1.78-.43,3.57-.61,5.35-7.68-4.16-15.3-8.43-23-12.63A28.1,28.1,0,0,1,1.16,118.45Zm6.95,2.87c0,.2,0,.6,0,.8a71.57,71.57,0,0,1,6.39,3.38c.19-2,.4-4.1.63-6.14C12.77,120,10.48,120.79,8.11,121.32Z"/><path class="cls-1" d="M146.49,122.17c8.48-7.19,22.14-6.87,30.29.69a23.54,23.54,0,0,1-1,35.7,22.21,22.21,0,0,1-33.06-5.74c6.42-3.11,12.5-8.1,14.79-15.09-6.38,1.34-13.21,3.64-19.6,1.06.15-1.66.51-3.29.79-4.93-.67-1.84-2.43-3.27-2.38-5.41-.18-2.53,2.27-4.05,4.41-4.62C142.61,123.08,145,123.82,146.49,122.17Z"/><path class="cls-1" d="M115.47,120.71a15.25,15.25,0,0,1,1.65-1.73c1.22.18,2.75.24,3.36,1.54,2.12,4,4,8.21,5.93,12.32,1.29-1.46,2.77-3,4.87-3.06a9.1,9.1,0,0,1,2.72.88c-1.74,3.25-3.78,6.46-4.33,10.18a7,7,0,0,1-4.41,5.56,8.42,8.42,0,0,1-9.11-1.75c-1.07-1.1-1.69-2.59-3-3.49-2.34-1.66-4.93-3-7.12-4.87a2.75,2.75,0,0,1,1.46-4c2.92,0,4.87,2.49,7.34,3.66-1.9-2.47-4.16-4.62-6.23-6.93a3.07,3.07,0,0,1,1.9-5.19,5.45,5.45,0,0,1,2.11,1.08c2.48,2.32,4.45,5.12,7.06,7.31-1.14-2.79-2.57-5.45-3.86-8.18A4.19,4.19,0,0,1,115.47,120.71Z"/><path class="cls-1" d="M245.63,133.83c7.93.4,15.9,1.12,23.86,1.57-.28,6-.84,12-1.2,18.07a27.84,27.84,0,0,1-4.83-.45c.24-4.24.92-8.51.67-12.76-1.47,0-2.94-.12-4.39-.26-.54,3.77-.44,7.59-.93,11.36-1.59-.15-3.17-.33-4.76-.43.34-3.74.55-7.5.81-11.25-1.63-.13-3.25-.23-4.88-.24-.37,4.32-.51,8.66-1,13a37.5,37.5,0,0,0-4.72-.39C244.79,146,245.07,139.86,245.63,133.83Z"/><path class="cls-1" d="M0,143.07c8.46,1.84,16.86,4,25.32,5.87.3,1.61.56,3.22.71,4.84-5.36,3-10.59,6.23-15.91,9.3a67,67,0,0,1-6.57,3.68c-.23-2-.64-3.92-.75-5.9,4.92-2.53,9.72-5.29,14.55-8l.33-.69C12,151.1,6.4,149.94.81,148.66.59,146.79.26,144.93,0,143.07Z"/><path class="cls-1" d="M123.16,151.41a20.37,20.37,0,0,1,12.42-3.08c1.08,5.12,4.59,9.33,8.7,12.39a46,46,0,0,0,15,7c3,.82,5.08,3.59,5.93,6.5,1.77,5.88,1.16,12.09.29,18.06a113.16,113.16,0,0,1-3.34,14.56c-12.34,0-24.69,0-37,0a94.32,94.32,0,0,1,8.8-21.49,83.77,83.77,0,0,1-18.18-2.48c-.74-.29-1.69-.29-2.19-1,.94-5.31,4.17-10.55,9.22-12.81a46.41,46.41,0,0,0,16.3,3.26c-6.61-4.16-12.84-9.13-17.44-15.5a13.05,13.05,0,0,1-1.69-3C121,153,122.07,152.21,123.16,151.41Z"/><path class="cls-1" d="M243.19,158.4c7.63,2.35,15.17,5,22.82,7.27a35.12,35.12,0,0,1-1.55,4.87c-5.69,1.93-11.4,3.88-17,6,4.54,1.58,9.13,3,13.69,4.46-.48,1.68-1.08,3.33-1.54,5-7.69-2.32-15.3-4.89-23-7.33.47-1.47,1-2.94,1.45-4.4,5.71-1.91,11.33-4.07,17.06-5.93l.33-.6c-4.69-1.2-9.23-2.91-13.87-4.27C242.06,161.79,242.63,160.1,243.19,158.4Z"/><path class="cls-1" d="M28.2,166.2c.94,1.92,1.69,3.92,2.5,5.9-1.83,2.46-3.45,5.07-5.16,7.61.53,1.22,1,2.43,1.56,3.66,2.39-.92,4.69-2,7.13-2.83.62,1.68,1.36,3.32,2,5-7.4,2.9-14.74,5.95-22,9.08-1.58-2.92-2.57-6.12-3.94-9.15-1.28-2.78-2.1-6.15-.59-9,2.46-4.51,9.4-5.62,12.95-1.74C24.54,172,26.32,169,28.2,166.2ZM13.93,180.8c.42,2.42,1.7,4.57,2.48,6.89,2.13-.73,4.2-1.65,6.28-2.5-1.09-2.12-1.59-4.55-3-6.47C17.89,176.52,14,178.08,13.93,180.8Z"/><path class="cls-1" d="M86.93,167.08a44.78,44.78,0,0,1,8.06-.51q-1.1,2.85-2.08,5.75a43.59,43.59,0,0,1-5.81,0A2.93,2.93,0,0,1,86.93,167.08Z"/><path class="cls-1" d="M87,177.8c.55-2.26,3.31-2.35,5.06-3.22-.86,2.31-1.72,4.62-2.53,6.95C88,181,86.58,179.56,87,177.8Z"/><path class="cls-1" d="M226.64,195.28a12.11,12.11,0,0,1,12.29-6.21,12.73,12.73,0,0,1,11,11.06c.56,6.3-4,12.85-10.3,14.09q-.75-2.46-1.47-4.94c2.91-.83,5.76-2.85,6.45-6,1-4.35-3-8.51-7.21-8.87a6.72,6.72,0,0,0-6.68,3.84c-1.14,1.87-.73,4.12-.66,6.18-1.59.24-3.16.59-4.72.94A13,13,0,0,1,226.64,195.28Z"/><path class="cls-1" d="M35.45,194.11c1.27-1,2.6-2,3.89-2.94q5.41,7.42,10.72,14.9c-6.49,4.73-13,9.4-19.55,14.07-3.49-4.91-7-9.84-10.59-14.66A36.1,36.1,0,0,1,24,202.6c2.41,3.49,4.92,6.91,7.41,10.35,1.23-.9,2.47-1.8,3.74-2.65q-3.17-4.65-6.58-9.14a37.43,37.43,0,0,1,4.05-2.87c2.06,3,4.29,6,6.37,9a35.87,35.87,0,0,0,4-2.58C40.68,201,38,197.61,35.45,194.11Z"/><path class="cls-1" d="M213.76,212c1.17-1.4,2.42-2.74,3.7-4,5.82,5.52,11.8,10.88,17.57,16.46-1.18,1.26-2.28,2.59-3.56,3.74-.66-.13-1.07-.74-1.56-1.13Q221.87,219.43,213.76,212Z"/><path class="cls-1" d="M51.23,214.85a7.61,7.61,0,0,1,8,.24,15.49,15.49,0,0,1,7,11.11,27.36,27.36,0,0,1-5,.68c-.5-3.55-2.54-7.77-6.52-8.2-.52.73-1.67,1.39-1.29,2.45,1.26,3.59,4.66,6.24,4.89,10.22-.09,4.27-4.69,7.86-8.86,6.56a13.09,13.09,0,0,1-8.67-10.63c1.58-.39,3.18-.75,4.78-1.06.68,2.75,2,6,4.92,6.91,1.37.34,2.9-1.5,2-2.77-1.48-3.28-4.51-6-4.63-9.79C47.71,218.17,49.33,216.08,51.23,214.85Z"/><path class="cls-1" d="M205.57,219.7c1.48-1.05,2.91-2.14,4.42-3.16,1.88,8.55,4.09,17,5.78,25.62a18.24,18.24,0,0,1-3.45,2.55c-.59.35-1.24-.15-1.77-.39-7.06-4.23-14.08-8.52-21.18-12.67a30.05,30.05,0,0,1,4.65-3.41c1.55,1,3.15,2,4.7,3,2.75-1.9,5.39-4,8.17-5.84C206.5,223.52,206,221.63,205.57,219.7Zm-2.27,14.45c2.33,1.29,4.55,2.8,6.87,4.13-.69-2.57-1.38-5.14-1.91-7.75A25.21,25.21,0,0,0,203.3,234.15Z"/><path class="cls-1" d="M68.13,234.71c.43-2.41,2-4.84,4.46-5.49,3.05-.85,6.11.63,8.73,2.08,2.93,1.69,6,3.19,8.88,4.93-4,6.94-7.69,14.08-11.65,21.06-3.46-2-7-3.84-10.51-5.84-2.07-1.33-4-3.45-3.87-6.09a5.89,5.89,0,0,1,5.61-5.91C69,238,68,236.44,68.13,234.71Zm5.71.07a2.39,2.39,0,0,0,.27,3.65c2,1.52,4.44,2.49,6.59,3.87.87-1.48,1.69-3,2.56-4.44-2-1.06-3.92-2.22-5.92-3.25C76.25,234.11,74.74,233.76,73.84,234.78Zm-3.54,8.9c-.43.94-1.17,2.19-.16,3,1.7,1.76,4.08,2.64,6.21,3.77.66-1.36,1.47-2.66,2.11-4A20.39,20.39,0,0,0,72,243Z"/><path class="cls-1" d="M172.13,239.41c3.79-3.92,9.9-4.57,14.95-3.13a31.33,31.33,0,0,1-1.43,4.72c-1.9-.15-3.8-.9-5.7-.42-1.7.32-3.6,1-4.38,2.69a2,2,0,0,0,2,2.49c3.53.13,7.17-1.41,10.62-.08,2.71,1.19,4.06,4.4,3.7,7.23-.14,2.4-1.93,4.3-3.85,5.54a13.61,13.61,0,0,1-11.18,1.22c.47-1.54.79-3.12,1.16-4.68,2.68.53,5.9.81,8.1-1.15,1.22-.93.57-3.33-1-3.31-3.23-.26-6.43,1-9.65.34C170.42,250,168.69,242.85,172.13,239.41Z"/><path class="cls-1" d="M103.87,241.18a13.49,13.49,0,0,1,12.24,5.45c3.82,5.4,2.25,13.81-3.36,17.37-6,4.15-15.28,1.82-18.65-4.65a12.7,12.7,0,0,1,1.34-13.66A12.33,12.33,0,0,1,103.87,241.18Zm-1.44,5.67a7.79,7.79,0,0,0-3.65,9.61,7.25,7.25,0,0,0,7.8,4.51c4.56-.72,7.41-6.35,5.49-10.49A7.17,7.17,0,0,0,102.42,246.86Z"/></g></g></svg>