<svg xmlns="http://www.w3.org/2000/svg" viewBox="0 0 269.49 270.09"><defs><style>.cls-1{fill:#ffab00;}.cls-2{fill:#00acc1;}</style></defs><title>ProgramaFormacion</title><g id="Layer_2" data-name="Layer 2"><g id="Layer_1-2" data-name="Layer 1"><path class="cls-1" d="M135.86,23.93c1-8,1.75-16,2.75-23.93,1.86.22,3.71.49,5.58.62,1.71,3.41,3.35,6.86,4.93,10.33h.68C152,7.89,154.43,5,156.75,2c1.88.31,3.78.47,5.67.64-.82,7.82-1.8,15.63-2.56,23.45l-.3.44c-1.69-.09-3.35-.36-5-.54.34-5.07,1.34-10.1,1.46-15.18-2.56,3.07-5,6.24-7.73,9.16-1.78-3.54-3.61-7.06-5.34-10.63-.79,5-1.34,10.05-1.7,15.1C139.43,24.34,137.65,24.11,135.86,23.93Z"/><path class="cls-1" d="M120.18,1.36c2.79-.44,6,0,8,2.16,3.38,3.63,2.74,10.45-2,12.69,2.06,2.74,4.59,5.08,6.64,7.84l-6.24.7c-2-2.34-4-4.63-6-7l-4,.49c.26,2.57.65,5.12.91,7.69-1.8.12-3.59.36-5.38.58Q111,14.67,109.27,2.82C112.87,2.11,116.54,1.84,120.18,1.36Zm-4.9,5.47c.22,2.26.48,4.53.85,6.77,2.46-.54,5.16-.2,7.43-1.44a3.29,3.29,0,0,0-1-5.83C120.16,5.85,117.71,6.74,115.28,6.83Z"/><path class="cls-1" d="M91.93,7.69a12.29,12.29,0,0,1,9.79,3.63,13.16,13.16,0,0,1,3.56,8.17,12.37,12.37,0,0,1-5.19,10.68c-4.45,3.27-11.05,3.58-15.5.14a12.71,12.71,0,0,1-3.87-14.87C82.59,11,87.2,8.13,91.93,7.69Zm-.42,5.12a7.33,7.33,0,0,0-5.75,4.44c-1.9,4.42,1.55,10.17,6.4,10.41a7.13,7.13,0,0,0,7.3-4.93C101.09,17.91,96.68,12.06,91.51,12.82Z"/><path class="cls-1" d="M162.24,27.05c6.12-6.3,12.14-12.68,18.18-19.06,1.48.59,3,1.15,4.47,1.65.64,3.84.18,7.78.7,11.64.17,3.58.08,7.18.47,10.74.05,1.34.09,2.69.14,4-1.75-.61-3.47-1.27-5.2-1.93-.11-1.94-.25-3.88-.24-5.83-3.1-1.16-6.22-2.31-9.31-3.51-1.38,1.38-2.68,2.82-4,4.26C165.71,28.41,164,27.77,162.24,27.05Zm12.62-6.12c1.89.8,3.81,1.49,5.74,2.18,0-2.65-.12-5.3-.13-8C178.43,16.91,176.77,19,174.87,20.93Z"/><path class="cls-1" d="M54.44,27.22c5.07-3.44,10.24-6.73,15.33-10.13.92,1.37,1.84,2.75,2.72,4.16-3.57,2.38-7.25,4.6-10.71,7.13a33.19,33.19,0,0,0,2.66,4.11c3.1-2.18,6.34-4.14,9.46-6.3.9,1.38,1.8,2.76,2.75,4.1-3.16,2.16-6.4,4.21-9.59,6.32q2.57,3.85,5.08,7.75c-1.48,1-3,1.94-4.44,3C63.18,40.69,58.91,33.89,54.44,27.22Z"/><path class="cls-1" d="M190.89,30.72c1-5.24,5.53-9.85,11-10.21a13.63,13.63,0,0,1,14.2,10.27c-1.68.56-3.39,1-5.1,1.5-.75-3.07-3-6-6.21-6.59-5.5-1-10.4,5.68-8.06,10.68,1.52,3.39,5.72,4.9,9.19,3.89A31.19,31.19,0,0,1,207,45.15a13.17,13.17,0,0,1-9.84-1.32A12.13,12.13,0,0,1,190.89,30.72Z"/><path class="cls-1" d="M223.53,33.26c1.32,1.21,2.61,2.46,4,3.61-5.35,6-10.72,12-16.17,17.93-1.3-1.23-2.67-2.4-4-3.63C212.78,45.21,218.14,39.22,223.53,33.26Z"/><path class="cls-1" d="M228.63,47.58a12.76,12.76,0,0,1,9.13,1,13.72,13.72,0,0,1,6.88,9.1,12,12,0,0,1-4,11.77,12.44,12.44,0,0,1-12,2.52c-6.08-1.93-10.29-8.7-8.87-15A12.54,12.54,0,0,1,228.63,47.58ZM232,52.5c-3.76.35-7.18,3.7-7.14,7.56a7.2,7.2,0,0,0,4.74,6.8c4.79,1.8,10.44-2.74,10-7.77A7.3,7.3,0,0,0,232,52.5Z"/><path class="cls-1" d="M242,49.45c2.32,0,4.64,0,7,0,.38,1.58.81,3.16,1.26,4.73-1.93-.42-3.81-1-5.72-1.53C243.67,51.59,242.83,50.53,242,49.45Z"/><path class="cls-1" d="M232.2,80.54c7.34-3.25,14.64-6.61,22-9.78.65,1.48,1.31,3,2,4.43-2.79,5.42-6,10.64-8.67,16.1,4.42-1.93,8.79-4,13.23-5.84.7,1.63,1.43,3.25,2.11,4.9q-11,4.78-21.95,9.77c-.64-1.37-1.26-2.76-1.89-4.14,2.94-5.61,6.1-11.1,9.08-16.69-4.61,2-9.16,4.09-13.77,6.08C233.63,83.77,232.92,82.15,232.2,80.54Z"/><path class="cls-1" d="M157.23,113.82c10.85,1.87,20.82,7.17,29.75,13.44a125.81,125.81,0,0,1,25.17,24.3q-14.06,23.66-28,47.38c-5.76-3.73-11.53-7.45-17.24-11.26.79-.82,1.71-1.74,1.65-3a3.5,3.5,0,0,0-2.64-3.72c-4.25-1.2-8.66-1.84-12.84-3.28,4.47-1,9.1-.52,13.61-1.25a3.7,3.7,0,0,0,2.34-5.1,3.86,3.86,0,0,0-4-2.11c-5.71.54-11.45.64-17.15,1.28a20.4,20.4,0,0,0,1.47-5.32c.9-3.08,2-6.07,3-9.14a180.8,180.8,0,0,0,5-20.51C158.46,128.41,159.31,120.9,157.23,113.82Z"/><path class="cls-1" d="M144.67,252.67a5.16,5.16,0,0,1,3,9.87,5.12,5.12,0,0,1-6.8-4.47A5,5,0,0,1,144.67,252.67Z"/><path class="cls-2" d="M38.66,40.92c1.27,1,2.5,2.07,3.72,3.14-2.77,3.24-5.55,6.49-8.28,9.77,1.17,1,2.35,2,3.48,3,2.6-2.75,4.89-5.77,7.41-8.58,1.21,1,2.41,2.08,3.66,3.05-2.34,3-4.88,5.77-7.28,8.69,1.25,1,2.46,2.08,3.65,3.16,2.86-3.26,5.64-6.6,8.44-9.92,1.25,1,2.48,2,3.69,3.11-3.73,4.52-7.55,9-11.35,13.42-.3.58-.75.49-1.14.08-5.91-5-11.79-10-17.74-15C30.77,50.15,34.75,45.57,38.66,40.92Z"/><path class="cls-2" d="M25.85,66.11A12.14,12.14,0,0,1,38.3,75.06a13.88,13.88,0,0,1-1.08,9c-1.48,3-3.15,5.82-4.63,8.78-7.13-3.72-14.19-7.54-21.32-11.27C13,78.38,14.56,75.09,16.43,72A12.43,12.43,0,0,1,25.85,66.11Zm-3,6.37c-2.46,1.38-3.33,4.23-4.71,6.5,4.11,2.38,8.41,4.41,12.53,6.77,1.17-2.08,2.63-4.14,2.91-6.56C34.18,73.9,27.37,69.62,22.87,72.48Z"/><path class="cls-2" d="M75.09,75.14a30.45,30.45,0,0,1,23.54-1.92,30.14,30.14,0,0,1,16.51,13,32.2,32.2,0,0,1,4.38,12.47c1.68,2,3.68,3.88,4.78,6.34,1.06,2.13,1.43,5.11-.41,6.94-1.62,1.75-4.05,2.2-6.26,2.75-.84.11-1.05,1-1.42,1.64a34.56,34.56,0,0,1-2.55,4.27,34.54,34.54,0,0,1-18.46-17.7c-.36,6.77,2.71,13.38,7.42,18.14a66.27,66.27,0,0,0,5.09,4.33,54.17,54.17,0,0,1-11.34,5.28,31.14,31.14,0,0,1-24.49-3.54,28,28,0,0,1-10.89-13,30.9,30.9,0,0,1,0-23.61A30.28,30.28,0,0,1,75.09,75.14Z"/><path class="cls-2" d="M2.68,110.92c8.51-1.91,16.93-4.24,25.44-6.12-.28,1.82-.6,3.64-.87,5.46-1.9.45-3.83.82-5.71,1.38-.51,3.25-1,6.51-1.59,9.75,1.63,1.06,3.3,2.05,5,3.09q-.42,2.74-.89,5.47c-7.4-4.75-14.88-9.37-22.27-14.15C2.07,114.17,2.31,112.53,2.68,110.92Zm6,3.67c2.34,1.35,4.63,2.81,7,4.2.25-2,.65-4,.89-6A74,74,0,0,0,8.67,114.59Z"/><path class="cls-2" d="M186.1,110.35c5.05,3.42,9.18,8,13,12.79a74.68,74.68,0,0,1,12.67,24.77c-8.39-10.31-17.87-19.94-29.19-27A34.79,34.79,0,0,0,186.1,110.35Z"/><path class="cls-2" d="M244.65,114.38c8-.79,16-1.55,24-2.23.27,3.66.8,7.32.89,11a11.88,11.88,0,0,1-6.94,11.17,12.56,12.56,0,0,1-7.75.75,11.86,11.86,0,0,1-8.91-9.1C245.16,122.13,245.1,118.23,244.65,114.38Zm5.38,4.83c.22,2.93.07,6.3,2.29,8.56,3.16,3.29,9.24,2.36,11.47-1.55,1.41-2.51.65-5.49.44-8.19C259.47,118.14,254.76,118.86,250,119.21Z"/><path class="cls-2" d="M152.56,125.8c1.16-.43,2,.81,2.53,1.63,1.51,2.57.67,5.82-1.07,8.06l3.3.08a180.8,180.8,0,0,1-5,20.51c-2.27-2.2-5.75-1.38-8.23-3.22-4.85-2.83-6.79-9.82-3.62-14.57,1-1.7,2.77-2.59,4.28-3.72A39.09,39.09,0,0,0,152.56,125.8Z"/><path class="cls-2" d="M0,134.53c8-.78,16-1.36,24-2,.12,1.75.27,3.49.5,5.22-5,.46-10,.92-15.08,1.2.85,1.13,2.28,1.51,3.44,2.21,2.28,1.33,4.67,2.47,6.92,3.85-3.16,2.42-6.28,4.89-9.4,7.36,5.07-.18,10.12-.82,15.19-1.13.11,1.73.26,3.45.4,5.18-8,.66-16,1.45-24,1.9-.13-1.91-.28-3.81-.35-5.72C4.77,150.25,8,148,11,145.54c-3.55-1.76-7.13-3.49-10.57-5.44C.39,138.23.24,136.38,0,134.53Z"/><path class="cls-2" d="M74.92,140.39a10.93,10.93,0,0,1,9.31-3.44c5.25.28,10.1,2.83,14.16,6,2.13,0,4.25.28,6.38.3,7.22-.13,14.55-1.06,21.22-4,1.27-.7,2.43.53,3.46,1.13,5.2,3.53,8.28,9.39,9.57,15.43a81.24,81.24,0,0,1-26.71,4,113.67,113.67,0,0,1,5.57,11.2,26.26,26.26,0,0,0,7-1.11,26.15,26.15,0,0,1,3.45,21.27,57.3,57.3,0,0,1-15.72-2.66,10.29,10.29,0,0,0-3.15-.66c-11.19,0-22.38,0-33.57,0-3-10.89-5.6-22.08-5.28-33.44C70.93,149.53,71.63,144.25,74.92,140.39Z"/><path class="cls-2" d="M253.41,141c5.81-1.67,12.6,1.39,14.87,7.07a13.57,13.57,0,0,1-3.63,15.34,12.62,12.62,0,0,1-16.71-.92c-5.11-5-4.63-14.16.63-18.86A11.82,11.82,0,0,1,253.41,141Zm.88,5.54a7.18,7.18,0,0,0-4.61,9,7.67,7.67,0,0,0,7.77,5,7.27,7.27,0,0,0,6.81-7.57C264.2,148.19,258.62,144.94,254.29,146.55Z"/><path class="cls-2" d="M6.91,176.55c6.41-6,13-11.74,19.51-17.56.66,1.75,1.23,3.53,1.85,5.29-1.42,1.27-2.85,2.55-4.33,3.75.93,3.22,2.15,6.34,3.15,9.55,1.91.19,3.83.25,5.75.41.78,1.65,1.22,3.43,1.87,5.14q-13.14-.93-26.29-1.93A42.87,42.87,0,0,1,6.91,176.55Zm7.12.32c2.64.21,5.3.24,7.94.52-.61-2-1.32-3.91-2-5.85C18,173.28,15.86,174.93,14,176.87Z"/><path class="cls-2" d="M136.83,172c3.94-3,6.35-7.35,8.92-11.43,2,.85,2.88,2.78,3.62,4.66a20.4,20.4,0,0,1-1.47,5.32c5.7-.63,11.44-.74,17.15-1.28a3.86,3.86,0,0,1,4,2.11,3.7,3.7,0,0,1-2.34,5.1c-4.51.73-9.14.29-13.61,1.25,4.18,1.44,8.59,2.08,12.84,3.28a3.5,3.5,0,0,1,2.64,3.72c.06,1.23-.86,2.15-1.65,3a4.29,4.29,0,0,1-2.86.41c-3.95-.86-7.82-2-11.8-2.74,2.06,2.13,5.32,2.62,7.58,4.55,1.73,1.72.64,5.18-1.83,5.45-1.55.32-2.87-.69-4.18-1.32-2.77-1.42-5.49-2.95-8.32-4.23a10.81,10.81,0,0,1-11.68-8.39A9.37,9.37,0,0,1,136.83,172Z"/><path class="cls-2" d="M244.45,170.85c6.09-2.19,13.6,1.15,15.89,7.24a13.67,13.67,0,0,1-7.16,16.84c-.81-1.55-1.64-3.09-2.45-4.64,2.52-1.34,4.95-3.46,5.29-6.47.61-4.41-3.69-8.17-7.9-8.1a6.88,6.88,0,0,0-6.77,5.36c-.66,1.93.06,3.92.59,5.78-1.48.6-3,1.21-4.39,1.9C233.94,182.35,237.39,173.11,244.45,170.85Z"/><path class="cls-2" d="M35.17,183.85c1,1.86,2.64,3.55,3.21,5.58-1.09,2.75-2.39,5.41-3.66,8.07.67,1.2,1.4,2.38,2.15,3.53,2.16-1.32,4.33-2.63,6.45-4,1,1.52,1.94,3.08,2.91,4.62-6.86,4.18-13.61,8.55-20.54,12.62-2-3.17-3.92-6.32-5.87-9.49a9.46,9.46,0,0,1-1.42-7.43c.85-2.94,3.68-4.88,6.55-5.55A8.1,8.1,0,0,1,31,193.29C32.4,190.14,33.84,187,35.17,183.85ZM23.56,201c.83,2.19,2.34,4,3.51,6.06,1.92-1.17,3.82-2.36,5.73-3.55-1.41-1.9-2.29-4.22-4-5.86C26.63,195.65,22.55,198.23,23.56,201Z"/><path class="cls-2" d="M221.77,205.22c3.38-5.14,6.85-10.21,10.32-15.29,6.62,4.57,13.35,9,19.95,13.55q-5.14,7.44-10.11,15c-1.4-.82-2.75-1.71-4.08-2.62q3.51-5.35,7.15-10.61c-1.27-.94-2.59-1.81-3.89-2.71-2.05,3.13-4.22,6.19-6.26,9.33-1.3-.9-3-1.55-3.91-2.81,2-3.1,4-6.13,6.17-9.13-1.32-1-2.67-1.86-4-2.84-2.54,3.54-4.88,7.21-7.37,10.79C224.44,207,223.11,206.1,221.77,205.22Z"/><path class="cls-2" d="M45.66,207.72c.57-.66,1.5-.26,2.22-.18a15.41,15.41,0,0,1,10.92,8.28,12.42,12.42,0,0,1,.92,7.17,12.61,12.61,0,0,1-15.38,10A14.41,14.41,0,0,1,34,220.38c1.79-.22,3.59-.36,5.38-.46.08,3.5,2.39,7.11,5.91,7.92,4.87,1.07,9.84-3.69,9.25-8.57a8.45,8.45,0,0,0-6.21-6.43c-1.17.29-1.8,1.56-2.7,2.3,1.27,1.22,2.52,2.47,3.76,3.73-1.11,1.1-2.22,2.21-3.35,3.3-2.48-2.49-5-5-7.41-7.5C40.93,212.32,43.23,210,45.66,207.72Z"/><path class="cls-2" d="M215.61,211.76c1.27-1.29,2.61-2.52,3.95-3.74,5.44,5.88,11.06,11.6,16.54,17.44-1.16,1.14-2.37,2.24-3.5,3.41-6.07-.85-12.09-2-18.16-2.81q5,5.21,10,10.48c-1.27,1.24-2.55,2.47-3.84,3.71-5.54-5.83-11.16-11.59-16.62-17.5,1.15-1,2.23-2.1,3.38-3.11,6.22,1.19,12.52,1.91,18.73,3.14C222.66,219.05,219.14,215.4,215.61,211.76Z"/><path class="cls-2" d="M70.32,227.29c5.94-.2,11.85,4,13.18,9.91a12.64,12.64,0,0,1-7.57,14.45,13.42,13.42,0,0,1-16.3-6.31,12.46,12.46,0,0,1,3.16-15.26A12.17,12.17,0,0,1,70.32,227.29Zm-.82,5.34a8,8,0,0,0-5.56,9.27,7.24,7.24,0,0,0,7.71,5.36c4.65-.45,8.05-6.06,6.18-10.37A7.26,7.26,0,0,0,69.5,232.62Z"/><path class="cls-2" d="M190.75,231.25c1.52-1,3.09-1.92,4.63-2.88,3.36,5.43,6.58,10.93,10,16.29,2-1.31,4.09-2.59,6.2-3.77.8,1.41,1.66,2.8,2.54,4.17-5.58,3.64-11.37,7-17,10.52-.9-1.41-1.76-2.84-2.66-4.23,2.05-1.34,4.15-2.59,6.24-3.86C197.37,242.1,194.13,236.63,190.75,231.25Z"/><path class="cls-2" d="M164.38,242.64c5.77-2.15,11.53-4.31,17.34-6.33,2.64,7.54,5.45,15,8.24,22.52-5.65,2.21-11.4,4.17-17.07,6.34-.55-1.52-1.1-3-1.7-4.52,4-1.52,8-3,12-4.44a38.29,38.29,0,0,0-1.67-4.46c-3.46,1.39-7,2.58-10.48,3.92-.59-1.49-1.13-3-1.71-4.51,3.51-1.34,7-2.62,10.57-3.88-.48-1.57-1.09-3.09-1.68-4.62-4.08,1.47-8.12,3-12.22,4.44C165.54,245.59,165,244.1,164.38,242.64Z"/><path class="cls-2" d="M90,237c2,.62,4,1.27,5.93,1.91.85,3,1.67,6,2.54,8.95,1.29.42,2.58.83,3.89,1.15.7-2.42,1.53-4.81,2.31-7.21l5.13,1.71c-2.58,7.56-5,15.18-7.47,22.78-3.29-.91-6.49-2.08-9.74-3.13-2.17-.7-4.43-1.63-5.85-3.5-2.57-3.19-1.66-8.25,1.28-10.9a8.7,8.7,0,0,1,4.83-1.85C91.95,243.6,91,240.3,90,237Zm1.84,20.39c2,1.38,4.54,1.81,6.84,2.57.69-2.11,1.37-4.21,2.12-6.29-2.25-.72-4.44-1.76-6.8-2C91.21,251.51,89.61,255.64,91.88,257.39Z"/><path class="cls-2" d="M126.2,245.72c1.81.18,3.61.37,5.42.6-.86,7.92-2,15.83-2.53,23.77-3.48-.15-6.93-.68-10.39-1a8.9,8.9,0,0,1-7.09-4.63c-1.49-3.63-.66-8.53,2.88-10.68,3.3-2.12,7.37-1.27,11-.91C125.7,250.45,126.1,248.1,126.2,245.72Zm-7.3,11.57a3.54,3.54,0,0,0-1.55,5.92c1.9,1.51,4.51,1.16,6.76,1.56.35-2.35.51-4.72.9-7.06A18.1,18.1,0,0,0,118.9,257.29Z"/></g></g></svg>