<svg xmlns="http://www.w3.org/2000/svg" viewBox="0 0 266.84 267.14"><defs><style>.cls-1{fill:#00acc1;}.cls-2{fill:#ffab00;}</style></defs><title>ProyectosInnovacion</title><g id="Layer_2" data-name="Layer 2"><g id="Layer_1-2" data-name="Layer 1"><path class="cls-1" d="M129.17.32a13.54,13.54,0,0,1,11.28,2.4c5.25,4,6,12.42,1.71,17.43-4.7,5.79-14.63,6-19.54.35a12.54,12.54,0,0,1-1.55-14A12.16,12.16,0,0,1,129.17.32Zm.41,5.09a7.28,7.28,0,0,0-4.33,7.33c-.07,4.36,4.61,8,8.82,6.71,4.47-.95,6.67-6.64,4.49-10.52A7.07,7.07,0,0,0,129.58,5.41Z"/><path class="cls-1" d="M149.46.72c1.9.43,3.8.84,5.71,1.21C156,7.7,157,13.45,157.69,19.25c3.53-4.7,6.3-9.93,9.6-14.8,1.85.43,3.71.82,5.57,1.21-4.64,7.22-9.54,14.27-14.21,21.46q-2.38-.38-4.74-.94C152.51,17.68,150.92,9.21,149.46.72Z"/><path class="cls-1" d="M106.06,3.11c1.68-.39,3.35-.81,5-1.27C113.18,9.5,115,17.25,117,24.95c-1.51.27-3,1-4.52.93-4.91-3.67-9.6-7.66-14.48-11.38,1.09,4.79,2.38,9.54,3.63,14.3-1.72.5-3.46.93-5.22,1.3-1.77-7.7-3.86-15.32-5.76-23,1.58-.49,3.19-.91,4.81-1.26,4.67,3.75,9.36,7.47,14,11.2C108.47,12.37,107.16,7.76,106.06,3.11Z"/><path class="cls-1" d="M77.17,12.81c1.55-.84,3.12-1.66,4.73-2.39,3.64,7,7.22,14.1,11,21.08-1.34.73-2.71,1.42-4.06,2.14-5.65-2.66-11.29-5.37-17-8,2.3,4.38,4.49,8.84,6.88,13.18-1.58.86-3.17,1.7-4.79,2.47C70.38,34.18,66.65,27.17,63,20.11c1.47-.78,3-1.53,4.44-2.28,5.38,2.58,10.75,5.16,16.17,7.65C81.66,21.17,79.23,17.08,77.17,12.81Z"/><path class="cls-1" d="M167.82,28.8c6.52-5.74,12.9-11.64,19.31-17.51,1.48.67,3,1.37,4.45,2-.09,8.7-.62,17.38-.68,26.09-1.71-.73-3.39-1.49-5.08-2.24,0-1.82.25-3.63.23-5.44-.43-.67-1.24-.88-1.9-1.24-2.39-1-4.76-2.16-7.14-3.25-1.38,1.34-2.77,2.69-4.26,3.92C171.12,30.36,169.45,29.6,167.82,28.8Zm13-5.05c1.84.84,3.69,1.66,5.54,2.51,0-2.62.19-5.24.34-7.86C184.61,20.06,182.69,21.9,180.8,23.75Z"/><path class="cls-1" d="M51.92,28.32c1.45-1,2.87-2.11,4.29-3.18C61,31.48,65.68,37.9,70.5,44.22c-1.45,1.11-2.89,2.21-4.39,3.24C61.43,41,56.61,34.73,51.92,28.32Z"/><path class="cls-1" d="M203.38,26.84a12.27,12.27,0,0,1,9.18-.46A13.93,13.93,0,0,1,221.49,37c-1.69.37-3.39.73-5.07,1.12-.68-3-2.43-6.08-5.58-7-4.65-1.31-9.38,3.09-9.27,7.72a6.64,6.64,0,0,0,3.64,5.86c1.64,1.06,3.66.95,5.53.87.26,1.59.51,3.19.68,4.79-6.94,1.64-14.67-3.8-15.18-11A12.72,12.72,0,0,1,203.38,26.84Z"/><path class="cls-1" d="M210.88,56q8.58-8.31,17.27-16.53c1.23,1.28,2.41,2.61,3.66,3.88-5.74,5.52-11.46,11.05-17.23,16.53Z"/><path class="cls-1" d="M26.32,54.2C30.21,49.62,34,45,38,40.46c1.2,1,2.41,2.09,3.65,3.08q-4.1,4.86-8.21,9.69c1.17,1,2.35,2,3.51,3,2.49-2.7,4.63-5.74,7.22-8.35a34.83,34.83,0,0,1,3.65,2.86c-2.27,2.95-4.74,5.72-7.15,8.54,1.28.92,2.28,2.58,3.86,2.88,2.74-3.14,5.38-6.36,8.08-9.53,1.25,1,2.49,2,3.67,3.13q-5.86,6.92-11.71,13.85Q35.45,61.9,26.32,54.2Z"/><path class="cls-1" d="M233.78,53.16c8-.37,14.65,7.91,12.89,15.61-1.1,5.79-6.92,10-12.73,9.65-7-.28-12.69-7.12-12-14C222.23,58.3,227.77,53.34,233.78,53.16Zm-1.21,5.72c-3,1-5.57,3.89-5.47,7.17A7.16,7.16,0,0,0,233,73c4.82.72,9.88-4.12,8.55-9A7.1,7.1,0,0,0,232.57,58.88Z"/><path class="cls-1" d="M244.67,56.18c2.33.05,4.66.2,7,.47.24,1.62.57,3.22.87,4.83a53.77,53.77,0,0,1-5.52-2A31.12,31.12,0,0,1,244.67,56.18Z"/><path class="cls-1" d="M17.6,68.9a11.59,11.59,0,0,1,11.58-3.75,12,12,0,0,1,8.29,7.05,12.87,12.87,0,0,1-.66,10.45c-1.47,2.89-3.11,5.69-4.56,8.59C25.18,87.57,18.19,83.75,11.17,80,13.36,76.32,14.89,72.22,17.6,68.9ZM22.85,71c-2.49,1.39-3.57,4.2-4.75,6.64q6.18,3.18,12.25,6.56c1.18-2.21,2.83-4.38,2.91-7C33.39,72.32,27.14,68.52,22.85,71Z"/><path class="cls-1" d="M232.63,85.59c7.47-2.75,14.89-5.64,22.39-8.29A27.85,27.85,0,0,1,256.59,82c-3.07,5.16-6.54,10.08-9.5,15.3,4.41-1.9,9-3.51,13.49-5.09.59,1.62,1.19,3.24,1.85,4.83q-11.19,4.23-22.42,8.34c-.51-1.42-1-2.84-1.53-4.26,3.31-5.26,6.67-10.49,9.94-15.78-4.65,1.67-9.28,3.43-13.9,5.17C233.9,88.87,233.29,87.22,232.63,85.59Z"/><path class="cls-1" d="M137.95,82.61a17.54,17.54,0,0,1,19.7-3.13,18.85,18.85,0,0,1,9.12,10.1c3.5-.55,7.3-.62,10.43,1.3a13.53,13.53,0,0,1,6.71,12.06c-.15,1.65-.71,3.22-1,4.83,3.18,1.81,6.19,4.13,7.9,7.46,3.48,5.84,2.82,13.51-1.06,19-2.93-2.17-6.51-3.77-10.22-3.45-1.52.12-2.53,2.25-1.4,3.4.69,1,2,1,3.06,1.1a9.34,9.34,0,0,1,7.13,4.16,13.24,13.24,0,0,1-.39,15,13.63,13.63,0,0,1-7.67,5.13,20.2,20.2,0,0,1,.89,11.62,17.67,17.67,0,0,1-12,12.5,19.13,19.13,0,0,1-13.24-1.13,15,15,0,0,1-7.43-12.5,2.62,2.62,0,0,0-1.1-2.45c-1.11-1.17-3.3-.06-3.33,1.48-.42,7.12,3.93,13.8,9.82,17.51-5,4.14-13.26,4.2-17.73-.73-.22-33.34,0-66.7-.1-100C135.77,84.35,137.12,83.53,137.95,82.61Zm4.31,14.94a13.34,13.34,0,0,0,11.68,19.57c1.87.29,3.28-2.46,1.68-3.67-1.68-1.4-4.28-.53-6.06-1.9-5.18-2.76-5.9-10.8-1.41-14.51a9,9,0,0,1,12.78,1c1.84,1.84,1.82,4.53,2.44,6.89.68,1.37,2.29,1,3.46.66a5.89,5.89,0,0,1,6.13,1.81,6.29,6.29,0,0,1-.7,9c-1.83,1.83-5.35.55-6.35,3.39l.76,1.82c2,.84,4.27,1.82,5.06,4.05,1.9,3.74-1.24,8.91-5.52,8.6-1.59.22-3-.57-4.36-1.24a2,2,0,0,0-3,1.85c-.16,1.46,1.23,2.21,2.33,2.78a10.36,10.36,0,0,0,9.79-.05,11.15,11.15,0,0,0,5.81-9.12,11.54,11.54,0,0,0-3-7.66,14.09,14.09,0,0,0,4-4.27,10.55,10.55,0,0,0-1-11.45,11.06,11.06,0,0,0-9.56-4.27,14,14,0,0,0-10-10.07A13.48,13.48,0,0,0,142.26,97.55ZM144,124.94a10.64,10.64,0,0,0-4.81,11.47c.61,3,2.77,5.26,5.15,7a10.73,10.73,0,0,0,12.86,15.54c.78,4.34,4,8.26,8.43,9.18,2.12.46,3.75-3,1.51-4-2.61-.87-5.27-2.75-5.4-5.76a6.14,6.14,0,0,1,6.56-6.89c1.85-.15,3.27,1.67,5.1,1.32a2.63,2.63,0,0,0,1.51-2.54c-.63-1.64-2.46-2.3-4-2.82a10.4,10.4,0,0,0-10.66,2.85c-1.19,1.25-1.94,2.93-3.42,3.89a6.63,6.63,0,0,1-7.37-.48,6.26,6.26,0,0,1-.84-8.67c.58-.82,1.56-1.55,1.48-2.66.07-1.53-1.59-2.09-2.73-2.56a6,6,0,0,1-4-6,6.14,6.14,0,0,1,6.28-6c1.74-.13,3.1,1.14,4.73,1.5a2.23,2.23,0,0,0,1.45-3.8A10.23,10.23,0,0,0,144,124.94Z"/><path class="cls-1" d="M2.88,112.77c-1.58-4.85.81-10.12,4.39-13.43,1.19,1.15,2.36,2.33,3.54,3.49-1.68,1.84-3.47,3.87-3.72,6.46a2.14,2.14,0,0,0,2.33,2.53c1.11-.05,1.49-1.27,2-2,1.69-2.92,2.83-6.73,6.22-8.13A7.69,7.69,0,0,1,25,103.34,7.78,7.78,0,0,1,27,108.1a15.27,15.27,0,0,1-6,12.69c-1-1.31-2.11-2.61-3.12-4,1.89-1.68,3.72-3.64,4.22-6.21.53-1.43.16-3.64-1.61-3.9-1.15-.27-1.81.85-2.37,1.64-1.79,2.8-2.65,6.48-5.69,8.26C9,118.24,4.17,116.54,2.88,112.77Z"/><path class="cls-1" d="M252.08,118.15c4.83,0,9.64-.59,14.47-.57,0,4,.47,7.93.2,11.89a11.71,11.71,0,0,1-8.32,10c-3.59.85-7.68.47-10.65-1.88-3.15-2.37-4.63-6.35-4.76-10.18-.07-3-.18-5.92-.37-8.88C245.8,118.5,248.94,118.14,252.08,118.15Zm-4.18,5.4c-.18,3-.27,6.5,1.93,8.87a7.33,7.33,0,0,0,11-1c1.71-2.38,1-5.44,1-8.15C257.21,123.09,252.56,123.53,247.91,123.55Z"/><path class="cls-1" d="M8.54,123.38a12.75,12.75,0,0,1,11.95,2.51c5.45,4.77,5.51,14.25.17,19.13a11.78,11.78,0,0,1-8.59,3.05,12,12,0,0,1-11.55-8.8,13.68,13.68,0,0,1,1.42-10.82A11.58,11.58,0,0,1,8.54,123.38Zm1.56,5.34A7.17,7.17,0,0,0,5,136.34c.35,4.46,5.56,7.44,9.66,5.88a7.06,7.06,0,0,0,4.73-8.89C18.29,129.54,13.73,127.48,10.1,128.72Z"/><path class="cls-1" d="M250.12,144.67a12.51,12.51,0,0,1,13.3,5.54c3.79,6,1.42,15-5,18.2-5.84,3.13-14,.49-16.7-5.6C238.32,155.9,242.31,146.2,250.12,144.67Zm0,5.72a7.24,7.24,0,0,0-4.58,7.38,7.4,7.4,0,0,0,7.65,6.34c4.27.21,7.92-4.25,7-8.4C259.3,151.4,254.11,148.78,250.08,150.39Z"/><path class="cls-1" d="M1.45,153.44c1.6-.38,3.2-.75,4.79-1.16.59,2.34,1,4.7,1.64,7,6.18-1.29,12.3-2.84,18.49-4,.31,1.74.71,3.47,1,5.21-6.16,1.25-12.28,2.7-18.41,4.1.58,2.35,1.11,4.7,1.56,7.08-1.61.28-3.21.65-4.82.94C4.37,166.21,2.89,159.82,1.45,153.44Z"/><path class="cls-1" d="M23.9,174.35c.58-1.53,1.16-3.06,1.82-4.55a12.9,12.9,0,0,1,7.62,6.72,12.49,12.49,0,0,1-.95,12.78,12.84,12.84,0,0,1-14.54,4.34c-6.42-2.41-9.74-10.38-7.44-16.75,1.7.46,3.38,1,5.07,1.47a11,11,0,0,0-.58,4.57,7,7,0,0,0,4.65,5.66c4.78,1.72,10.8-2.7,9.95-7.9C29.11,177.63,26.58,175.51,23.9,174.35Z"/><path class="cls-1" d="M238.6,173.67a12.81,12.81,0,0,1,15.94,5.15c3.93,6.54.25,15.84-6.76,18.5-.79-1.56-1.51-3.15-2.23-4.74,2.63-1.25,5.19-3.4,5.5-6.49.51-4.38-3.8-8.18-8-7.93-3.66-.15-6.72,3.26-6.7,6.82a14.3,14.3,0,0,0,.67,3.89c-1.54.56-3.07,1.14-4.61,1.69-.66-2.3-1.51-4.71-.93-7.13A12.93,12.93,0,0,1,238.6,173.67Z"/><path class="cls-1" d="M35.44,192.9c1.28-1,2.59-1.9,3.88-2.86C42.86,195,46.5,199.82,50,204.8q-9.66,6.94-19.27,13.94c-3.57-4.83-7-9.72-10.58-14.57Q22,202.73,24,201.35c2.39,3.45,4.95,6.78,7.33,10.24,1.29-.85,2.54-1.75,3.83-2.62-2.15-3.05-4.37-6.05-6.56-9.08,1.29-.95,2.57-1.9,3.83-2.87,2.24,3,4.42,6,6.58,9.09,1.31-.94,2.61-1.89,3.91-2.84C40.45,199.82,38,196.33,35.44,192.9Z"/><path class="cls-1" d="M216.73,205.75c3.54-4.95,7.13-9.86,10.71-14.77,6.36,4.79,12.93,9.31,19.28,14.12-3.6,4.77-7,9.67-10.58,14.48l-3.87-2.76c2.38-3.52,5-6.88,7.42-10.37q-1.88-1.29-3.7-2.66c-2.25,2.95-4.36,6-6.58,9-1.32-.89-2.6-1.82-3.9-2.73,2.13-3.05,4.33-6.06,6.56-9a35.23,35.23,0,0,0-3.9-2.75c-2.62,3.31-4.92,6.86-7.5,10.2C219.26,207.67,218,206.65,216.73,205.75Z"/><path class="cls-1" d="M210.92,211.54c1.28-1.21,2.58-2.41,3.91-3.56,5.37,5.85,10.6,11.82,16,17.67L227.19,229c-5.93-1.12-11.84-2.37-17.79-3.32,3.2,3.52,6.37,7.07,9.58,10.59-1.27,1.26-2.62,2.44-4,3.57-5.24-6-10.68-11.77-15.88-17.76a35.52,35.52,0,0,1,3.39-2.87c6.13,1,12.22,2.3,18.34,3.39C217.59,218.86,214.18,215.27,210.92,211.54Z"/><path class="cls-1" d="M51.92,218.42c1.87-2,3.76-4,5.56-6.11,1.34,1.23,2.67,2.48,4,3.71-2,2.14-4.07,4.33-6,6.54a5,5,0,0,0-.79,2.37c-.83,4.94-1.82,9.86-2.63,14.8-1.55-1.37-3-2.83-4.57-4.2.65-3.62,1.52-7.2,2.23-10.8-3.62.87-7.13,2.51-10.85,2.83-1.48-1.17-2.76-2.59-4.17-3.84,5.06-1.41,10.16-2.7,15.24-4A3.52,3.52,0,0,0,51.92,218.42Z"/><path class="cls-1" d="M68.23,226.08c6.69-1.85,14.46,2.68,15.88,9.53,1.79,7-3.92,14.88-11.25,14.92-6.85.61-13.64-5.21-13.74-12.15A12.31,12.31,0,0,1,68.23,226.08Zm3.35,4.63a8.08,8.08,0,0,0-7,7.15,7.33,7.33,0,0,0,7.29,7.7,8,8,0,0,0,7.07-8.89A7.38,7.38,0,0,0,71.58,230.71Z"/><path class="cls-1" d="M186.24,229.8c1.55-.88,3.09-1.78,4.63-2.68,3.19,5.44,6.34,10.9,9.5,16.35,2.05-1.25,4.13-2.49,6.26-3.61.82,1.42,1.64,2.85,2.43,4.29-5.71,3.29-11.39,6.64-17.12,9.89-.81-1.45-1.65-2.88-2.46-4.32,2.1-1.19,4.21-2.36,6.22-3.68C192.49,240.67,189.4,235.22,186.24,229.8Z"/><path class="cls-1" d="M89.8,234.69c2,.61,4,1.23,6,1.92Q97,241,98.37,245.37c1.27.4,2.55.76,3.85,1,.64-2.38,1.43-4.71,2.15-7.07,1.73.49,3.45,1.05,5.17,1.62-2.53,7.53-4.83,15.14-7.26,22.7-3.71-1.24-7.47-2.33-11.16-3.59a8.65,8.65,0,0,1-5.53-5.15,9.09,9.09,0,0,1,1.78-8,8.76,8.76,0,0,1,5.44-2.49C91.74,241.22,90.87,237.93,89.8,234.69Zm2,20c2,1.52,4.58,1.77,6.85,2.69.69-2.1,1.34-4.22,2.09-6.3a54,54,0,0,0-6.45-1.89C91.49,248.79,89.44,252.93,91.78,254.7Z"/><path class="cls-1" d="M160.63,240.31c5.72-2,11.43-4,17.19-5.94,2.44,7.56,5.34,15,7.66,22.56-5.63,1.9-11.25,3.84-16.84,5.87-.57-1.53-1.09-3.06-1.58-4.6,4-1.34,8-2.69,11.92-4.15-.47-1.45-1-2.89-1.47-4.33-3.57,1.1-7,2.52-10.62,3.57-.47-1.5-1-3-1.56-4.44,3.49-1.25,7-2.4,10.51-3.67-.45-1.54-1-3.05-1.5-4.55-4.06,1.35-8.06,2.87-12.15,4.15C161.66,243.28,161.16,241.79,160.63,240.31Z"/><path class="cls-1" d="M125.1,243c1.79.13,3.58.33,5.38.51-.84,7.88-1.63,15.77-2.52,23.65-3.06-.26-6.1-.64-9.16-.92a10.43,10.43,0,0,1-6.29-2.44c-4-3.52-3-11,1.85-13.28,3.14-1.56,6.73-.9,10.05-.45A61.55,61.55,0,0,0,125.1,243Zm-9.29,16.5c1.65,2.37,4.9,1.88,7.41,2.28.21-2.35.52-4.68.78-7-1.77-.14-3.52-.51-5.3-.51A3.68,3.68,0,0,0,115.81,259.48Z"/><path class="cls-2" d="M112.51,78.43a17.49,17.49,0,0,1,17.19,4.42c.77.84,1.94,1.63,1.7,2.94q0,45.07,0,90.14c-.06,3.32.12,6.65-.07,10-4.57,4.79-12.72,4.8-17.73.65,5.33-3.35,9.36-9,9.84-15.41,0-1.26.31-3-1-3.7-1.47-1.05-3.47.54-3.4,2.17a15,15,0,0,1-6.16,12.08c-6.78,4.37-16.67,3.3-22.14-2.75-5.11-5-6.06-13-3.51-19.45A13.19,13.19,0,0,1,77.45,150a13,13,0,0,1,1.88-10.89,9.89,9.89,0,0,1,8-4,2.46,2.46,0,0,0,2-1,2.12,2.12,0,0,0-1.44-3.41c-3.71-.33-7.26,1.31-10.19,3.45a17.79,17.79,0,0,1,7-26.44,13.94,13.94,0,0,1,.92-12.44,13.12,13.12,0,0,1,9.16-6,18.88,18.88,0,0,1,5.95.34A18,18,0,0,1,112.51,78.43Zm-12.25,22.39c-6-.61-11.87,4.48-11.82,10.56-.23,3.86,2.2,7.24,5.18,9.44a12.05,12.05,0,0,0-2.9,6.64,10.86,10.86,0,0,0,10.94,11.38c2.8-.14,6.21-1.16,7.33-4a6.92,6.92,0,0,0-2.42-2.37c-2.4,1.61-5.64,2.66-8.33,1.08a6.3,6.3,0,0,1-1.79-9.22c1.13-1.89,4-1.73,4.87-3.78a2.31,2.31,0,0,0-2.43-2.75A6.22,6.22,0,0,1,99,105.34c1.45-.09,2.93,1.09,4.33.34,1.58-1.23.89-3.5,1.66-5.14a9,9,0,0,1,12.28-4.78c5.29,2.28,6.66,10.07,2.62,14.11-1.77,2.14-4.57,2.71-7.18,3a2.25,2.25,0,0,0-.39,4.14c4.57.75,9.28-1.76,11.89-5.45a13.19,13.19,0,0,0,1.1-13.61,13.49,13.49,0,0,0-13.5-7.45A13.82,13.82,0,0,0,100.26,100.82Zm11.25,24.65a2.09,2.09,0,0,0,.4,3.38c1,.94,2.24-.09,3.24-.46a6.19,6.19,0,0,1,8.24,2.85,6.35,6.35,0,0,1-1.14,7.1c-1.06,1.26-2.77,1.48-4.09,2.32a2.19,2.19,0,0,0-.23,3.45,6.27,6.27,0,0,1,2.08,5.17c.08,3.8-4,6.63-7.62,5.66-3.15-.52-4.12-4-6.43-5.69-3.61-2.93-9.3-3.13-12.86,0-1.77,1.32.26,4.46,2.18,3.54,1.36-.61,2.73-1.39,4.28-1.26a6,6,0,0,1,6,6.28c.19,3.26-2.66,5.74-5.65,6.31-.37.77-1.17,1.66-.7,2.56s1.42,1.75,2.46,1.49a11.38,11.38,0,0,0,8.42-9.17A10.75,10.75,0,0,0,123,143.39c2.11-1.61,4.16-3.56,4.92-6.19a10.66,10.66,0,0,0-4.26-12.05A10.28,10.28,0,0,0,111.51,125.47Z"/><path class="cls-2" d="M141.5,250c3.21-1.4,7.36,1.23,7,4.83.33,4.2-5.48,6.74-8.42,3.79C137.23,256.38,138,251.24,141.5,250Z"/></g></g></svg>