<svg xmlns="http://www.w3.org/2000/svg" viewBox="0 0 266.84 261.47"><defs><style>.cls-1{fill:#00acc1;}.cls-2{fill:#ffab00;}</style></defs><title>TalleresAcademicos</title><g id="Layer_2" data-name="Layer 2"><g id="Layer_1-2" data-name="Layer 1"><path class="cls-1" d="M169.06,0l5,1.2c-2,8-3.89,16-5.87,24l-5-1.26c.19-.58.55-1.74.74-2.31-2.49,1.47-5.58,2.34-8.18.57-7.37-3.93-4.46-17,3.74-17.72,3.12-.47,5.63,1.63,7.59,3.74C167.71,5.46,168.38,2.73,169.06,0Zm-9.31,9.42c-3.4,1.46-4.32,7-1.06,9.08,2.94,2,6.86-.79,6.83-4.12C166.28,11.21,162.82,8,159.75,9.42Z"/><path class="cls-1" d="M92.86,2.41q2.28-.64,4.57-1.31c5.43,6.68,11,13.23,16.49,19.9q-2.58.77-5.16,1.56l-3.63-4.43q-4.85,1.41-9.65,2.89c-.14,1.9-.28,3.77-.43,5.67l-5.18,1.5C91,19.61,91.74,11,92.86,2.41ZM96.06,16c2-.59,4-1.19,6-1.8-1.76-2.15-3.49-4.31-5.27-6.44C96.57,10.53,96.26,13.27,96.06,16Z"/><path class="cls-1" d="M117.34,3.43c3.6-2.21,8.09-1.43,11.56.64-.9,1.29-1.81,2.56-2.73,3.84-1.9-.76-4.13-2.2-6.11-.81-3.43,2.11-2.83,7.9.93,9.28,2.35.65,4.36-.79,6.16-2.05,1.06.93,2.11,1.89,3.15,2.83-3.54,4.12-10.46,5.35-14.53,1.34C111.19,14.59,112,6.25,117.34,3.43Z"/><path class="cls-1" d="M133,2.78c4.63-1.23,11.29-2.1,14.08,2.77,1.71,4.85,0,10.09.2,15.1l-4.87-.36V18.64c-2.69,1.64-6.21,2.49-9,.67-3.6-2-3.2-8,.53-9.6,3-1.29,6.4-.27,9.52,0-1-4.43-5.85-3.69-9.17-3C133.8,5.4,133.38,4.09,133,2.78Zm3.38,13.69c2.75.9,7.23.5,6.85-3.4a8.53,8.53,0,0,0-5.61-.68C136.12,13.26,136.4,15,136.36,16.46Z"/><path class="cls-1" d="M184.47,10.29c2-1.28,3.9-2.6,5.88-3.86,1.06,1.19,2.13,2.39,3.22,3.56-1.95.64-3.89,1.27-5.82,1.93Z"/><path class="cls-1" d="M176.63,13.8c4.34-3.68,11.85-1.6,13.71,3.76,1.13,3-.11,6.12-1.11,9-4.07-1.68-8-3.72-12.14-5.14,0,4.24,4.2,6.25,8,5.41.52,1.2,1,2.4,1.48,3.62-3.92,1.15-8.47.62-11.33-2.54C171.19,24,172.3,17,176.63,13.8Zm1.9,4.34a73.72,73.72,0,0,0,7.7,3.43c-.16-2-.27-4.62-2.65-5.22C181.68,15.39,180.06,17.32,178.53,18.14Z"/><path class="cls-1" d="M62.82,24c1.67-3.66,6-4.45,9.57-5.15.2,1.38.33,2.75.44,4.14-2.5.56-6.42.55-6.36,4.09,3.56-.1,7.56-2.34,10.89-.36a5.45,5.45,0,0,1,.54,8.21c-2.51,2.92-6.5,3.52-10.12,3.83,0-1.37,0-2.73,0-4.1,3-.33,7-.44,7.82-4.11-3,0-5.86.91-8.82,1C63.28,31.38,61.16,26.94,62.82,24Z"/><path class="cls-1" d="M188.15,33.62q5.52-7.13,10.89-14.35l4.17,3-1.56,1.82a7.15,7.15,0,0,1,8.78,6.18c2.43.2,5.21.34,6.92,2.37a5.41,5.41,0,0,1,.77,6.94c-2.36,3.76-5.23,7.17-7.93,10.68l-4-3.06c2.33-3.31,5.14-6.32,7.07-9.89.72-2.8-3.37-4.91-5.17-2.62-2.48,2.77-4.5,5.91-6.78,8.85l-4.13-3.1c2.26-3.21,5-6.13,6.91-9.57,1.47-2.73-3-5.32-4.85-3-2.61,2.68-4.59,5.89-6.85,8.84C190.94,35.74,189.55,34.69,188.15,33.62Z"/><path class="cls-1" d="M46.72,38.26c.54-4.85,5.71-8.87,10.55-7.54,2.69.59,4.6,2.71,6.52,4.51-3.25,3-6.69,5.72-9.86,8.78,4,2,7.47-1.11,8.29-4.92l3.9.05c-.41,4.72-3.83,9.23-8.7,9.85C51.5,50,45.95,44,46.72,38.26Zm6-2.64c-2.09,1.25-1.42,3.87-1,5.82C53.85,39.71,56,37.87,58,36,56.35,35.46,54.26,34.17,52.67,35.62Z"/><path class="cls-1" d="M211.81,52.86c5.87-5.78,12.52-10.75,17.92-17,1.26,1.45,2.54,2.89,3.83,4.33-1.27.92-2.49,1.93-3.84,2.73l-1.53-2.18-1.48,1.59,1.57,2.09c-4.21,4.26-8.73,8.2-13.13,12.27C214,55.44,212.93,54.14,211.81,52.86Z"/><path class="cls-1" d="M40,47.67a8.58,8.58,0,0,1,.62-7.14,31.13,31.13,0,0,1,4,3.55c-.47,2.11-2.16,4.43-.51,6.45,1.86,2.69,4.65,4.52,7,6.72l-3.5,3.8c-4.49-4-9.07-7.94-13.61-11.9,1.16-1.25,2.3-2.52,3.44-3.79C38.23,46.14,39.09,46.91,40,47.67Z"/><path class="cls-1" d="M220.84,63.24c-2.28-6.61,5-13.64,11.54-11.59,4.9,1.22,7.83,6.46,7.29,11.33l-4.48-.5c-.22-2.07-.31-4.64-2.42-5.75-3.49-1.87-8.21,1.6-7.54,5.44.46,2.42,2.87,3.35,4.81,4.31-.23,1.39-.52,2.76-.85,4.13C225.38,69.69,221.81,67.23,220.84,63.24Z"/><path class="cls-1" d="M24.38,65.3c-.24-5.2,4.85-10.23,10.16-8.88,1.75.52,4.41,1,5,2.87C37.67,63,35,66.3,33,70c4.27.78,7-3,6.6-7,1.26-.36,2.52-.73,3.78-1.07a10.79,10.79,0,0,1-5.8,12C31.81,76.47,24.56,71.48,24.38,65.3Zm5-2.94c-1.5,1.88,0,4,.82,5.77,1.59-2.31,3.12-4.68,4.6-7.08C32.92,61,30.46,60.39,29.33,62.36Z"/><path class="cls-1" d="M106.92,65.9c12.93-6.62,30.27-2.67,38.75,9.22a32.07,32.07,0,0,1,6.19,16.74c2.53,3.1,5.67,6.63,5.17,10.92-.78,4-5.4,4.71-8.69,5.55-1.29,1.79-2.09,4.27-4.1,5.35a36.21,36.21,0,0,1-17.39-18.29c-.61,9.1,4.6,17.52,11.69,22.84-7,3.79-15,6.67-23,5.27-11.65-1.3-22.06-10.1-24.82-21.54C86.64,88.07,93.84,72.05,106.92,65.9Z"/><path class="cls-1" d="M236.06,68.16c7.54-3.43,15.81,5.52,12.66,12.86-2.19,6.43-11.68,8.1-15.84,2.66C228.36,79.07,229.84,70.42,236.06,68.16Zm1.77,4.76c-3.26,1.21-4.16,6.07-1.26,8.17,2.8,2.4,7.65.23,8.12-3.33C245.36,74.18,241.08,70.93,237.83,72.92Z"/><path class="cls-1" d="M11.15,74.18q1.09-2.31,2.17-4.63c7.45,3.51,14.87,7.09,22.34,10.58q-1.13,2.3-2.24,4.62C26,81.28,18.57,77.71,11.15,74.18Z"/><path class="cls-1" d="M8.79,79.81c7.72,2.93,15.5,5.69,23.17,8.77l-2,4.75c-7.61-3-15.34-5.77-23-8.75Z"/><path class="cls-1" d="M246,89.59a5.56,5.56,0,0,1,8.2,0c2.47,2.75,2.26,6.68,1.94,10.11l-4-.67a13.6,13.6,0,0,0-.89-7.43c-3.25,2.4-1,7-3.23,10a5.41,5.41,0,0,1-8.57-.41C237,98,237.3,93.71,238.2,90l3.87,1.08c-.28,2.71-1.61,7,1.86,8.24C245.47,96.3,244,92.47,246,89.59Z"/><path class="cls-1" d="M8.5,107c-.13-4.61,0-11.17,5.1-13.13,5.16-.86,10.14,1.62,15.19,2.44-.65,1.8-.7,4-2.5,5.16.58,2.46.87,5.2-.69,7.38-1.93,3.87-8.45,3.18-9.78-.81-1.31-3.32.57-6.73,1.52-9.88-4.69.13-4.64,5.27-4.71,8.68Zm11.93-8.08c-.63,1.89-2.14,3.88-1.44,5.92.48,2,3.64,2.26,4.23.15C24.61,102.38,22.85,99.82,20.44,98.88Z"/><path class="cls-1" d="M0,127.4c.62-6.51,1.17-13.05,1.74-19.58,1.61.12,3.2.26,4.81.43-.22,2.38-.47,4.76-.62,7.15,6.24.6,12.49,1.11,18.73,1.68-.15,1.73-.3,3.47-.46,5.2q-9.38-.87-18.78-1.68c-.19,2.37-.39,4.74-.58,7.11C3.22,127.63,1.62,127.51,0,127.4Z"/><path class="cls-1" d="M157.8,112.76a44.32,44.32,0,0,1,9.9-3.34c1.81.92,2.25,3.13,2.28,5-3.15,2.53-7.55,3.24-11.49,3.66C158.19,116.35,157,114.5,157.8,112.76Z"/><path class="cls-1" d="M252.45,116.66c3.31-1.73,7.65,1.43,7.09,5.1-.12,4-5.67,6.15-8.4,3.17C248.41,122.7,249.26,118,252.45,116.66Z"/><path class="cls-1" d="M91,136.61c4.92-5.93,12.45-11.58,20.6-9.49,3.37.59,5.52,3.48,8.35,5,10.78,2.72,22,3.34,33.06,3.09,2,6.62,3.94,13.28,5.62,20-10.64.9-21.36-.44-31.73-2.81a87.22,87.22,0,0,0,12,6.15,41.21,41.21,0,0,1-8.71,19.48l-4.46-2.27c-.2,1.59-.41,3.2-.62,4.79q-27.35,0-54.7,0C74.94,165,80.62,149.28,91,136.61Z"/><path class="cls-1" d="M175.45,129.56c3.29-1.52,5.73,2.27,5.08,5.24a4.84,4.84,0,0,1,.9,8c1.26,1.71,2.22,4.16.4,5.88-3.43,2.27-7,4.47-11,5.43-5.93.48-12.22-4.29-11.83-10.56a24.77,24.77,0,0,1,4.5-11.32,48.26,48.26,0,0,1,6.94.16C172.07,131.46,173.72,130.45,175.45,129.56Z"/><path class="cls-1" d="M143.89,164.52c3-2.39,5.18-5.55,7.35-8.65,3.42,2.3,3.25,6.62,1.51,9.91,5.59-.14,11.18.09,16.77.33,3.59.24,4.1,6.23.43,6.79-4.44.43-8.91-.13-13.35.15,4.23,1.68,8.79,2.53,12.87,4.57,2.41,1.75,1.28,6-1.72,6.38-4.34-.65-8.32-2.71-12.57-3.75,2.59,2.44,8.44,3.47,7.37,8-2.87,4.39-7.22-.43-10.23-2.09-3.24-3-8.32-2.06-11.28-5.38a10.25,10.25,0,0,1-2.26-11C139.73,167.39,142,166.11,143.89,164.52Z"/><path class="cls-2" d="M160.24,120.69c2.82-2.21,6.81-2.55,10.11-3.94,2.85,3.72,3.42,8.55,5.11,12.81-1.73.89-3.39,1.9-5.07,2.88a48.26,48.26,0,0,0-6.94-.16C162.34,128.48,160,124.65,160.24,120.69Z"/><path class="cls-2" d="M8.78,135.71c3-2.41,7.82,0,8,3.74.5,4-4.62,7.08-7.81,4.52A5,5,0,0,1,8.78,135.71Z"/><path class="cls-2" d="M248.7,145.85c-1.67-3.71.16-7.72,2.2-10.86,1.09.79,2.19,1.58,3.27,2.41-1.24,2.33-3.31,5.09-1,7.52,1.73-2.34,2.87-5.06,4.61-7.39,2.62-3.05,8.28-1.11,8.81,2.78,1,3.89-1.09,7.59-3.17,10.72q-1.74-1.16-3.41-2.38c1.42-2.31,3.82-5.06,2.38-7.92-2.82-.21-2.85,3.77-4.37,5.49C256.29,150.05,250.36,149.42,248.7,145.85Z"/><path class="cls-2" d="M170.78,154.16c4-1,7.62-3.16,11-5.43,1,3.46,2.9,6.83,2.72,10.54a47.09,47.09,0,0,1-1.94,11.23C177,166.53,171.91,161.22,170.78,154.16Zm3.84,5.81,3.34,3.78c1.44-.51,2.89-1,4.34-1.49l.5-5C180,158.13,177.33,159.06,174.61,160Z"/><path class="cls-2" d="M251.59,152.48c5.43-1.41,11.39,3.17,11.4,8.78.33,5-3.44,10.11-8.52,10.57-5,.65-10-3.42-10.29-8.44C243.57,158.63,246.85,153.53,251.59,152.48Zm.06,5.12c-3.25,1-4.28,5.83-1.51,7.92,2.52,2.43,7.43,1.37,8.23-2.2C259.67,159.49,255.13,156.21,251.65,157.6Z"/><path class="cls-2" d="M21.6,156.28l4.5-1.52c2.18,6.13,4.36,12.27,6.57,18.38l-4.48,1.67c-.83-2.25-1.62-4.52-2.43-6.79-5.92,2.1-11.85,4.17-17.74,6.34q-.91-2.44-1.8-4.86c5.89-2.22,11.86-4.23,17.76-6.43C23.2,160.81,22.35,158.57,21.6,156.28Z"/><path class="cls-2" d="M174.16,175.74c14.51-1.66,27.85-8.29,40.28-15.59-3.87,8.17-7.24,16.81-7.73,26-15,5-30.5,8.78-46.28,10C168.13,192.32,175.37,185,174.16,175.74Z"/><path class="cls-2" d="M237.15,181.13c-.45-4.58,2.58-8.82,6.73-10.52.55,1.41,1.12,2.81,1.68,4.23-1.5,1.13-3.5,2.07-3.84,4.14-1,4.33,5.67,7.81,8.61,4.32,1.62-1.56,1.22-3.88,1.21-5.9l4-1.29c1.65,4.77-.38,10.66-5.13,12.74C244.89,191.59,237.46,187.27,237.15,181.13Z"/><path class="cls-2" d="M23.34,177.72l3-2.9c3.31,3.37,7.48,8.48,4.83,13.38-3.29,4-8.63,5.34-12.92,8-.74-1.45-1.48-2.89-2.24-4.31l1.45-.7c-2.49-1.55-5-3.75-5.17-6.89-.74-4.32,5.1-7.77,8.5-5.07,2.68,1.89,3.54,5.26,4.88,8.08C28.92,184.08,25.66,180.29,23.34,177.72Zm-5,5.23c-3.09.7-1.87,4.66.23,5.74,1.21,1,2.86,0,4.21,0C21.86,186.59,21.34,182.86,18.37,183Z"/><path class="cls-2" d="M227.1,183.63l3.84,2.44-2.87,4.6c-1.29-.83-2.6-1.65-3.89-2.47Z"/><path class="cls-2" d="M21.61,200.93c6.7-4.71,13.47-9.35,20.22-14q1.47,2.09,3,4.17c-6.8,4.68-13.55,9.45-20.38,14.07Z"/><path class="cls-2" d="M232.6,187.29c5,3.3,10.17,6.49,15.23,9.8q-1.39,2.14-2.76,4.28-7.65-4.86-15.25-9.76C230.74,190.16,231.66,188.72,232.6,187.29Z"/><path class="cls-2" d="M28,209.71c6.36-5.25,12.77-10.45,19.14-15.68,1.07,1.37,2.14,2.75,3.17,4.15-6.43,5-12.66,10.32-19,15.44Z"/><path class="cls-2" d="M221.83,205.29c-.13-4.29,3.69-9.6,8.41-7.79,4.47,2.41,7.64,6.61,11.58,9.74L238.25,211c-3.05-2.55-5.64-5.72-9-7.84-2.45-1.15-5.33,2.39-3.43,4.47,2.49,2.89,5.56,5.23,8.32,7.86q-1.69,1.92-3.36,3.86c-3.06-2.49-5.62-5.62-8.94-7.74-2.66-1.64-5.65,2.35-3.51,4.49,2.52,2.8,5.51,5.14,8.25,7.73q-1.72,1.89-3.43,3.79-6.74-6.08-13.37-12.26c1.14-1.26,2.29-2.51,3.45-3.76l1.62,1.5A6.91,6.91,0,0,1,221.83,205.29Z"/><path class="cls-2" d="M38.39,221.09c-2.81-5.77,2.32-12.94,8.47-13.16,5.12-.4,10.12,4.55,9.17,9.74-.28,2.79-2.25,4.94-4,7-3.08-3.05-6.16-6.09-9.48-8.88-1.89,4,1.81,7.21,5.53,7.63.1,1.3.19,2.61.23,3.92A10.9,10.9,0,0,1,38.39,221.09Zm6.7-7.9c1.64,2.29,4,4,6.11,5.77.1-1.91,1.18-4.48-.91-5.72C48.88,211.65,46.73,212.6,45.09,213.19Z"/><path class="cls-2" d="M197,214.08c1.59-.33,3.18-.65,4.77-1l-1.25,5.83c-1.05.74-2.09,1.49-3.14,2.24C197.29,218.81,197.15,216.45,197,214.08Z"/><path class="cls-2" d="M62,218.32l4.29,3c-.54.6-1.62,1.83-2.16,2.45a10.64,10.64,0,0,1,7.06.07c-1,1.57-2,3.11-3,4.64-2-.58-4.44-1.84-6.32-.29-2.64,2.1-4.29,5.11-6.22,7.81l-4.26-3C55,228.17,58.43,223.21,62,218.32Z"/><path class="cls-2" d="M196.6,226.29c1.1-4.54,6.26-7.76,10.82-6.36,2.8.8,4.62,3.21,6.4,5.35-3.56,2.53-7.22,5-10.63,7.69,3.65,2.38,7.46-.3,8.65-4,1.3.14,2.62.31,3.92.52-1,4.4-4.53,8.36-9.2,8.68C200.34,239,195,232.17,196.6,226.29Zm5.55-1.39c-1.77,1.22-1,3.58-1,5.36a67.94,67.94,0,0,0,6.94-5.11C206.23,224.36,203.87,223.23,202.15,224.9Z"/><path class="cls-2" d="M183.36,224.35q2.3-1,4.63-2c3.47,7.41,7,14.82,10.41,22.25-1.54.75-3.09,1.48-4.63,2.21l-1-2.05c-1.07,2.64-3.07,5.12-6.11,5.39-7.93,1.36-13.76-10-8.34-15.8,2.11-2.53,5.65-2.94,8.67-2.13C185.69,229.62,184.5,227,183.36,224.35Zm.62,11.47c-5.22,2.13-1.55,11.3,3.69,9.32C193.46,243.4,189.56,233.27,184,235.81Z"/><path class="cls-2" d="M71.69,228.81c4.89-2.45,11.57,1.08,12.23,6.52.42,2.75-.87,5.34-1.9,7.82-3.92-2-7.78-4.2-11.75-6.13.42,1.55.24,3.49,1.6,4.63,1.63,1.56,4,1.33,6.08,1.5.38,1.22.75,2.43,1.12,3.65-4.2,1-9.08-.14-11.62-3.83C63.85,238.33,66.51,231,71.69,228.81Zm.28,5.41c2.46,1.31,4.94,2.61,7.46,3.8-.17-2,0-4.65-2.29-5.4C75.27,231.33,73.49,233.25,72,234.22Z"/><path class="cls-2" d="M87.63,243.51c-1.91-3.47,1.42-7.87,5.18-7.7,3.46.14,6.4,2.25,8.51,4.86-1,.78-2,1.58-3,2.41-1.81-1.63-3.79-3.18-6.3-3.53-.27,3.12,3.15,4.27,4.81,6.33,3.2,2.68,1,8.49-3.07,8.72-4.39.64-8-2.42-10.68-5.44,1-.87,2.07-1.69,3.13-2.51A16,16,0,0,0,92.73,251l1.12-1.9C91.78,247.25,89.24,245.83,87.63,243.51Z"/><path class="cls-2" d="M122.42,236.57a46.56,46.56,0,0,1,4.79.55c2.9,8.07,5.54,16.23,8.32,24.35-1.83-.12-3.66-.27-5.48-.43-.52-1.79-1.06-3.58-1.6-5.36-3.31-.3-6.64-.53-10-.85q-1.31,2.58-2.59,5.19c-1.75-.15-3.49-.27-5.23-.37C114.38,251.84,118.64,244.33,122.42,236.57Zm-1.7,13.86c2.06.18,4.14.33,6.21.5-.9-2.57-1.75-5.17-2.64-7.74A64,64,0,0,0,120.73,250.43Z"/><path class="cls-2" d="M157,241.75c4.19-2.59,11-5.65,14.75-.85,2.41,4.09,2.77,9,4.28,13.45l-4.66,1.33-.63-1.53c-1.95,2.32-4.93,4.19-8.08,3.42-3.87-.53-5.64-5.81-3.21-8.73,2.36-2.74,6.22-3,9.56-3.43-2.26-4-6.8-1.82-9.84-.1C158.41,244.12,157.68,242.95,157,241.75Zm6.08,9.75c.27,2.45,3.08,2.79,4.83,1.56,2-.67,1.63-3,1.88-4.61C167.35,248.69,163.78,248.5,163.06,251.49Z"/><path class="cls-2" d="M143,242.7c3.57-1.95,7.92-1.24,11.18,1l-2.62,3.67c-1.78-.56-3.6-2-5.52-1.08-4,1.43-3.82,7.9,0,9.47,2.36.83,4.45-.67,6.32-1.88,1.08.84,2.17,1.68,3.23,2.53-3.37,4.42-10.46,5.57-14.57,1.55C136.35,254,137.41,245.35,143,242.7Z"/></g></g></svg>