<svg xmlns="http://www.w3.org/2000/svg" viewBox="0 0 266.84 271.99"><defs><style>.cls-1{fill:#ffab00;}.cls-2{fill:#00b0ff;}</style></defs><title>VitaminaI</title><g id="Layer_2" data-name="Layer 2"><g id="Layer_1-2" data-name="Layer 1"><path class="cls-1" d="M96.73.59c4.24-2.75,8,4.88,3.67,6.82C96.11,10.44,92.13,2.42,96.73.59Z"/><path class="cls-1" d="M94.94,11.81c3-.8,6-1.59,8.94-2.4,1.9,6.63,3.56,13.33,5.35,20l-6.3,1.76c-1.46-4.72-2.65-9.51-3.87-14.3l-2.79.56C95.82,15.55,95.37,13.68,94.94,11.81Z"/><path class="cls-1" d="M121.57,10.79c3.32-1.88,8,1.19,7.3,5-.19,3.71-5.15,5.82-8,3.48A5.06,5.06,0,0,1,121.57,10.79Z"/><path class="cls-1" d="M67.57,28.17c3.39-3.43,8.91-8,13.77-4.63,3.53,3.4,5,8.3,7.55,12.41l-4.32,2.38-.78-1.42c-1.33,2.43-3.33,4.75-6.25,5.09-4,1.07-7.79-3.76-6.1-7.45C73,31.18,76.83,30.12,80,28.77,76.87,25.48,73,28.6,70.55,31,69.56,30,68.56,29.1,67.57,28.17Zm8.23,6.71A2.76,2.76,0,0,0,77.56,38c2.2-.17,3.57-1.94,4.74-3.59-.29-.69-.88-2.07-1.19-2.76C79.19,32.4,76.78,32.84,75.8,34.89Z"/><path class="cls-1" d="M53.13,39.92c.31-4.47,5.13-8.64,9.45-5.94,3.8,3.12,6.28,7.55,9.51,11.21L68,48.4c-2.52-3-4.64-6.5-7.59-9.17-2.32-1.8-6,1.86-4.15,4.16,2,3.17,4.58,5.93,6.83,8.92l-4,3.14c-3.79-4.7-7.53-9.45-11.26-14.2L52,38.07Z"/><path class="cls-1" d="M38.7,41.27c1.13,1,2.27,2.06,3.38,3.1-1.3,1.32-2.61,2.63-3.91,3.95l-3.26-3.24Z"/><path class="cls-1" d="M39.81,49.53c1.19-1.2,2.35-2.39,3.53-3.59,4.42,4.09,8.69,8.33,13,12.5L52.75,62.1C48.49,57.86,44.08,53.77,39.81,49.53Z"/><path class="cls-1" d="M29.89,65.63c-.76-4.21,2.06-9.81,7-9,4.81,1.59,8.61,5.24,12.92,7.8q-1.36,2.17-2.71,4.34c-3.37-2.08-6.44-4.67-10-6.36-2.81-1.11-5.06,3.21-2.8,5,3,2.41,6.3,4.3,9.46,6.42-1,1.43-2,2.85-2.94,4.29-3.34-2.11-6.41-4.69-10-6.37-2.36-.81-3.14,1.89-4.12,3.38,2.92,3.53,7.18,5.45,10.88,8Q36,85.38,34.63,87.56c-5-3.38-10.1-6.66-15.11-10l2.9-4.35,1.67,1.48A7.23,7.23,0,0,1,29.89,65.63Z"/><path class="cls-1" d="M99,74.65c3.59-3.72,7.33-7.29,11-11l4,3.85-3,3,.93,2.12c-2.53,2.43-5,4.88-7.49,7.36l3.49,3.68c3.81-3.59,7.48-7.31,11.15-11q2.26,2.3,4.56,4.59c-3.7,3.63-7.28,7.38-11,11s-10.63,3.5-14.11-.46A10.21,10.21,0,0,1,99,74.65Z"/><path class="cls-1" d="M118.51,64.79c1.88-1.93,5.37.42,4.6,2.91-.16,2.4-3.92,3.55-5.24,1.49A2.86,2.86,0,0,1,118.51,64.79Z"/><path class="cls-1" d="M12.48,99c.08-4.79,1.24-11.54,6.82-12.69,5.09,0,9.63,2.88,14.39,4.38-.8,1.75-1.18,3.93-3.16,4.75.53,2.92,0,6.27-2.41,8.21-3,2.59-8.36.41-8.77-3.5-.42-3.31,1.48-6.24,2.82-9.1-4.6-.41-5.29,4.61-5.67,8Zm12.39-6.66c-.75,1.86-2.24,3.66-1.93,5.79a27.29,27.29,0,0,0,2.54,2.36c1.1-1.48,2.83-3.07,2.36-5.11C27.63,93.8,26,93.17,24.87,92.36Z"/><path class="cls-1" d="M9.93,104.15l4.29.91c-.29,1.39-.59,2.78-.9,4.17a80.78,80.78,0,0,0,8.35,1.57c1.82-.08,1-2.71,1.51-3.82l4,.92c.19,3,0,7.54-3.74,8.26-3.75.06-7.37-1.27-11-1.94l-.73,2.1L8,115.54c-.05-.57-.15-1.72-.19-2.29l-4.32-.87c.36-1.68.73-3.34,1.08-5l4.5.92Z"/><path class="cls-1" d="M242.24,128.11c7.72-3.6,15.48-7.11,23.15-10.78.11,1.9.25,3.81.4,5.7-5.44,2.41-10.92,4.76-16.39,7.1,5.68,1.78,11.38,3.54,17.06,5.33,0,1.86.06,3.74.1,5.6-8-2.91-16.13-5.55-24.19-8.34Z"/><path class="cls-1" d="M.56,119.49l4.5.46-.53,5.35c-1.51-.17-3-.31-4.53-.47C.18,123.05.37,121.27.56,119.49Z"/><path class="cls-1" d="M7,120.35c6,.48,12,1.25,18,1.76-.16,1.71-.32,3.42-.5,5.14-6-.61-12-1.26-18-1.87C6.67,123.7,6.85,122,7,120.35Z"/><path class="cls-1" d="M0,130.22c8.07,2.86,16.14,5.67,24.21,8.54.08,1.54.17,3.08.24,4.62-7.83,3.46-15.59,7.06-23.4,10.53,0-1.9-.18-3.81-.09-5.71,5.38-2.41,10.86-4.62,16.31-6.87C11.68,139.48,6,137.72.4,135.82.29,134,.18,132.09,0,130.22Z"/><path class="cls-1" d="M242.42,144c6,.61,12,1.11,17.93,1.73-.17,1.7-.32,3.39-.48,5.1q-9-.87-18.08-1.7C242,147.4,242.2,145.69,242.42,144Z"/><path class="cls-1" d="M262.31,145.91c1.51.06,3,.16,4.53.26-.15,1.79-.29,3.58-.42,5.37-1.54-.14-3.07-.27-4.6-.43C262,149.38,262.14,147.64,262.31,145.91Z"/><path class="cls-1" d="M239.75,163.41c-.14-2.94-.25-7.38,3.36-8.26,3.83-.31,7.58,1.1,11.31,1.77.17-.53.5-1.58.68-2.1l4.15.79c-.07.56-.21,1.69-.27,2.24l4.41.79c-.33,1.69-.66,3.36-1,5l-4.5-.9L257,167c-1.42-.3-2.84-.58-4.26-.87l.87-4.17c-2.78-.51-5.52-1.26-8.34-1.51-1.88.1-1.05,2.66-1.61,3.89Z"/><path class="cls-1" d="M238.84,167.76c3.12-2.62,8.83-.12,8.72,4,.24,3.1-1.53,5.8-2.63,8.57,4.51.33,5.17-4.57,5.43-7.92l4.08,0c0,4.87-1.37,12-7.27,12.69-4.86-.32-9.2-2.89-13.81-4.26q.87-2.39,1.72-4.76l1.47,1C235.69,173.9,236,170,238.84,167.76Zm1,5c-1.5,2.23-.43,4.86,1.46,6.44,1.33-1.46,2.87-3.08,2.62-5.24C244.32,171.66,240.79,170.72,239.82,172.77Z"/><path class="cls-1" d="M229.86,188.3c1-1.44,2-2.87,2.94-4.31,5,3.33,10.09,6.57,15.13,9.85q-1.42,2.19-2.83,4.39l-1.8-1.51a7.11,7.11,0,0,1-5.63,9.13c.85,4.3-2.12,10-7.12,9-4.69-1.73-8.51-5.18-12.82-7.67q1.39-2.15,2.8-4.29c3.42,2,6.53,4.68,10.23,6.2,2.41.87,4.74-2.75,2.89-4.54-2.88-2.81-6.61-4.53-9.87-6.85l2.91-4.26c3.2,2,6.22,4.39,9.65,6.06,2.47,1.47,5.25-2.26,3.52-4.35C236.94,192.33,233.19,190.58,229.86,188.3Z"/><path class="cls-1" d="M214.5,209.39c4.37,4.15,8.83,8.21,13.1,12.46q-1.69,1.89-3.39,3.76c-4.39-4.14-8.75-8.31-13.17-12.43Q212.76,211.25,214.5,209.39Z"/><path class="cls-1" d="M204.26,219.31l4-3.29c3.78,4.69,7.55,9.4,11.38,14.07-1.35,1.1-2.71,2.23-4.06,3.34l-1.09-2.05c-.27,4.32-4.76,8.74-9.11,6.39-4.07-3-6.65-7.56-10-11.31,1.32-1.08,2.64-2.15,4-3.25,2.59,2.95,4.7,6.34,7.59,9,2.45,2.1,6.19-1.9,4.15-4.29C209.07,224.86,206.56,222.16,204.26,219.31Z"/><path class="cls-1" d="M225.48,227.09q1.87-2,3.78-4l3.28,3.26c-1.23,1.25-2.46,2.51-3.66,3.78Z"/><path class="cls-1" d="M183.94,234.87c1.31-2.39,3.27-4.66,6.13-5.09,4-1.05,8,3.87,6.09,7.6-1.52,3.3-5.36,4.24-8.36,5.67,3.1,3.33,7,0,9.44-2.33l2.95,2.91c-3.37,3.48-8.88,8-13.77,4.66-3.55-3.38-5.07-8.29-7.64-12.37l4.29-2.35Zm3,.44c-1.75,1.18-.74,3.34-.52,5,1.87-.86,4.22-1.29,5.41-3.16-.08-1.07-.22-2.13-.4-3.2C189.87,234.2,188,234,186.9,235.3Z"/><path class="cls-1" d="M158.37,242.63c2.13-.56,4.28-1.11,6.43-1.63,1.31,4.75,2.62,9.48,3.92,14.24l2.62-.7c.54,1.86,1.06,3.75,1.59,5.62l-9,2.49C162,256,160.2,249.3,158.37,242.63Z"/><path class="cls-1" d="M140.43,252.51c3.25-1.75,7.8,1.05,7.19,4.84.1,4-5.2,6.12-8.11,3.59A5.08,5.08,0,0,1,140.43,252.51Z"/><path class="cls-1" d="M167.38,264.67c4.49-3.33,8.45,5.39,3.45,6.87C166.72,273.86,163.19,266.5,167.38,264.67Z"/><path class="cls-2" d="M136.09,3a44.69,44.69,0,0,1,4.54.71c1.38,3,2.27,6.2,3.39,9.31,1.61-2.9,3.25-5.81,4.82-8.73l4.68.28c-.61,7.87-1.27,15.74-2,23.59l-4.35-.41c.41-4.86.91-9.72,1.16-14.6-1.67,3-3.34,6-5.08,9-1.21-3.31-2.44-6.61-3.57-9.94-.37,5-.85,9.9-1.26,14.85L134,26.59C134.8,18.72,135.38,10.83,136.09,3Z"/><path class="cls-2" d="M158.12,11.93c3.81-.33,9.52.12,10.25,4.87.1,5-2,9.71-2.87,14.59l-4.36-.92.71-1.53c-2.2,1-5.56,1.61-7-1-1.42-3.13-.32-7.62,2.92-9.18,2.24-.69,4.37.57,6.45,1.21l-.58-2.94c-1-1.88-3.53-1-5.23-1.43Zm1.81,14.92c2.25,1,2.76-2.75,3.48-4.1a35.8,35.8,0,0,0-3.64-.73C158.61,23.31,157.57,26.2,159.94,26.84Z"/><path class="cls-2" d="M172,24.48c-2.34-2.92-.12-7.74,3.51-8.13,3.07-.54,5.45,1.88,7.52,3.78l-2.83,2.36c-1.36-.79-2.52-2.64-4.31-2.3-1.59,2.09,1.35,3.79,2.11,5.63,2.83,3,.51,8.53-3.59,8.71-3.26.29-5.74-2.13-7.66-4.42l2.87-2.5c1.46,1.26,2.88,3.9,5.19,2.82C175.39,28.08,172.87,26.45,172,24.48Z"/><path class="cls-2" d="M184.68,22.09c1-2.06,3.54-3.21,4.35-5.57,1.28.6,2.56,1.21,3.85,1.8-.69,1.38-1.36,2.77-2,4.15l2.64,1.28c-.54,1-1.07,2-1.59,3l-2.71-.91a89.18,89.18,0,0,0-4.6,9.66l2.54,1-1.84,3.3c-2-.81-5.37-1.39-5.2-4.25C180.78,30.8,185.09,27.15,184.68,22.09Z"/><path class="cls-2" d="M194,29.06c2.83-2.56,7.93-2.18,9.72,1.43s-.82,7.45-2.51,10.68c-2.64-1.63-5.25-3.32-8-4.75.21,1.63-.69,4.14,1.34,4.94a33.17,33.17,0,0,0,3.66.77l-.34,3.42c-3.1.14-6.64-.63-8.12-3.68C187.46,37.27,190.49,32.07,194,29.06Zm1.16,4.55q2,1.34,4.14,2.68c.49-1.36,1-2.74,1.46-4.11C198.7,30.14,196.71,32.06,195.15,33.61Z"/><path class="cls-2" d="M198.49,48.16c3.77-4.67,7.54-9.35,11.19-14.1l3.54,2.82c-.41.37-1.2,1.13-1.59,1.51q2.45-.06,4.93,0c-.93,1.44-1.87,2.84-2.82,4.25-1.67-.2-3.67-1.2-5,.22-2.61,2.4-4.55,5.41-6.82,8.12Z"/><path class="cls-2" d="M218.54,50.64c3.32-3,8-6,12.64-4,3.2,1.24,4.67,4.55,5.2,7.72l-4.27.61c-.58-1.73-1.13-4.55-3.55-4.37-5.26.41-9.36,5.08-10.62,10a18.55,18.55,0,0,0,4.69,3.07c-.35,1.32-.72,2.65-1.08,4-2.7-.87-5.72-2-7-4.77C212.25,58.5,215.3,53.61,218.54,50.64Z"/><path class="cls-2" d="M220.65,70.45q9.73-7.07,19.5-14.1c.86,1.19,1.72,2.37,2.59,3.56q-9.82,7-19.56,14.13C222.33,72.83,221.48,71.64,220.65,70.45Z"/><path class="cls-2" d="M110,63.68c3.08-3.2,6.38-7.19,11.33-6.82,5.59-.62,11.09,4.86,9.87,10.48-.91,4.29-4.88,6.8-7.65,9.86q-2.3-2.3-4.56-4.59c-3.66,3.74-7.34,7.45-11.15,11L104.33,80c2.48-2.48,5-4.93,7.49-7.36l-.93-2.12,3-3Zm8.53,1.11a2.86,2.86,0,0,0-.63,4.4c1.31,2.06,5.08.92,5.24-1.49C123.88,65.21,120.39,62.87,118.51,64.79Z"/><path class="cls-2" d="M239.61,67.51c1.74,1.64,3.72,3.26,4.43,5.65,1.11,2.46-.2,5.32-2.36,6.69-3.5,2.37-7.28,4.29-10.86,6.52-.75-1.26-1.5-2.52-2.26-3.78l1.28-.49c-1.79-1.17-4.26-2.38-4-4.93.58-3.86,5.28-6.4,8.88-5.09,1.95,1.18,2.46,3.57,3.47,5.45.63-.81,1.23-1.64,1.8-2.5.32-2.09-1.68-3.3-2.81-4.72C237.78,69.61,239,68.21,239.61,67.51Zm-9.46,11.28c.67,2.64,3.55.83,5.2.21-.32-1-.63-2.08-.95-3.11C232.6,75.93,229.47,76.25,230.14,78.79Z"/><path class="cls-2" d="M145,81.08c9.82-5.21,22.4-5,31.78,1.06a31,31,0,0,1-9.1,56.21,31.2,31.2,0,0,1-38.23-24.73c9.45,3.5,19.83,1.43,28.72-2.69-10.15,0-20.42-4.88-26-13.53-1.31-1.7.7-3.51,1.12-5.18-.85-3-2.21-6.55-.28-9.44C136,79.36,141,80.46,145,81.08Z"/><path class="cls-2" d="M241.89,83.26a5.32,5.32,0,0,1,7.42.26c1.86,1.88,1.79,4.65,2,7.1l-3.65.1c-.5-1.87.25-5-2.63-4.85-.93,2.25-1.05,4.72-1.82,7-1.27,3.39-6.45,4.33-8.75,1.46-2-2.17-1.88-5.3-1.84-8l4,.28c0,1.93-.93,4.91,1.58,5.71C240.94,90.12,239.22,85.59,241.89,83.26Z"/><path class="cls-2" d="M79.31,91.18c-2-3.27,2.74-7.15,5.6-4.65,4,4.64,7.22,10,10.83,14.95,1.71-3.54,5.4-5.81,9.38-4.7-1.75,5.13-3.42,10.35-3.47,15.83-.68,8-11.93,11-17.33,5.66-3.66-4.3-9.67-4.82-14.15-7.9-1.59-2.34.23-6.11,3.22-5.55,2.86.85,5.51,2.26,8.3,3.31C78,105,73.91,102.32,70.33,99c-.32-2.94,1.66-6.22,5-5.12C79.49,96.34,83,99.71,87,102.39,84.63,98.51,81.66,95,79.31,91.18Z"/><path class="cls-2" d="M243,103.55c1.69-3.27,1.63-8.75,6.22-9.39,5.19-.9,7.27,5.38,6,9.46l-3.63-.58c0-1.66.7-5.85-2.11-4.67-1.21,2.07-1.47,4.55-2.59,6.66-1.66,2.86-6.43,3.39-8.4.59-2.13-2.36-1.76-5.69-1.2-8.57,1.28.28,2.56.58,3.84.87C240.9,99.93,239.87,103.53,243,103.55Z"/><path class="cls-2" d="M93.72,128.08c3.7-5.43,9.88-8.26,15.89-10.34,11.11,18.91,34.18,29.37,55.73,26.54,2.85,1.75,6.08,2.9,8.63,5.12,5.34,4.55,9.2,10.55,12.46,16.7A100.59,100.59,0,0,1,196.9,200q-28.15.06-56.3,0c-.28-2.91-.51-5.84-.66-8.75-10.33,4.12-21.26,7.11-32.42,7.36-1.06-7.3.58-15.1,5.58-20.68a59.82,59.82,0,0,0,26.73-5.33c1.43-2.23,1-5.24,1.62-7.78C121.06,160.4,104.11,145.8,93.72,128.08Z"/><path class="cls-2" d="M20.58,164.78a5.25,5.25,0,0,1,8,2c1.34,2.3.69,5,.27,7.45l-3.72-.83c.07-2,1.5-5.59-1.66-5.77-1.51,2.32-1.73,5.19-3.14,7.55-1.85,2.2-5.72,2.7-7.72.41-2.21-2.1-1.95-5.34-1.7-8.1l3.7.61a42.87,42.87,0,0,0,.39,5.41C19,172.31,17.51,166.95,20.58,164.78Z"/><path class="cls-2" d="M85.41,184.14c-3.13-2.51-4.79-7.11-2-10.51a37.77,37.77,0,0,0,13.79,6.91c6.41,1.62,8.75,10,5.55,15.35-1.3,2.85-4.34,4-6.57,6-2.76,3-4.6,6.75-7.56,9.58a3.74,3.74,0,0,1-5.46-2.95c1-3.29,3.64-5.7,5.42-8.59-3.86,2.64-7,6.25-11.1,8.56-3.47,1.38-6.59-3.63-4-6.2,3.41-3.31,7.43-5.94,10.8-9.3-4.73,1.68-9.16,4.21-14.06,5.35-3.65-.08-5.1-5.71-1.68-7.23C74.05,188.53,79.74,186.37,85.41,184.14Z"/><path class="cls-2" d="M23.13,178.64a5.3,5.3,0,0,1,8.26-2.08c2.53,2.13,2.59,5.72,2.19,8.74l-3.75-.5c.3-2.32.22-4.87-2.13-6.07-1.7,3.75-1,10.06-6.32,10.75-4.81.49-6.89-5-6.22-9l3.77.25c-.08,2.13,0,4.48,2.45,5.18C22,183.53,22.38,181,23.13,178.64Z"/><path class="cls-2" d="M22.88,193.16c3.61-3.64,8.62-5.41,12.9-8.12.67,1.58,1.3,3.2,1.88,4.82a12.25,12.25,0,0,1,2.7,3c.79,4.1-3.71,7-7.35,6.87-3-.45-3.83-3.85-5.18-6.08-2.64,2.51-1.23,5.43,1.25,7.31-.81.95-1.62,1.88-2.43,2.83C23.63,201.4,20.08,197,22.88,193.16Zm7.87-.6c.78,1.21,1.06,3.3,2.91,3.1,1.52-.34,3.86-2.3,2.12-3.76C34.33,190.19,32.34,192.18,30.75,192.55Z"/><path class="cls-2" d="M23.25,211.4c6.51-4.69,13.09-9.26,19.62-13.94l2.56,3.6c-6.6,4.6-13.13,9.3-19.7,13.92Z"/><path class="cls-2" d="M44.5,203.84c3,.71,6,2.28,7.23,5.29,1.83,4.07-.94,8.39-3.84,11.15-3.38,3.4-8.64,6.54-13.45,4.24-3-1.32-4.13-4.58-4.9-7.52l4.43-.67c.56,1.74.86,4.19,3.14,4.44,3.7,0,6.78-2.71,9-5.41,1.08-1.59,2.35-3.9.92-5.67-.95-1-2.45-1.27-3.65-1.87Z"/><path class="cls-2" d="M57.36,228.79c2.59-2.37,4.52-5.37,6.8-8l3.39,2.78C63.73,228.22,60,233,56.12,237.58l-3.36-2.89,1.7-1.48a28.64,28.64,0,0,1-5.17-.26c1.06-1.35,2.13-2.66,3.23-4C54.13,229.35,56,230.2,57.36,228.79Z"/><path class="cls-2" d="M68.62,226.13c3,.28,6.58,1.07,7.83,4.21,2,4.94-1.35,10.45-5.45,13.19-3.07,2.17-8,.74-9.06-3-1-3.58,1.32-6.83,2.94-9.82,2.6,1.67,5.18,3.35,7.84,4.94a13.05,13.05,0,0,0-.16-4.32c-1.26-1.26-3.14-1.07-4.75-1.41Zm-2,9.43c-.4,1.64-1.55,3.43-.45,5.06,2.05.51,3.34-1.21,4.72-2.35C69.44,237.35,68,236.45,66.59,235.56Z"/><path class="cls-2" d="M79.1,235.24c.39-.76,1.18-2.27,1.56-3,2.1.74,5.59,1.39,5.29,4.34-.84,4-3.27,7.41-5.08,11l.84,1.93L80.3,252l-1.33-.7-2,4.18c-1.3-.66-2.6-1.29-3.9-1.94l2.12-4.11c-.63-.34-1.93-1-2.56-1.38.39-.8,1.14-2.41,1.52-3.22l2.63,1.31a90.75,90.75,0,0,0,4.54-9.53Z"/><path class="cls-2" d="M87.78,239.33c3.3-4,8.93-.93,11.33,2.52l-3,2.53c-1.37-1.27-2.86-4.17-5.11-2.77-.36,3.55,4.26,5.68,3.72,9.39-.27,2.6-2.65,3.95-4.76,5a14.93,14.93,0,0,1-7.26-4.24l2.84-2.28c1.35,1,4.59,4.23,4.91.77C88.56,247,84.48,243,87.78,239.33Z"/><path class="cls-2" d="M100.37,240.33c1.5.63,3.61.57,4.37,2.3,2.34-1.18,5.61-.57,6.52,2.17.62,2.89-.26,6.36-2.77,8.12-2.39,1.25-4.92-.37-7.23-1-.29,3.52,2.84,5,5.91,4.31.15,1.21.28,2.43.43,3.64-4.21,1-10.5-.57-10.44-5.86C97.74,249.35,99.39,244.9,100.37,240.33Zm2,8.7,3.47,1.26c.73-1.69,2.38-3.63.56-5.24C103.74,244.31,103,247.2,102.34,249Z"/><path class="cls-2" d="M114,244.25l4.41.4c-.49,4.86-1,9.72-1.37,14.58,1.83-2.74,3-6,5.34-8.34,1.23,2.94,2.18,6,3.35,8.93.52-4.77.93-9.55,1.41-14.31l4.36.41c-.79,7.84-1.6,15.68-2.21,23.52l-4.67-.5c-1.11-3.13-2.18-6.29-3.23-9.43-1.7,2.9-3.34,5.83-5,8.73q-2.3-.25-4.59-.47Q112.89,256,114,244.25Z"/></g></g></svg>